<?xml version="1.0" encoding="UTF-8" standalone="no"?>
<!DOCTYPE svg PUBLIC "-//W3C//DTD SVG 1.1//EN"
 "http://www.w3.org/Graphics/SVG/1.1/DTD/svg11.dtd">
<!-- Generated by graphviz version 2.40.1 (20161225.0304)
 -->
<!-- Title: %3 Pages: 1 -->
<svg width="1326pt" height="1209pt"
 viewBox="0.00 0.00 1325.87 1209.35" xmlns="http://www.w3.org/2000/svg" xmlns:xlink="http://www.w3.org/1999/xlink">
<g id="graph0" class="graph" transform="scale(1 1) rotate(0) translate(4 1205.3513)">
<title>%3</title>
<polygon fill="#ffffff" stroke="transparent" points="-4,4 -4,-1205.3513 1321.8672,-1205.3513 1321.8672,4 -4,4"/>
<!-- api_gateway -->
<g id="node1" class="node">
<title>api_gateway</title>
<ellipse fill="none" stroke="#000000" cx="431" cy="-1183.3513" rx="57.9891" ry="18"/>
<text text-anchor="middle" x="431" y="-1179.1513" font-family="Times,serif" font-size="14.00" fill="#000000">API Gateway</text>
</g>
<!-- ec2 -->
<g id="node2" class="node">
<title>ec2</title>
<ellipse fill="none" stroke="#000000" cx="485" cy="-1081.3513" rx="27" ry="18"/>
<text text-anchor="middle" x="485" y="-1077.1513" font-family="Times,serif" font-size="14.00" fill="#000000">EC2</text>
</g>
<!-- api_gateway&#45;&gt;ec2 -->
<g id="edge1" class="edge">
<title>api_gateway&#45;&gt;ec2</title>
<path fill="none" stroke="#000000" d="M440.4061,-1165.5842C448.8977,-1149.5445 461.5016,-1125.7371 471.1457,-1107.5205"/>
<polygon fill="#000000" stroke="#000000" points="474.296,-1109.0504 475.8816,-1098.5748 468.1094,-1105.7751 474.296,-1109.0504"/>
<text text-anchor="middle" x="496.7295" y="-1139.3513" font-family="Times,serif" font-size="10.00" fill="#000000">triggers</text>
<text text-anchor="middle" x="496.7295" y="-1129.3513" font-family="Times,serif" font-size="10.00" fill="#000000">(via internal</text>
<text text-anchor="middle" x="496.7295" y="-1119.3513" font-family="Times,serif" font-size="10.00" fill="#000000">HTTP endpoint)</text>
</g>
<!-- elb -->
<g id="node3" class="node">
<title>elb</title>
<ellipse fill="none" stroke="#000000" cx="813" cy="-449.2835" rx="27" ry="18"/>
<text text-anchor="middle" x="813" y="-445.0835" font-family="Times,serif" font-size="14.00" fill="#000000">ELB</text>
</g>
<!-- api_gateway&#45;&gt;elb -->
<g id="edge2" class="edge">
<title>api_gateway&#45;&gt;elb</title>
<path fill="none" stroke="#000000" d="M488.3097,-1180.342C646.9115,-1171.2548 1080,-1140.9815 1080,-1081.3513 1080,-1081.3513 1080,-1081.3513 1080,-686.651 1080,-563.1408 918.4447,-488.154 846.6709,-460.9343"/>
<polygon fill="#000000" stroke="#000000" points="847.7584,-457.6047 837.1654,-457.4104 845.3252,-464.1682 847.7584,-457.6047"/>
<text text-anchor="middle" x="1095.2734" y="-817.9837" font-family="Times,serif" font-size="10.00" fill="#000000">triggers</text>
</g>
<!-- lambda -->
<g id="node4" class="node">
<title>lambda</title>
<ellipse fill="none" stroke="#000000" cx="219" cy="-335.9655" rx="39.1627" ry="18"/>
<text text-anchor="middle" x="219" y="-331.7655" font-family="Times,serif" font-size="14.00" fill="#000000">Lambda</text>
</g>
<!-- api_gateway&#45;&gt;lambda -->
<g id="edge3" class="edge">
<title>api_gateway&#45;&gt;lambda</title>
<path fill="none" stroke="#000000" d="M378.1764,-1175.7079C295.0332,-1162.1738 143,-1130.6815 143,-1081.3513 143,-1081.3513 143,-1081.3513 143,-743.5894 143,-668.1501 193.9418,-443.0118 212.4122,-363.8607"/>
<polygon fill="#000000" stroke="#000000" points="215.8234,-364.6439 214.6962,-354.1092 209.0079,-363.0475 215.8234,-364.6439"/>
<text text-anchor="middle" x="158.2734" y="-740.5894" font-family="Times,serif" font-size="10.00" fill="#000000">triggers</text>
</g>
<!-- region -->
<g id="node5" class="node">
<title>region</title>
<ellipse fill="none" stroke="#000000" cx="271" cy="-18" rx="35.806" ry="18"/>
<text text-anchor="middle" x="271" y="-13.8" font-family="Times,serif" font-size="14.00" fill="#000000">Region</text>
</g>
<!-- api_gateway&#45;&gt;region -->
<g id="edge4" class="edge">
<title>api_gateway&#45;&gt;region</title>
<path fill="none" stroke="#000000" d="M372.8734,-1181.664C255.2289,-1176.6648 0,-1157.0911 0,-1081.3513 0,-1081.3513 0,-1081.3513 0,-100 0,-53.4637 148.2496,-30.9085 225.4503,-22.3178"/>
<polygon fill="#000000" stroke="#000000" points="226.2819,-25.7486 235.8493,-21.1973 225.5319,-18.7889 226.2819,-25.7486"/>
<text text-anchor="middle" x="20.6934" y="-601.651" font-family="Times,serif" font-size="10.00" fill="#000000">belongs to</text>
</g>
<!-- s3 -->
<g id="node6" class="node">
<title>s3</title>
<ellipse fill="none" stroke="#000000" cx="405" cy="-449.2835" rx="39.209" ry="25.4118"/>
<text text-anchor="middle" x="405" y="-452.0835" font-family="Times,serif" font-size="14.00" fill="#000000">S3</text>
<text text-anchor="middle" x="405" y="-438.0835" font-family="Times,serif" font-size="14.00" fill="#000000">Bucket</text>
</g>
<!-- api_gateway&#45;&gt;s3 -->
<g id="edge5" class="edge">
<title>api_gateway&#45;&gt;s3</title>
<path fill="none" stroke="#000000" d="M385.5189,-1171.9813C342.9952,-1158.3007 286,-1130.7502 286,-1081.3513 286,-1081.3513 286,-1081.3513 286,-556.1951 286,-514.054 327.8057,-484.3091 361.8595,-467.0701"/>
<polygon fill="#000000" stroke="#000000" points="363.7421,-470.0473 371.2177,-462.5396 360.6919,-463.7469 363.7421,-470.0473"/>
<text text-anchor="middle" x="302.9336" y="-817.9837" font-family="Times,serif" font-size="10.00" fill="#000000">accesses</text>
</g>
<!-- service -->
<g id="node7" class="node">
<title>service</title>
<ellipse fill="none" stroke="#000000" cx="1085" cy="-209.2548" rx="83.7461" ry="45.011"/>
<text text-anchor="middle" x="1085" y="-226.0548" font-family="Times,serif" font-size="14.00" fill="#000000">&quot;Service&quot;</text>
<text text-anchor="middle" x="1085" y="-212.0548" font-family="Times,serif" font-size="14.00" fill="#000000">(not linking to</text>
<text text-anchor="middle" x="1085" y="-198.0548" font-family="Times,serif" font-size="14.00" fill="#000000">the actual services</text>
<text text-anchor="middle" x="1085" y="-184.0548" font-family="Times,serif" font-size="14.00" fill="#000000">for clarity sake)</text>
</g>
<!-- api_gateway&#45;&gt;service -->
<g id="edge6" class="edge">
<title>api_gateway&#45;&gt;service</title>
<path fill="none" stroke="#000000" d="M488.9595,-1182.5214C680.9471,-1179.0142 1284,-1161.6101 1284,-1081.3513 1284,-1081.3513 1284,-1081.3513 1284,-335.9655 1284,-279.3611 1226.0034,-246.9441 1172.6293,-229.0961"/>
<polygon fill="#000000" stroke="#000000" points="1173.67,-225.7543 1163.0789,-226.0367 1171.5345,-232.4206 1173.67,-225.7543"/>
<text text-anchor="middle" x="1300.9336" y="-683.651" font-family="Times,serif" font-size="10.00" fill="#000000">accesses</text>
</g>
<!-- ec2&#45;&gt;ec2 -->
<g id="edge14" class="edge">
<title>ec2&#45;&gt;ec2</title>
<path fill="none" stroke="#000000" d="M509.9889,-1088.7615C520.7697,-1089.3682 530,-1086.8981 530,-1081.3513 530,-1077.7111 526.0248,-1075.396 520.245,-1074.406"/>
<polygon fill="#000000" stroke="#000000" points="520.1372,-1070.8976 509.9889,-1073.941 519.8201,-1077.8904 520.1372,-1070.8976"/>
<text text-anchor="middle" x="554.2969" y="-1083.3513" font-family="Times,serif" font-size="10.00" fill="#000000">triggers (via</text>
<text text-anchor="middle" x="554.2969" y="-1073.3513" font-family="Times,serif" font-size="10.00" fill="#000000">internal IP)</text>
</g>
<!-- ec2&#45;&gt;lambda -->
<g id="edge16" class="edge">
<title>ec2&#45;&gt;lambda</title>
<path fill="none" stroke="#000000" d="M458.3143,-1077.4208C394.8157,-1067.3201 240,-1037.9692 240,-991.8954 240,-991.8954 240,-991.8954 240,-449.2835 240,-419.6134 232.9538,-386.2942 227.0244,-363.5087"/>
<polygon fill="#000000" stroke="#000000" points="230.3968,-362.5718 224.408,-353.8319 223.6395,-364.3989 230.3968,-362.5718"/>
<text text-anchor="middle" x="255.2734" y="-683.651" font-family="Times,serif" font-size="10.00" fill="#000000">triggers</text>
</g>
<!-- ec2&#45;&gt;service -->
<g id="edge17" class="edge">
<title>ec2&#45;&gt;service</title>
<path fill="none" stroke="#000000" d="M512.1643,-1079.6992C620.7793,-1072.7379 1018,-1043.7359 1018,-991.8954 1018,-991.8954 1018,-991.8954 1018,-335.9655 1018,-308.6151 1030.3501,-281.3932 1044.4456,-259.2309"/>
<polygon fill="#000000" stroke="#000000" points="1047.5057,-260.9499 1050.1263,-250.6842 1041.6759,-257.075 1047.5057,-260.9499"/>
<text text-anchor="middle" x="1034.9336" y="-642.651" font-family="Times,serif" font-size="10.00" fill="#000000">accesses</text>
</g>
<!-- ec2_security_group -->
<g id="node11" class="node">
<title>ec2_security_group</title>
<ellipse fill="none" stroke="#000000" cx="728" cy="-991.8954" rx="72.1477" ry="25.4118"/>
<text text-anchor="middle" x="728" y="-994.6954" font-family="Times,serif" font-size="14.00" fill="#000000">EC2</text>
<text text-anchor="middle" x="728" y="-980.6954" font-family="Times,serif" font-size="14.00" fill="#000000">Security Group</text>
</g>
<!-- ec2&#45;&gt;ec2_security_group -->
<g id="edge15" class="edge">
<title>ec2&#45;&gt;ec2_security_group</title>
<path fill="none" stroke="#000000" d="M507.9159,-1071.4571C524.5915,-1064.2462 547.7097,-1054.2266 568,-1045.3513 578.0892,-1040.938 580.3673,-1039.2404 590.6699,-1035.3513 613.8025,-1026.6189 639.5521,-1018.1495 662.4465,-1011.0426"/>
<polygon fill="#000000" stroke="#000000" points="663.5384,-1014.3686 672.0676,-1008.0833 661.4805,-1007.6779 663.5384,-1014.3686"/>
<text text-anchor="middle" x="596.665" y="-1037.3513" font-family="Times,serif" font-size="10.00" fill="#000000">has</text>
</g>
<!-- sns -->
<g id="node12" class="node">
<title>sns</title>
<ellipse fill="none" stroke="#000000" cx="288" cy="-209.2548" rx="27" ry="18"/>
<text text-anchor="middle" x="288" y="-205.0548" font-family="Times,serif" font-size="14.00" fill="#000000">SNS</text>
</g>
<!-- ec2&#45;&gt;sns -->
<g id="edge18" class="edge">
<title>ec2&#45;&gt;sns</title>
<path fill="none" stroke="#000000" d="M458.8803,-1076.1272C429.1474,-1068.6695 381.7625,-1051.8622 359,-1017.3513 308.3965,-940.6295 332,-696.5582 332,-604.651 332,-604.651 332,-604.651 332,-449.2835 332,-370.1112 328.263,-349.5467 310,-272.5097 307.1252,-260.3831 302.8009,-247.3221 298.7449,-236.2351"/>
<polygon fill="#000000" stroke="#000000" points="301.9491,-234.8126 295.1448,-226.6915 295.3997,-237.2833 301.9491,-234.8126"/>
<text text-anchor="middle" x="347.9336" y="-642.651" font-family="Times,serif" font-size="10.00" fill="#000000">accesses</text>
</g>
<!-- sqs -->
<g id="node13" class="node">
<title>sqs</title>
<ellipse fill="none" stroke="#000000" cx="213" cy="-100" rx="27" ry="18"/>
<text text-anchor="middle" x="213" y="-95.8" font-family="Times,serif" font-size="14.00" fill="#000000">SQS</text>
</g>
<!-- ec2&#45;&gt;sqs -->
<g id="edge19" class="edge">
<title>ec2&#45;&gt;sqs</title>
<path fill="none" stroke="#000000" d="M458.1209,-1078.6638C387.4794,-1070.8615 202,-1045.2914 202,-991.8954 202,-991.8954 202,-991.8954 202,-820.9837 202,-721.3913 209.3681,-689.782 167,-599.651 135.5303,-532.7044 83.1286,-543.9454 57,-474.7393 49.0077,-453.5704 53.0285,-446.1038 57,-423.8276 68.9635,-356.7244 121.7596,-190.2696 163,-136 168.4889,-128.777 175.8288,-122.3886 183.1908,-117.0746"/>
<polygon fill="#000000" stroke="#000000" points="185.3786,-119.8216 191.7337,-111.3443 181.4792,-114.0082 185.3786,-119.8216"/>
<text text-anchor="middle" x="187.9336" y="-601.651" font-family="Times,serif" font-size="10.00" fill="#000000">accesses</text>
</g>
<!-- vpc_subnet -->
<g id="node14" class="node">
<title>vpc_subnet</title>
<ellipse fill="none" stroke="#000000" cx="857" cy="-991.8954" rx="38.6266" ry="25.4118"/>
<text text-anchor="middle" x="857" y="-994.6954" font-family="Times,serif" font-size="14.00" fill="#000000">VPC</text>
<text text-anchor="middle" x="857" y="-980.6954" font-family="Times,serif" font-size="14.00" fill="#000000">Subnet</text>
</g>
<!-- ec2&#45;&gt;vpc_subnet -->
<g id="edge20" class="edge">
<title>ec2&#45;&gt;vpc_subnet</title>
<path fill="none" stroke="#000000" d="M510.3699,-1074.6494C534.6674,-1068.0033 572.2263,-1057.1323 604,-1045.3513 614.3037,-1041.5308 615.986,-1038.1484 626.6133,-1035.3513 705.385,-1014.6181 731.0168,-1040.877 809,-1017.3513 812.3992,-1016.3258 815.8365,-1015.0516 819.2273,-1013.6239"/>
<polygon fill="#000000" stroke="#000000" points="820.9958,-1016.6615 828.5895,-1009.2732 818.0458,-1010.3135 820.9958,-1016.6615"/>
<text text-anchor="middle" x="646.6934" y="-1037.3513" font-family="Times,serif" font-size="10.00" fill="#000000">belongs to</text>
</g>
<!-- elb&#45;&gt;ec2 -->
<g id="edge22" class="edge">
<title>elb&#45;&gt;ec2</title>
<path fill="none" stroke="#000000" d="M827.8882,-464.4841C845.3665,-484.0042 872,-519.7314 872,-556.1951 872,-743.5894 872,-743.5894 872,-743.5894 872,-843.714 897.1468,-866.6235 905,-966.4396 906.7748,-988.9973 919.7457,-1000.1884 905,-1017.3513 880.0726,-1046.3649 619.765,-1070.3814 521.9106,-1078.4485"/>
<polygon fill="#000000" stroke="#000000" points="521.5627,-1074.9651 511.8802,-1079.2662 522.1316,-1081.942 521.5627,-1074.9651"/>
<text text-anchor="middle" x="897.2969" y="-745.5894" font-family="Times,serif" font-size="10.00" fill="#000000">triggers (via</text>
<text text-anchor="middle" x="897.2969" y="-735.5894" font-family="Times,serif" font-size="10.00" fill="#000000">internal IP)</text>
</g>
<!-- elb&#45;&gt;ec2_security_group -->
<g id="edge23" class="edge">
<title>elb&#45;&gt;ec2_security_group</title>
<path fill="none" stroke="#000000" d="M816.8301,-467.4984C830.1952,-535.7519 869.276,-780.9883 780,-948.4396 777.3709,-953.3709 773.9271,-957.9684 770.0616,-962.1861"/>
<polygon fill="#000000" stroke="#000000" points="767.4322,-959.8621 762.7331,-969.3578 772.3282,-964.8651 767.4322,-959.8621"/>
<text text-anchor="middle" x="842.665" y="-683.651" font-family="Times,serif" font-size="10.00" fill="#000000">has</text>
</g>
<!-- vpc -->
<g id="node15" class="node">
<title>vpc</title>
<ellipse fill="none" stroke="#000000" cx="739" cy="-882.4396" rx="27.1216" ry="18"/>
<text text-anchor="middle" x="739" y="-878.2396" font-family="Times,serif" font-size="14.00" fill="#000000">VPC</text>
</g>
<!-- elb&#45;&gt;vpc -->
<g id="edge24" class="edge">
<title>elb&#45;&gt;vpc</title>
<path fill="none" stroke="#000000" d="M800.6388,-465.3091C786.4167,-485.3893 765,-521.4036 765,-556.1951 765,-743.5894 765,-743.5894 765,-743.5894 765,-782.7335 754.8933,-827.0407 747.2824,-854.8569"/>
<polygon fill="#000000" stroke="#000000" points="743.8621,-854.0903 744.5139,-864.6651 750.5989,-855.9919 743.8621,-854.0903"/>
<text text-anchor="middle" x="785.6934" y="-642.651" font-family="Times,serif" font-size="10.00" fill="#000000">belongs to</text>
</g>
<!-- lambda&#45;&gt;lambda -->
<g id="edge36" class="edge">
<title>lambda&#45;&gt;lambda</title>
<path fill="none" stroke="#000000" d="M252.1345,-345.6673C265.1828,-346.1565 276.0813,-342.9225 276.0813,-335.9655 276.0813,-330.9108 270.3281,-327.8215 262.1771,-326.6976"/>
<polygon fill="#000000" stroke="#000000" points="262.2763,-323.1987 252.1345,-326.2637 261.9741,-330.1921 262.2763,-323.1987"/>
<text text-anchor="middle" x="291.3547" y="-332.9655" font-family="Times,serif" font-size="10.00" fill="#000000">triggers</text>
</g>
<!-- lambda&#45;&gt;region -->
<g id="edge37" class="edge">
<title>lambda&#45;&gt;region</title>
<path fill="none" stroke="#000000" d="M210.2409,-318.385C194.061,-283.9861 161.6521,-205.1019 167.6133,-136 169.707,-111.7302 163.8019,-102.4747 177,-82 190.7284,-60.7025 214.318,-44.6737 234.4304,-33.9837"/>
<polygon fill="#000000" stroke="#000000" points="236.0415,-37.0911 243.3787,-29.448 232.8767,-30.8473 236.0415,-37.0911"/>
<text text-anchor="middle" x="187.6934" y="-138" font-family="Times,serif" font-size="10.00" fill="#000000">belongs to</text>
</g>
<!-- lambda&#45;&gt;service -->
<g id="edge38" class="edge">
<title>lambda&#45;&gt;service</title>
<path fill="none" stroke="#000000" d="M256.4889,-330.4802C384.4004,-311.7646 806.0761,-250.0662 993.6469,-222.6214"/>
<polygon fill="#000000" stroke="#000000" points="994.3712,-226.0527 1003.7591,-221.1418 993.3577,-219.1265 994.3712,-226.0527"/>
<text text-anchor="middle" x="668.9336" y="-279.5097" font-family="Times,serif" font-size="10.00" fill="#000000">accesses</text>
</g>
<!-- lambda&#45;&gt;sns -->
<g id="edge39" class="edge">
<title>lambda&#45;&gt;sns</title>
<path fill="none" stroke="#000000" d="M220.2422,-317.9221C221.7277,-304.7587 224.9868,-286.7974 232.1328,-272.5097 239.9075,-256.9649 252.4728,-242.2443 263.7195,-230.9219"/>
<polygon fill="#000000" stroke="#000000" points="266.4716,-233.1289 271.22,-223.6577 261.6016,-228.1006 266.4716,-233.1289"/>
<text text-anchor="middle" x="248.9336" y="-279.5097" font-family="Times,serif" font-size="10.00" fill="#000000">accesses</text>
</g>
<!-- lambda&#45;&gt;sqs -->
<g id="edge40" class="edge">
<title>lambda&#45;&gt;sqs</title>
<path fill="none" stroke="#000000" d="M218.5392,-317.8415C217.5008,-277.007 214.9719,-177.5511 213.7227,-128.422"/>
<polygon fill="#000000" stroke="#000000" points="217.2156,-128.0935 213.4624,-118.1858 210.2178,-128.2715 217.2156,-128.0935"/>
<text text-anchor="middle" x="232.9336" y="-206.2548" font-family="Times,serif" font-size="10.00" fill="#000000">accesses</text>
</g>
<!-- s3&#45;&gt;lambda -->
<g id="edge45" class="edge">
<title>s3&#45;&gt;lambda</title>
<path fill="none" stroke="#000000" d="M376.3451,-431.8259C342.6693,-411.3093 286.9151,-377.3419 251.6128,-355.8344"/>
<polygon fill="#000000" stroke="#000000" points="253.0301,-352.5995 242.6691,-350.3856 249.3881,-358.5775 253.0301,-352.5995"/>
<text text-anchor="middle" x="343.2734" y="-389.6245" font-family="Times,serif" font-size="10.00" fill="#000000">triggers</text>
</g>
<!-- s3&#45;&gt;region -->
<g id="edge46" class="edge">
<title>s3&#45;&gt;region</title>
<path fill="none" stroke="#000000" d="M407.1323,-423.651C408.8568,-400.697 411,-366.1078 411,-335.9655 411,-335.9655 411,-335.9655 411,-100 411,-54.9815 356.4339,-34.2135 315.4336,-24.9628"/>
<polygon fill="#000000" stroke="#000000" points="316.1122,-21.5291 305.6068,-22.9024 314.6756,-28.3801 316.1122,-21.5291"/>
<text text-anchor="middle" x="431.6934" y="-206.2548" font-family="Times,serif" font-size="10.00" fill="#000000">belongs to</text>
</g>
<!-- availability_zone -->
<g id="node8" class="node">
<title>availability_zone</title>
<ellipse fill="none" stroke="#000000" cx="945" cy="-820.9837" rx="57.7448" ry="25.4118"/>
<text text-anchor="middle" x="945" y="-823.7837" font-family="Times,serif" font-size="14.00" fill="#000000">Availability</text>
<text text-anchor="middle" x="945" y="-809.7837" font-family="Times,serif" font-size="14.00" fill="#000000">Zone</text>
</g>
<!-- availability_zone&#45;&gt;region -->
<g id="edge7" class="edge">
<title>availability_zone&#45;&gt;region</title>
<path fill="none" stroke="#000000" d="M946.2219,-795.238C947.3982,-768.2025 949,-724.4488 949,-686.651 949,-686.651 949,-686.651 949,-100 949,-36.2447 470.3901,-21.7372 317.414,-18.7285"/>
<polygon fill="#000000" stroke="#000000" points="317.0379,-15.2209 306.9735,-18.5313 316.9056,-22.2196 317.0379,-15.2209"/>
<text text-anchor="middle" x="969.6934" y="-446.2835" font-family="Times,serif" font-size="10.00" fill="#000000">belongs to</text>
</g>
<!-- cloudfront -->
<g id="node9" class="node">
<title>cloudfront</title>
<ellipse fill="none" stroke="#000000" cx="472" cy="-556.1951" rx="50.7828" ry="18"/>
<text text-anchor="middle" x="472" y="-551.9951" font-family="Times,serif" font-size="14.00" fill="#000000">CloudFront</text>
</g>
<!-- cloudfront&#45;&gt;api_gateway -->
<g id="edge8" class="edge">
<title>cloudfront&#45;&gt;api_gateway</title>
<path fill="none" stroke="#000000" d="M503.1789,-570.4656C546.8574,-590.5251 621.1772,-624.9339 623,-627.651 656.8195,-678.0626 633.3989,-839.8715 637.4727,-900.4396 640.9712,-952.455 621.8094,-971.7082 647,-1017.3513 653.4426,-1029.0247 665.0372,-1023.4256 671,-1035.3513 672.9876,-1039.3265 673.0015,-1041.383 671,-1045.3513 635.4998,-1115.7353 546.9773,-1152.5767 487.9436,-1169.9652"/>
<polygon fill="#000000" stroke="#000000" points="486.6711,-1166.6883 478.0101,-1172.7905 488.5862,-1173.4212 486.6711,-1166.6883"/>
<text text-anchor="middle" x="669.7637" y="-884.4396" font-family="Times,serif" font-size="10.00" fill="#000000">accesses (if</text>
<text text-anchor="middle" x="669.7637" y="-874.4396" font-family="Times,serif" font-size="10.00" fill="#000000">edge&#45;optimized)</text>
</g>
<!-- cloudfront&#45;&gt;ec2 -->
<g id="edge9" class="edge">
<title>cloudfront&#45;&gt;ec2</title>
<path fill="none" stroke="#000000" d="M466.3228,-574.3981C457.6974,-602.9113 441.5034,-659.9879 434,-709.651 428.2888,-747.4519 430.1784,-757.3135 429.0859,-795.5279 428.4393,-818.1461 426.4482,-823.9664 429.0859,-846.4396 438.0666,-922.9546 462.9662,-1010.6675 476.3025,-1054.0738"/>
<polygon fill="#000000" stroke="#000000" points="472.9624,-1055.1198 479.2729,-1063.6304 479.647,-1053.0421 472.9624,-1055.1198"/>
<text text-anchor="middle" x="454.957" y="-822.9837" font-family="Times,serif" font-size="10.00" fill="#000000">accesses (via</text>
<text text-anchor="middle" x="454.957" y="-812.9837" font-family="Times,serif" font-size="10.00" fill="#000000">public IP)</text>
</g>
<!-- cloudfront&#45;&gt;elb -->
<g id="edge10" class="edge">
<title>cloudfront&#45;&gt;elb</title>
<path fill="none" stroke="#000000" d="M492.7311,-539.7543C512.977,-524.6893 545.2998,-503.1906 577.0859,-492.7393 659.7303,-465.5658 689.5255,-502.424 772,-474.7393 776.937,-473.0821 781.8936,-470.7289 786.5692,-468.1155"/>
<polygon fill="#000000" stroke="#000000" points="788.4255,-471.083 795.1353,-462.8836 784.7768,-465.1091 788.4255,-471.083"/>
<text text-anchor="middle" x="602.957" y="-504.7393" font-family="Times,serif" font-size="10.00" fill="#000000">accesses (via</text>
<text text-anchor="middle" x="602.957" y="-494.7393" font-family="Times,serif" font-size="10.00" fill="#000000">public IP)</text>
</g>
<!-- cloudfront&#45;&gt;s3 -->
<g id="edge11" class="edge">
<title>cloudfront&#45;&gt;s3</title>
<path fill="none" stroke="#000000" d="M460.9363,-538.5408C451.2463,-523.0785 436.9211,-500.2199 425.1937,-481.5065"/>
<polygon fill="#000000" stroke="#000000" points="428.1221,-479.5883 419.8461,-472.9733 422.1906,-483.3055 428.1221,-479.5883"/>
<text text-anchor="middle" x="466.4902" y="-504.7393" font-family="Times,serif" font-size="10.00" fill="#000000">accesses</text>
<text text-anchor="middle" x="466.4902" y="-494.7393" font-family="Times,serif" font-size="10.00" fill="#000000">(internally)</text>
</g>
<!-- cloudwatch -->
<g id="node10" class="node">
<title>cloudwatch</title>
<ellipse fill="none" stroke="#000000" cx="120" cy="-449.2835" rx="54.1994" ry="18"/>
<text text-anchor="middle" x="120" y="-445.0835" font-family="Times,serif" font-size="14.00" fill="#000000">CloudWatch</text>
</g>
<!-- cloudwatch&#45;&gt;lambda -->
<g id="edge12" class="edge">
<title>cloudwatch&#45;&gt;lambda</title>
<path fill="none" stroke="#000000" d="M117.9099,-431.224C117.1178,-416.012 118.37,-394.3968 129.1846,-379.4214 140.0358,-364.3951 157.5067,-354.3383 174.1679,-347.7217"/>
<polygon fill="#000000" stroke="#000000" points="175.6243,-350.9165 183.828,-344.212 173.2339,-344.3372 175.6243,-350.9165"/>
<text text-anchor="middle" x="159.4077" y="-397.8276" font-family="Times,serif" font-size="10.00" fill="#000000">triggers (when</text>
<text text-anchor="middle" x="159.4077" y="-387.8276" font-family="Times,serif" font-size="10.00" fill="#000000">scheduled ⏰)</text>
</g>
<!-- cloudwatch&#45;&gt;region -->
<g id="edge13" class="edge">
<title>cloudwatch&#45;&gt;region</title>
<path fill="none" stroke="#000000" d="M113.5093,-431.3469C96.6994,-381.8377 56.0837,-240.0578 101,-136 124.5782,-81.3762 188.7886,-48.045 231.1967,-31.3164"/>
<polygon fill="#000000" stroke="#000000" points="232.5793,-34.5352 240.6805,-27.7072 230.0895,-27.993 232.5793,-34.5352"/>
<text text-anchor="middle" x="111.6934" y="-206.2548" font-family="Times,serif" font-size="10.00" fill="#000000">belongs to</text>
</g>
<!-- ec2_security_group&#45;&gt;vpc -->
<g id="edge21" class="edge">
<title>ec2_security_group&#45;&gt;vpc</title>
<path fill="none" stroke="#000000" d="M730.579,-966.2329C732.2618,-949.4883 734.4585,-927.6298 736.1864,-910.4368"/>
<polygon fill="#000000" stroke="#000000" points="739.6752,-910.7219 737.1928,-900.422 732.7103,-910.0219 739.6752,-910.7219"/>
<text text-anchor="middle" x="755.6934" y="-930.4396" font-family="Times,serif" font-size="10.00" fill="#000000">belongs to</text>
</g>
<!-- sns&#45;&gt;lambda -->
<g id="edge47" class="edge">
<title>sns&#45;&gt;lambda</title>
<path fill="none" stroke="#000000" d="M286.1946,-227.2817C283.7706,-244.9565 278.2509,-272.1391 266,-292.5097 261.3071,-300.3129 254.8034,-307.5728 248.1289,-313.8378"/>
<polygon fill="#000000" stroke="#000000" points="245.5131,-311.4771 240.3133,-320.7082 250.1348,-316.7345 245.5131,-311.4771"/>
<text text-anchor="middle" x="290.2734" y="-279.5097" font-family="Times,serif" font-size="10.00" fill="#000000">triggers</text>
</g>
<!-- sns&#45;&gt;region -->
<g id="edge48" class="edge">
<title>sns&#45;&gt;region</title>
<path fill="none" stroke="#000000" d="M287.5795,-191.017C286.7396,-161.9307 284.3531,-103.2903 278,-54 277.6724,-51.4583 277.2748,-48.8259 276.8372,-46.1942"/>
<polygon fill="#000000" stroke="#000000" points="280.2588,-45.4473 275.0157,-36.2407 273.3731,-46.7074 280.2588,-45.4473"/>
<text text-anchor="middle" x="304.6934" y="-97" font-family="Times,serif" font-size="10.00" fill="#000000">belongs to</text>
</g>
<!-- sns&#45;&gt;sqs -->
<g id="edge49" class="edge">
<title>sns&#45;&gt;sqs</title>
<path fill="none" stroke="#000000" d="M275.2159,-193.2146C265.3672,-180.6283 251.6031,-162.5306 240.5,-146 236.1487,-139.5216 231.6966,-132.3504 227.677,-125.6359"/>
<polygon fill="#000000" stroke="#000000" points="230.6049,-123.7104 222.5137,-116.8706 224.5736,-127.2633 230.6049,-123.7104"/>
<text text-anchor="middle" x="258.75" y="-138" font-family="Times,serif" font-size="10.00" fill="#000000">pushes to</text>
</g>
<!-- sqs&#45;&gt;region -->
<g id="edge50" class="edge">
<title>sqs&#45;&gt;region</title>
<path fill="none" stroke="#000000" d="M220.6248,-82.2783C224.7898,-73.4335 230.3685,-62.7775 236.6133,-54 239.6665,-49.7084 243.2146,-45.4201 246.8489,-41.3768"/>
<polygon fill="#000000" stroke="#000000" points="249.5225,-43.6432 253.8368,-33.9665 244.4297,-38.8407 249.5225,-43.6432"/>
<text text-anchor="middle" x="256.6934" y="-56" font-family="Times,serif" font-size="10.00" fill="#000000">belongs to</text>
</g>
<!-- vpc_subnet&#45;&gt;availability_zone -->
<g id="edge53" class="edge">
<title>vpc_subnet&#45;&gt;availability_zone</title>
<path fill="none" stroke="#000000" d="M869.4216,-967.7704C884.622,-938.2486 910.4495,-888.0869 927.6168,-854.7449"/>
<polygon fill="#000000" stroke="#000000" points="930.7472,-856.3108 932.2132,-845.8179 924.5237,-853.1064 930.7472,-856.3108"/>
<text text-anchor="middle" x="913.6934" y="-930.4396" font-family="Times,serif" font-size="10.00" fill="#000000">belongs to</text>
</g>
<!-- vpc_subnet&#45;&gt;vpc -->
<g id="edge54" class="edge">
<title>vpc_subnet&#45;&gt;vpc</title>
<path fill="none" stroke="#000000" d="M835.3213,-970.7554C820.0164,-955.9443 798.9436,-935.7785 780,-918.4396 774.7419,-913.6269 769.0324,-908.533 763.5913,-903.739"/>
<polygon fill="#000000" stroke="#000000" points="765.7236,-900.954 755.8951,-896.9977 761.1112,-906.2195 765.7236,-900.954"/>
<text text-anchor="middle" x="832.6934" y="-930.4396" font-family="Times,serif" font-size="10.00" fill="#000000">belongs to</text>
</g>
<!-- vpc&#45;&gt;region -->
<g id="edge52" class="edge">
<title>vpc&#45;&gt;region</title>
<path fill="none" stroke="#000000" d="M737.8711,-864.4109C734.8838,-815.0952 727,-673.8019 727,-556.1951 727,-556.1951 727,-556.1951 727,-100 727,-58.6105 432.233,-30.7691 316.6854,-21.4454"/>
<polygon fill="#000000" stroke="#000000" points="316.6484,-17.9314 306.4021,-20.6265 316.0927,-24.9094 316.6484,-17.9314"/>
<text text-anchor="middle" x="747.6934" y="-446.2835" font-family="Times,serif" font-size="10.00" fill="#000000">belongs to</text>
</g>
<!-- internet -->
<g id="node20" class="node">
<title>internet</title>
<ellipse fill="#aaddff" stroke="#aaddff" cx="485" cy="-743.5894" rx="42.1901" ry="33.877"/>
<text text-anchor="middle" x="485" y="-752.3875" font-family="Times,serif" font-size="14.00" fill="#000000">️️Internet</text>
<text text-anchor="middle" x="485" y="-735.3601" font-family="Times,serif" font-size="14.00" fill="#000000">☁️</text>
</g>
<!-- vpc&#45;&gt;internet -->
<g id="edge51" class="edge">
<title>vpc&#45;&gt;internet</title>
<path fill="none" stroke="#000000" d="M716.1522,-872.4107C700.6829,-865.4635 679.8776,-855.8124 661.9531,-846.4396 615.0726,-821.9255 562.8705,-791.1381 527.393,-769.6656"/>
<polygon fill="#000000" stroke="#000000" points="529.1114,-766.6143 518.747,-764.4166 525.4788,-772.598 529.1114,-766.6143"/>
<text text-anchor="middle" x="682.5234" y="-822.9837" font-family="Times,serif" font-size="10.00" fill="#000000">exposed to</text>
<text text-anchor="middle" x="682.5234" y="-812.9837" font-family="Times,serif" font-size="10.00" fill="#000000">(optional)</text>
</g>
<!-- iam_group -->
<g id="node16" class="node">
<title>iam_group</title>
<ellipse fill="none" stroke="#000000" cx="1219" cy="-449.2835" rx="36.7176" ry="25.4118"/>
<text text-anchor="middle" x="1219" y="-452.0835" font-family="Times,serif" font-size="14.00" fill="#000000">IAM</text>
<text text-anchor="middle" x="1219" y="-438.0835" font-family="Times,serif" font-size="14.00" fill="#000000">Group</text>
</g>
<!-- iam_policy -->
<g id="node17" class="node">
<title>iam_policy</title>
<ellipse fill="none" stroke="#000000" cx="1109" cy="-335.9655" rx="36.7273" ry="25.4118"/>
<text text-anchor="middle" x="1109" y="-338.7655" font-family="Times,serif" font-size="14.00" fill="#000000">IAM</text>
<text text-anchor="middle" x="1109" y="-324.7655" font-family="Times,serif" font-size="14.00" fill="#000000">Policy</text>
</g>
<!-- iam_group&#45;&gt;iam_policy -->
<g id="edge25" class="edge">
<title>iam_group&#45;&gt;iam_policy</title>
<path fill="none" stroke="#000000" d="M1198.3098,-427.9692C1180.8714,-410.0048 1155.7712,-384.1475 1136.6183,-364.4169"/>
<polygon fill="#000000" stroke="#000000" points="1139.074,-361.9217 1129.5974,-357.1842 1134.0513,-366.7974 1139.074,-361.9217"/>
<text text-anchor="middle" x="1179.665" y="-389.6245" font-family="Times,serif" font-size="10.00" fill="#000000">has</text>
</g>
<!-- iam_policy&#45;&gt;service -->
<g id="edge26" class="edge">
<title>iam_policy&#45;&gt;service</title>
<path fill="none" stroke="#000000" d="M1104.2009,-310.6283C1101.6747,-297.291 1098.4729,-280.3867 1095.4115,-264.2236"/>
<polygon fill="#000000" stroke="#000000" points="1098.8307,-263.4681 1093.5308,-254.2941 1091.953,-264.7708 1098.8307,-263.4681"/>
<text text-anchor="middle" x="1117.9077" y="-284.5097" font-family="Times,serif" font-size="10.00" fill="#000000">defines</text>
<text text-anchor="middle" x="1117.9077" y="-274.5097" font-family="Times,serif" font-size="10.00" fill="#000000">access to</text>
</g>
<!-- iam_role -->
<g id="node18" class="node">
<title>iam_role</title>
<ellipse fill="none" stroke="#000000" cx="1134" cy="-449.2835" rx="30.6234" ry="25.4118"/>
<text text-anchor="middle" x="1134" y="-452.0835" font-family="Times,serif" font-size="14.00" fill="#000000">IAM</text>
<text text-anchor="middle" x="1134" y="-438.0835" font-family="Times,serif" font-size="14.00" fill="#000000">Role</text>
</g>
<!-- iam_role&#45;&gt;iam_policy -->
<g id="edge27" class="edge">
<title>iam_role&#45;&gt;iam_policy</title>
<path fill="none" stroke="#000000" d="M1128.4517,-424.1345C1125.0447,-408.6914 1120.6273,-388.6689 1116.8635,-371.6084"/>
<polygon fill="#000000" stroke="#000000" points="1120.1915,-370.4471 1114.6192,-361.436 1113.3559,-371.9552 1120.1915,-370.4471"/>
<text text-anchor="middle" x="1129.665" y="-389.6245" font-family="Times,serif" font-size="10.00" fill="#000000">has</text>
</g>
<!-- iam_user -->
<g id="node19" class="node">
<title>iam_user</title>
<ellipse fill="none" stroke="#000000" cx="1156" cy="-556.1951" rx="30.6234" ry="25.4118"/>
<text text-anchor="middle" x="1156" y="-558.9951" font-family="Times,serif" font-size="14.00" fill="#000000">IAM</text>
<text text-anchor="middle" x="1156" y="-544.9951" font-family="Times,serif" font-size="14.00" fill="#000000">User</text>
</g>
<!-- iam_user&#45;&gt;iam_group -->
<g id="edge28" class="edge">
<title>iam_user&#45;&gt;iam_group</title>
<path fill="none" stroke="#000000" d="M1169.5151,-533.2599C1178.3618,-518.2469 1190.0548,-498.4038 1199.853,-481.7762"/>
<polygon fill="#000000" stroke="#000000" points="1203.0099,-483.3128 1205.0714,-472.9205 1196.9791,-479.759 1203.0099,-483.3128"/>
<text text-anchor="middle" x="1213.6934" y="-499.7393" font-family="Times,serif" font-size="10.00" fill="#000000">belongs to</text>
</g>
<!-- iam_user&#45;&gt;iam_policy -->
<g id="edge29" class="edge">
<title>iam_user&#45;&gt;iam_policy</title>
<path fill="none" stroke="#000000" d="M1133.0047,-539.4066C1114.9355,-524.6738 1091.1333,-501.4643 1080.6699,-474.7393 1067.1389,-440.1788 1079.4119,-398.1304 1091.7647,-369.438"/>
<polygon fill="#000000" stroke="#000000" points="1094.9884,-370.8035 1095.9198,-360.2497 1088.6102,-367.9192 1094.9884,-370.8035"/>
<text text-anchor="middle" x="1086.665" y="-446.2835" font-family="Times,serif" font-size="10.00" fill="#000000">has</text>
</g>
<!-- internet&#45;&gt;api_gateway -->
<g id="edge30" class="edge">
<title>internet&#45;&gt;api_gateway</title>
<path fill="none" stroke="#000000" d="M446.1898,-756.8993C427.8302,-765.1781 407.2869,-777.7043 395,-795.5279 372.7937,-827.7408 381,-843.3142 381,-882.4396 381,-1081.3513 381,-1081.3513 381,-1081.3513 381,-1109.5253 396.5707,-1138.0188 410.3338,-1157.7014"/>
<polygon fill="#000000" stroke="#000000" points="407.5455,-1159.818 416.2688,-1165.831 413.1992,-1155.6906 407.5455,-1159.818"/>
<text text-anchor="middle" x="396.2734" y="-988.8954" font-family="Times,serif" font-size="10.00" fill="#000000">triggers</text>
</g>
<!-- internet&#45;&gt;ec2 -->
<g id="edge32" class="edge">
<title>internet&#45;&gt;ec2</title>
<path fill="none" stroke="#000000" d="M485,-777.5511C485,-844.2282 485,-991.1366 485,-1053.0035"/>
<polygon fill="#000000" stroke="#000000" points="481.5001,-1053.1917 485,-1063.1917 488.5001,-1053.1918 481.5001,-1053.1917"/>
<text text-anchor="middle" x="509.2969" y="-940.4396" font-family="Times,serif" font-size="10.00" fill="#000000">triggers (via</text>
<text text-anchor="middle" x="509.2969" y="-930.4396" font-family="Times,serif" font-size="10.00" fill="#000000">public or</text>
<text text-anchor="middle" x="509.2969" y="-920.4396" font-family="Times,serif" font-size="10.00" fill="#000000">Elastic IP)</text>
</g>
<!-- internet&#45;&gt;elb -->
<g id="edge33" class="edge">
<title>internet&#45;&gt;elb</title>
<path fill="none" stroke="#000000" d="M522.203,-727.1583C551.5899,-713.0318 592.5762,-690.6871 623,-663.651 693.9391,-600.6111 682.8462,-558.7805 751,-492.7393 760.9066,-483.1398 773.1102,-474.1079 784.0627,-466.7915"/>
<polygon fill="#000000" stroke="#000000" points="786.0243,-469.691 792.5104,-461.3135 782.2157,-463.8177 786.0243,-469.691"/>
<text text-anchor="middle" x="691.2734" y="-601.651" font-family="Times,serif" font-size="10.00" fill="#000000">triggers</text>
</g>
<!-- internet&#45;&gt;s3 -->
<g id="edge35" class="edge">
<title>internet&#45;&gt;s3</title>
<path fill="none" stroke="#000000" d="M466.9779,-712.8764C449.4066,-681.1906 423.6775,-629.7501 412,-581.651 404.2353,-549.6685 402.9615,-512.109 403.3496,-485.1854"/>
<polygon fill="#000000" stroke="#000000" points="406.8514,-485.1411 403.5807,-475.0638 399.8532,-484.9813 406.8514,-485.1411"/>
<text text-anchor="middle" x="435.9336" y="-601.651" font-family="Times,serif" font-size="10.00" fill="#000000">accesses</text>
</g>
<!-- internet&#45;&gt;cloudfront -->
<g id="edge31" class="edge">
<title>internet&#45;&gt;cloudfront</title>
<path fill="none" stroke="#000000" d="M482.6458,-709.6537C480.1633,-673.8689 476.2962,-618.1241 473.9696,-584.5864"/>
<polygon fill="#000000" stroke="#000000" points="477.4558,-584.265 473.272,-574.5313 470.4726,-584.7495 477.4558,-584.265"/>
<text text-anchor="middle" x="495.9336" y="-642.651" font-family="Times,serif" font-size="10.00" fill="#000000">accesses</text>
</g>
<!-- route53 -->
<g id="node21" class="node">
<title>route53</title>
<ellipse fill="none" stroke="#000000" cx="572" cy="-645.651" rx="42.0717" ry="18"/>
<text text-anchor="middle" x="572" y="-641.451" font-family="Times,serif" font-size="14.00" fill="#000000">Route 53</text>
</g>
<!-- internet&#45;&gt;route53 -->
<g id="edge34" class="edge">
<title>internet&#45;&gt;route53</title>
<path fill="none" stroke="#000000" d="M495.2876,-710.5385C499.5025,-700.5026 505.1451,-689.9478 512.4531,-681.651 518.4867,-674.8011 526.1464,-668.8584 533.9465,-663.8843"/>
<polygon fill="#000000" stroke="#000000" points="535.911,-666.7888 542.7337,-658.6831 532.3453,-660.7649 535.911,-666.7888"/>
<text text-anchor="middle" x="527.2734" y="-683.651" font-family="Times,serif" font-size="10.00" fill="#000000">triggers</text>
</g>
<!-- route53&#45;&gt;ec2 -->
<g id="edge42" class="edge">
<title>route53&#45;&gt;ec2</title>
<path fill="none" stroke="#000000" d="M567.5806,-663.5759C563.156,-683.1192 557,-715.379 557,-743.5894 557,-991.8954 557,-991.8954 557,-991.8954 557,-1021.3323 533.0472,-1046.5718 512.7727,-1062.6629"/>
<polygon fill="#000000" stroke="#000000" points="510.5443,-1059.9598 504.6743,-1068.7799 514.7634,-1065.5455 510.5443,-1059.9598"/>
<text text-anchor="middle" x="573.5186" y="-879.4396" font-family="Times,serif" font-size="10.00" fill="#000000">refers to</text>
</g>
<!-- route53&#45;&gt;elb -->
<g id="edge43" class="edge">
<title>route53&#45;&gt;elb</title>
<path fill="none" stroke="#000000" d="M577.9944,-627.7379C590.2232,-594.3707 621.5079,-523.3181 675,-492.7393 713.0663,-470.9786 731.1131,-490.5768 772,-474.7393 776.6388,-472.9424 781.3314,-470.6097 785.8032,-468.0864"/>
<polygon fill="#000000" stroke="#000000" points="787.8564,-470.9343 794.5843,-462.7498 784.2209,-464.9524 787.8564,-470.9343"/>
<text text-anchor="middle" x="645.5186" y="-553.1951" font-family="Times,serif" font-size="10.00" fill="#000000">refers to</text>
</g>
<!-- route53&#45;&gt;s3 -->
<g id="edge44" class="edge">
<title>route53&#45;&gt;s3</title>
<path fill="none" stroke="#000000" d="M568.3906,-627.3791C563.1197,-603.6917 551.7318,-561.7498 532,-530.7393 512.6073,-500.2617 477.252,-478.9821 448.7606,-465.8352"/>
<polygon fill="#000000" stroke="#000000" points="449.9552,-462.5364 439.3944,-461.6869 447.1204,-468.9367 449.9552,-462.5364"/>
<text text-anchor="middle" x="571.5186" y="-553.1951" font-family="Times,serif" font-size="10.00" fill="#000000">refers to</text>
</g>
<!-- route53&#45;&gt;cloudfront -->
<g id="edge41" class="edge">
<title>route53&#45;&gt;cloudfront</title>
<path fill="none" stroke="#000000" d="M544.1661,-631.9488C533.4605,-625.9411 521.5239,-618.285 511.9629,-609.651 503.2302,-601.765 495.1375,-591.7242 488.5511,-582.4789"/>
<polygon fill="#000000" stroke="#000000" points="491.2579,-580.2365 482.7261,-573.9549 485.4785,-584.186 491.2579,-580.2365"/>
<text text-anchor="middle" x="527.5186" y="-601.651" font-family="Times,serif" font-size="10.00" fill="#000000">refers to</text>
</g>
</g>
</svg>
