<?xml version="1.0" encoding="UTF-8" standalone="no"?>
<!DOCTYPE svg PUBLIC "-//W3C//DTD SVG 1.1//EN"
 "http://www.w3.org/Graphics/SVG/1.1/DTD/svg11.dtd">
<!-- Generated by graphviz version 2.40.1 (20161225.0304)
 -->
<!-- Title: %3 Pages: 1 -->
<svg width="1674pt" height="1182pt"
 viewBox="0.00 0.00 1674.00 1181.61" xmlns="http://www.w3.org/2000/svg" xmlns:xlink="http://www.w3.org/1999/xlink">
<g id="graph0" class="graph" transform="scale(1 1) rotate(0) translate(4 1177.6075)">
<title>%3</title>
<polygon fill="#ffffff" stroke="transparent" points="-4,4 -4,-1177.6075 1670.0029,-1177.6075 1670.0029,4 -4,4"/>
<!-- api_gateway_api -->
<g id="node1" class="node">
<title>api_gateway_api</title>
<ellipse fill="#f3bb44" stroke="#f3bb44" cx="337" cy="-1141.8388" rx="76.8224" ry="31.5391"/>
<text text-anchor="middle" x="337" y="-1149.1027" font-family="Roboto Mono" font-size="14.00" fill="#000000">API Gateway</text>
<text text-anchor="middle" x="337" y="-1130.6388" font-family="Roboto Mono" font-size="14.00" fill="#000000">API</text>
</g>
<!-- ec2_instance -->
<g id="node2" class="node">
<title>ec2_instance</title>
<ellipse fill="#f3bb44" stroke="#f3bb44" cx="517" cy="-1002.736" rx="58.6785" ry="31.5391"/>
<text text-anchor="middle" x="517" y="-1009.9998" font-family="Roboto Mono" font-size="14.00" fill="#000000">EC2</text>
<text text-anchor="middle" x="517" y="-991.536" font-family="Roboto Mono" font-size="14.00" fill="#000000">Instance</text>
</g>
<!-- api_gateway_api&#45;&gt;ec2_instance -->
<g id="edge1" class="edge">
<title>api_gateway_api&#45;&gt;ec2_instance</title>
<path fill="none" stroke="#555555" d="M373.4257,-1113.6893C402.8475,-1090.9523 444.2794,-1058.934 475.0782,-1035.1328"/>
<polygon fill="#555555" stroke="#555555" points="477.2917,-1037.8457 483.0641,-1028.9614 473.0113,-1032.3069 477.2917,-1037.8457"/>
<text text-anchor="middle" x="491.0068" y="-1084.0701" font-family="Roboto Mono" font-size="10.00" fill="#555555">accesses</text>
<text text-anchor="middle" x="491.0068" y="-1070.8816" font-family="Roboto Mono" font-size="10.00" fill="#555555">(via internal</text>
<text text-anchor="middle" x="491.0068" y="-1057.6931" font-family="Roboto Mono" font-size="10.00" fill="#555555">HTTP endpoint)</text>
</g>
<!-- elb -->
<g id="node3" class="node">
<title>elb</title>
<ellipse fill="#f3bb44" stroke="#f3bb44" cx="252" cy="-334.1289" rx="29.272" ry="18.928"/>
<text text-anchor="middle" x="252" y="-332.1608" font-family="Roboto Mono" font-size="14.00" fill="#000000">ELB</text>
</g>
<!-- api_gateway_api&#45;&gt;elb -->
<g id="edge2" class="edge">
<title>api_gateway_api&#45;&gt;elb</title>
<path fill="none" stroke="#555555" d="M268.3815,-1127.6708C205.4603,-1110.1932 122,-1073.6457 122,-1002.736 122,-1002.736 122,-1002.736 122,-635.7264 122,-525.1916 196.5489,-409.1135 232.7399,-359.2741"/>
<polygon fill="#555555" stroke="#555555" points="235.7019,-361.1545 238.8195,-351.0287 230.0679,-357.0003 235.7019,-361.1545"/>
<text text-anchor="middle" x="146.0039" y="-723.3896" font-family="Roboto Mono" font-size="10.00" fill="#555555">accesses</text>
</g>
<!-- lambda_function -->
<g id="node4" class="node">
<title>lambda_function</title>
<ellipse fill="#f3bb44" stroke="#f3bb44" cx="1000" cy="-204.9968" rx="58.6785" ry="31.5391"/>
<text text-anchor="middle" x="1000" y="-212.2606" font-family="Roboto Mono" font-size="14.00" fill="#000000">Lambda</text>
<text text-anchor="middle" x="1000" y="-193.7968" font-family="Roboto Mono" font-size="14.00" fill="#000000">Function</text>
</g>
<!-- api_gateway_api&#45;&gt;lambda_function -->
<g id="edge3" class="edge">
<title>api_gateway_api&#45;&gt;lambda_function</title>
<path fill="none" stroke="#555555" d="M412.8229,-1137.0142C555.3475,-1125.8541 849,-1092.0261 849,-1002.736 849,-1002.736 849,-1002.736 849,-516.4062 849,-407.8829 924.1649,-297.4801 968.4317,-241.8707"/>
<polygon fill="#555555" stroke="#555555" points="971.17,-244.0507 974.726,-234.0704 965.7224,-239.6548 971.17,-244.0507"/>
<text text-anchor="middle" x="873.0039" y="-634.3206" font-family="Roboto Mono" font-size="10.00" fill="#555555">triggers</text>
</g>
<!-- region -->
<g id="node5" class="node">
<title>region</title>
<ellipse fill="#f3bb44" stroke="#f3bb44" cx="919" cy="-18.7128" rx="46.9154" ry="18.928"/>
<text text-anchor="middle" x="919" y="-16.7447" font-family="Roboto Mono" font-size="14.00" fill="#000000">Region</text>
</g>
<!-- api_gateway_api&#45;&gt;region -->
<g id="edge4" class="edge">
<title>api_gateway_api&#45;&gt;region</title>
<path fill="none" stroke="#555555" d="M267.9898,-1127.9475C169.396,-1106.0893 0,-1060.1763 0,-1002.736 0,-1002.736 0,-1002.736 0,-105.3268 0,-61.8128 661.6796,-29.7824 862.1316,-21.0774"/>
<polygon fill="#555555" stroke="#555555" points="862.3234,-24.5725 872.1632,-20.6445 862.0216,-17.579 862.3234,-24.5725"/>
<text text-anchor="middle" x="30.0049" y="-515.0005" font-family="Roboto Mono" font-size="10.00" fill="#555555">belongs to</text>
</g>
<!-- s3_bucket -->
<g id="node6" class="node">
<title>s3_bucket</title>
<ellipse fill="#f3bb44" stroke="#f3bb44" cx="638" cy="-334.1289" rx="46.9154" ry="31.5391"/>
<text text-anchor="middle" x="638" y="-341.3928" font-family="Roboto Mono" font-size="14.00" fill="#000000">S3</text>
<text text-anchor="middle" x="638" y="-322.9289" font-family="Roboto Mono" font-size="14.00" fill="#000000">Bucket</text>
</g>
<!-- api_gateway_api&#45;&gt;s3_bucket -->
<g id="edge5" class="edge">
<title>api_gateway_api&#45;&gt;s3_bucket</title>
<path fill="none" stroke="#555555" d="M411.4557,-1133.608C535.9825,-1117.7508 773,-1077.7202 773,-1002.736 773,-1002.736 773,-1002.736 773,-460.0433 773,-434.1613 719.2644,-390.8183 679.5974,-362.349"/>
<polygon fill="#555555" stroke="#555555" points="681.5516,-359.4441 671.3708,-356.5113 677.5006,-365.1528 681.5516,-359.4441"/>
<text text-anchor="middle" x="797.0039" y="-723.3896" font-family="Roboto Mono" font-size="10.00" fill="#555555">accesses</text>
</g>
<!-- service -->
<g id="node7" class="node">
<title>service</title>
<ellipse fill="#f3bb44" stroke="#f3bb44" cx="1473" cy="-724.7954" rx="124.3729" ry="57.7614"/>
<text text-anchor="middle" x="1473" y="-750.5231" font-family="Roboto Mono" font-size="14.00" fill="#000000">&quot;Service&quot;</text>
<text text-anchor="middle" x="1473" y="-732.0593" font-family="Roboto Mono" font-size="14.00" fill="#000000">(not linking to</text>
<text text-anchor="middle" x="1473" y="-713.5954" font-family="Roboto Mono" font-size="14.00" fill="#000000">the actual services</text>
<text text-anchor="middle" x="1473" y="-695.1315" font-family="Roboto Mono" font-size="14.00" fill="#000000">for clarity sake)</text>
</g>
<!-- api_gateway_api&#45;&gt;service -->
<g id="edge6" class="edge">
<title>api_gateway_api&#45;&gt;service</title>
<path fill="none" stroke="#555555" d="M413.3007,-1138.0083C538.1669,-1131.1719 780.5194,-1115.3675 863,-1092.0701 1120.2788,-1019.3994 1200.8455,-1002.0013 1403,-827.0529 1415.3942,-816.3267 1426.6112,-802.9279 1436.2538,-789.3973"/>
<polygon fill="#555555" stroke="#555555" points="1439.2622,-791.1996 1442.0506,-780.9783 1433.4967,-787.2298 1439.2622,-791.1996"/>
<text text-anchor="middle" x="1299.0039" y="-938.373" font-family="Roboto Mono" font-size="10.00" fill="#555555">accesses</text>
</g>
<!-- compute_instance -->
<g id="node11" class="node">
<title>compute_instance</title>
<ellipse fill="#f3bb44" stroke="#f3bb44" cx="958" cy="-876.8216" rx="64.5601" ry="31.5391"/>
<text text-anchor="middle" x="958" y="-884.0855" font-family="Roboto Mono" font-size="14.00" fill="#000000">&quot;Compute</text>
<text text-anchor="middle" x="958" y="-865.6216" font-family="Roboto Mono" font-size="14.00" fill="#000000">Instance&quot;</text>
</g>
<!-- ec2_instance&#45;&gt;compute_instance -->
<g id="edge21" class="edge">
<title>ec2_instance&#45;&gt;compute_instance</title>
<path fill="none" stroke="#555555" d="M575.3322,-997.838C659.1473,-990.1939 809.0567,-974.0874 859,-952.9673 881.6875,-943.3731 903.7346,-927.2993 921.2421,-912.3859"/>
<polygon fill="#555555" stroke="#555555" points="923.729,-914.8606 928.9526,-905.6429 919.1209,-909.5913 923.729,-914.8606"/>
<text text-anchor="middle" x="914.002" y="-938.373" font-family="Roboto Mono" font-size="10.00" fill="#555555">is a</text>
</g>
<!-- ec2_security_group -->
<g id="node16" class="node">
<title>ec2_security_group</title>
<ellipse fill="#f3bb44" stroke="#f3bb44" cx="122" cy="-204.9968" rx="94.466" ry="31.5391"/>
<text text-anchor="middle" x="122" y="-212.2606" font-family="Roboto Mono" font-size="14.00" fill="#000000">EC2</text>
<text text-anchor="middle" x="122" y="-193.7968" font-family="Roboto Mono" font-size="14.00" fill="#000000">Security Group</text>
</g>
<!-- ec2_instance&#45;&gt;ec2_security_group -->
<g id="edge22" class="edge">
<title>ec2_instance&#45;&gt;ec2_security_group</title>
<path fill="none" stroke="#555555" d="M468.5179,-984.6472C448.9491,-976.3321 426.6374,-965.5139 408,-952.9673 384.1683,-936.9237 377.606,-932.0336 361,-908.5903 330.658,-865.7555 353.8009,-833.7024 313,-800.6759 282.9853,-776.3804 255.5439,-809.7406 228,-782.6759 151.6637,-707.668 129.245,-367.2586 123.6472,-247.1275"/>
<polygon fill="#555555" stroke="#555555" points="127.1315,-246.6983 123.1853,-236.8658 120.1386,-247.0131 127.1315,-246.6983"/>
<text text-anchor="middle" x="171.0015" y="-571.3634" font-family="Roboto Mono" font-size="10.00" fill="#555555">has</text>
</g>
<!-- vpc_subnet -->
<g id="node17" class="node">
<title>vpc_subnet</title>
<ellipse fill="#f3bb44" stroke="#f3bb44" cx="750" cy="-334.1289" rx="46.9154" ry="31.5391"/>
<text text-anchor="middle" x="750" y="-341.3928" font-family="Roboto Mono" font-size="14.00" fill="#000000">VPC</text>
<text text-anchor="middle" x="750" y="-322.9289" font-family="Roboto Mono" font-size="14.00" fill="#000000">Subnet</text>
</g>
<!-- ec2_instance&#45;&gt;vpc_subnet -->
<g id="edge23" class="edge">
<title>ec2_instance&#45;&gt;vpc_subnet</title>
<path fill="none" stroke="#555555" d="M552.0447,-977.1507C591.1147,-946.3977 652.5417,-890.8853 681,-827.0529 718.155,-743.7136 687.0351,-712.9979 698.9902,-622.5379 710.6557,-534.2695 730.2276,-431.8205 741.4325,-375.8854"/>
<polygon fill="#555555" stroke="#555555" points="744.8808,-376.4904 743.4235,-365.9963 738.0185,-375.1087 744.8808,-376.4904"/>
<text text-anchor="middle" x="729.0049" y="-634.3206" font-family="Roboto Mono" font-size="10.00" fill="#555555">belongs to</text>
</g>
<!-- elb&#45;&gt;ec2_instance -->
<g id="edge25" class="edge">
<title>elb&#45;&gt;ec2_instance</title>
<path fill="none" stroke="#555555" d="M245.24,-352.4763C228.1006,-401.8769 186.7923,-541.2293 222.9873,-648.9148 236.469,-689.025 314.6337,-765.397 338,-800.6759 368.5442,-846.7922 369.6659,-862.3356 400,-908.5903 413.4789,-929.1434 414.736,-936.5192 433,-952.9673 442.442,-961.4704 453.5567,-969.2611 464.555,-976.0275"/>
<polygon fill="#555555" stroke="#555555" points="462.9306,-979.1334 473.3162,-981.2284 466.5039,-973.1141 462.9306,-979.1334"/>
<text text-anchor="middle" x="262.0063" y="-640.9148" font-family="Roboto Mono" font-size="10.00" fill="#555555">accesses (via</text>
<text text-anchor="middle" x="262.0063" y="-627.7264" font-family="Roboto Mono" font-size="10.00" fill="#555555">internal IP)</text>
</g>
<!-- elb&#45;&gt;ec2_security_group -->
<g id="edge26" class="edge">
<title>elb&#45;&gt;ec2_security_group</title>
<path fill="none" stroke="#555555" d="M236.0594,-318.2948C217.1765,-299.5379 185.0873,-267.663 159.7466,-242.4914"/>
<polygon fill="#555555" stroke="#555555" points="162.02,-239.8164 152.4587,-235.2521 157.0869,-244.7827 162.02,-239.8164"/>
<text text-anchor="middle" x="208.0015" y="-268.1571" font-family="Roboto Mono" font-size="10.00" fill="#555555">has</text>
</g>
<!-- vpc -->
<g id="node18" class="node">
<title>vpc</title>
<ellipse fill="#f3bb44" stroke="#f3bb44" cx="363" cy="-105.3268" rx="29.272" ry="18.928"/>
<text text-anchor="middle" x="363" y="-103.3587" font-family="Roboto Mono" font-size="14.00" fill="#000000">VPC</text>
</g>
<!-- elb&#45;&gt;vpc -->
<g id="edge27" class="edge">
<title>elb&#45;&gt;vpc</title>
<path fill="none" stroke="#555555" d="M248.8244,-315.5142C244.4219,-283.9105 239.7113,-218.7634 265.9902,-173.2281 280.1064,-148.768 307.0077,-131.0065 328.9076,-119.798"/>
<polygon fill="#555555" stroke="#555555" points="330.4814,-122.9245 337.9352,-115.3951 327.4129,-116.6329 330.4814,-122.9245"/>
<text text-anchor="middle" x="296.0049" y="-203.591" font-family="Roboto Mono" font-size="10.00" fill="#555555">belongs to</text>
</g>
<!-- lambda_function&#45;&gt;region -->
<g id="edge44" class="edge">
<title>lambda_function&#45;&gt;region</title>
<path fill="none" stroke="#555555" d="M988.7789,-173.4692C979.9663,-149.4018 967.0418,-115.5634 954,-86.614 947.8793,-73.0276 940.3891,-58.2872 933.9106,-46.023"/>
<polygon fill="#555555" stroke="#555555" points="936.9906,-44.3603 929.1932,-37.1873 930.8155,-47.6572 936.9906,-44.3603"/>
<text text-anchor="middle" x="999.0049" y="-103.9211" font-family="Roboto Mono" font-size="10.00" fill="#555555">belongs to</text>
</g>
<!-- lambda_function&#45;&gt;compute_instance -->
<g id="edge43" class="edge">
<title>lambda_function&#45;&gt;compute_instance</title>
<path fill="none" stroke="#555555" d="M1000.9775,-237.0287C1002.6179,-292.5595 1005.8576,-410.304 1007,-509.812 1008.6285,-651.6541 999.4041,-687.8737 972,-827.0529 971.4736,-829.7265 970.8751,-832.466 970.2291,-835.218"/>
<polygon fill="#555555" stroke="#555555" points="966.7776,-834.5914 967.7254,-845.1438 973.565,-836.3036 966.7776,-834.5914"/>
<text text-anchor="middle" x="1019.002" y="-515.0005" font-family="Roboto Mono" font-size="10.00" fill="#555555">is a</text>
</g>
<!-- s3_bucket&#45;&gt;lambda_function -->
<g id="edge50" class="edge">
<title>s3_bucket&#45;&gt;lambda_function</title>
<path fill="none" stroke="#555555" d="M663.0297,-306.7276C681.3333,-288.6332 707.8002,-266.22 735.9922,-254.7655 817.449,-221.6692 848.1903,-259.958 933,-236.7655 938.2774,-235.3223 943.6491,-233.4827 948.9384,-231.4181"/>
<polygon fill="#555555" stroke="#555555" points="950.4526,-234.5788 958.3319,-227.4959 947.7554,-228.1193 950.4526,-234.5788"/>
<text text-anchor="middle" x="760.0039" y="-268.1571" font-family="Roboto Mono" font-size="10.00" fill="#555555">triggers</text>
</g>
<!-- s3_bucket&#45;&gt;region -->
<g id="edge51" class="edge">
<title>s3_bucket&#45;&gt;region</title>
<path fill="none" stroke="#555555" d="M602.5894,-312.8839C594.9955,-308.9528 586.8807,-305.1982 579,-302.3602 540.6207,-288.5389 514.8618,-315.9065 489,-284.3602 471.0333,-262.4443 478.4213,-204.5491 505,-173.2281 596.8882,-64.9446 772.3608,-32.4686 862.4896,-22.786"/>
<polygon fill="#555555" stroke="#555555" points="862.9261,-26.2598 872.5203,-21.765 862.2172,-19.2957 862.9261,-26.2598"/>
<text text-anchor="middle" x="564.0049" y="-147.2281" font-family="Roboto Mono" font-size="10.00" fill="#555555">belongs to</text>
</g>
<!-- data_instance -->
<g id="node12" class="node">
<title>data_instance</title>
<ellipse fill="#f3bb44" stroke="#f3bb44" cx="579" cy="-204.9968" rx="64.5601" ry="31.5391"/>
<text text-anchor="middle" x="579" y="-212.2606" font-family="Roboto Mono" font-size="14.00" fill="#000000">&quot;Data</text>
<text text-anchor="middle" x="579" y="-193.7968" font-family="Roboto Mono" font-size="14.00" fill="#000000">Instance&quot;</text>
</g>
<!-- s3_bucket&#45;&gt;data_instance -->
<g id="edge49" class="edge">
<title>s3_bucket&#45;&gt;data_instance</title>
<path fill="none" stroke="#555555" d="M638.0863,-302.29C637.025,-287.2373 634.1158,-269.4022 627,-254.7655 624.5725,-249.7723 621.4555,-244.9589 617.9772,-240.4233"/>
<polygon fill="#555555" stroke="#555555" points="620.5059,-237.9917 611.3972,-232.5803 615.1432,-242.4909 620.5059,-237.9917"/>
<text text-anchor="middle" x="648.002" y="-268.1571" font-family="Roboto Mono" font-size="10.00" fill="#555555">is a</text>
</g>
<!-- availability_zone -->
<g id="node8" class="node">
<title>availability_zone</title>
<ellipse fill="#f3bb44" stroke="#f3bb44" cx="841" cy="-204.9968" rx="82.7035" ry="31.5391"/>
<text text-anchor="middle" x="841" y="-212.2606" font-family="Roboto Mono" font-size="14.00" fill="#000000">Availability</text>
<text text-anchor="middle" x="841" y="-193.7968" font-family="Roboto Mono" font-size="14.00" fill="#000000">Zone</text>
</g>
<!-- availability_zone&#45;&gt;region -->
<g id="edge7" class="edge">
<title>availability_zone&#45;&gt;region</title>
<path fill="none" stroke="#555555" d="M854.2316,-173.3962C869.106,-137.8726 893.0319,-80.7313 907.2641,-46.741"/>
<polygon fill="#555555" stroke="#555555" points="910.5436,-47.9709 911.1774,-37.395 904.0867,-45.2673 910.5436,-47.9709"/>
<text text-anchor="middle" x="920.0049" y="-103.9211" font-family="Roboto Mono" font-size="10.00" fill="#555555">belongs to</text>
</g>
<!-- cloudfront_distribution -->
<g id="node9" class="node">
<title>cloudfront_distribution</title>
<ellipse fill="#f3bb44" stroke="#f3bb44" cx="495" cy="-460.0433" rx="82.7035" ry="31.5391"/>
<text text-anchor="middle" x="495" y="-467.3071" font-family="Roboto Mono" font-size="14.00" fill="#000000">CloudFront</text>
<text text-anchor="middle" x="495" y="-448.8433" font-family="Roboto Mono" font-size="14.00" fill="#000000">Distribution</text>
</g>
<!-- cloudfront_distribution&#45;&gt;api_gateway_api -->
<g id="edge8" class="edge">
<title>cloudfront_distribution&#45;&gt;api_gateway_api</title>
<path fill="none" stroke="#555555" d="M442.6252,-484.6561C419.5885,-498.1181 394.3336,-516.9913 379,-541.0005 313.0146,-644.3197 303.3201,-679.3158 285.9805,-800.6759 270.5024,-909.0065 303.1125,-1036.5017 323.0487,-1100.6128"/>
<polygon fill="#555555" stroke="#555555" points="319.7749,-1101.8683 326.1302,-1110.3454 326.4484,-1099.7553 319.7749,-1101.8683"/>
<text text-anchor="middle" x="331.0098" y="-819.0529" font-family="Roboto Mono" font-size="10.00" fill="#555555">accesses (if</text>
<text text-anchor="middle" x="331.0098" y="-805.8644" font-family="Roboto Mono" font-size="10.00" fill="#555555">edge&#45;optimized)</text>
</g>
<!-- cloudfront_distribution&#45;&gt;ec2_instance -->
<g id="edge9" class="edge">
<title>cloudfront_distribution&#45;&gt;ec2_instance</title>
<path fill="none" stroke="#555555" d="M541.2442,-486.8229C559.0892,-500.3206 576.7182,-518.6145 583,-541.0005 625.6255,-692.9011 565.1428,-881.0316 533.805,-962.2646"/>
<polygon fill="#555555" stroke="#555555" points="530.5243,-961.0438 530.1367,-971.6315 537.0423,-963.5964 530.5243,-961.0438"/>
<text text-anchor="middle" x="637.0063" y="-729.9839" font-family="Roboto Mono" font-size="10.00" fill="#555555">accesses (via</text>
<text text-anchor="middle" x="637.0063" y="-716.7954" font-family="Roboto Mono" font-size="10.00" fill="#555555">public IP)</text>
</g>
<!-- cloudfront_distribution&#45;&gt;elb -->
<g id="edge10" class="edge">
<title>cloudfront_distribution&#45;&gt;elb</title>
<path fill="none" stroke="#555555" d="M457.0592,-431.7106C431.9632,-413.2809 401.1665,-391.3388 387,-383.8976 355.0931,-367.1381 316.2697,-353.4612 288.4611,-344.7157"/>
<polygon fill="#555555" stroke="#555555" points="289.3348,-341.3225 278.7474,-341.7202 287.2719,-348.0117 289.3348,-341.3225"/>
<text text-anchor="middle" x="464.0063" y="-402.2746" font-family="Roboto Mono" font-size="10.00" fill="#555555">accesses (via</text>
<text text-anchor="middle" x="464.0063" y="-389.0861" font-family="Roboto Mono" font-size="10.00" fill="#555555">public IP)</text>
</g>
<!-- cloudfront_distribution&#45;&gt;s3_bucket -->
<g id="edge11" class="edge">
<title>cloudfront_distribution&#45;&gt;s3_bucket</title>
<path fill="none" stroke="#555555" d="M502.3342,-428.3898C507.3071,-413.1579 515.3456,-395.6896 527.9883,-383.8976 545.5697,-367.4992 557.0142,-375.6258 579,-365.8976 583.6029,-363.861 588.3352,-361.6053 593.0216,-359.2629"/>
<polygon fill="#555555" stroke="#555555" points="594.6356,-362.3686 601.9314,-354.686 591.4371,-356.1421 594.6356,-362.3686"/>
<text text-anchor="middle" x="564.0059" y="-402.2746" font-family="Roboto Mono" font-size="10.00" fill="#555555">accesses</text>
<text text-anchor="middle" x="564.0059" y="-389.0861" font-family="Roboto Mono" font-size="10.00" fill="#555555">(internally)</text>
</g>
<!-- cloudwatch_events_rule -->
<g id="node10" class="node">
<title>cloudwatch_events_rule</title>
<ellipse fill="#f3bb44" stroke="#f3bb44" cx="1216" cy="-334.1289" rx="76.8224" ry="31.5391"/>
<text text-anchor="middle" x="1216" y="-341.3928" font-family="Roboto Mono" font-size="14.00" fill="#000000">CloudWatch</text>
<text text-anchor="middle" x="1216" y="-322.9289" font-family="Roboto Mono" font-size="14.00" fill="#000000">Events Rule</text>
</g>
<!-- cloudwatch_events_rule&#45;&gt;lambda_function -->
<g id="edge12" class="edge">
<title>cloudwatch_events_rule&#45;&gt;lambda_function</title>
<path fill="none" stroke="#555555" d="M1164.787,-310.3315C1149.1601,-302.5557 1132.1169,-293.5449 1116.9863,-284.3602 1097.7795,-272.7011 1094.5113,-267.5 1076,-254.7655 1066.5529,-248.2666 1056.342,-241.4449 1046.5631,-235.0081"/>
<polygon fill="#555555" stroke="#555555" points="1048.393,-232.0227 1038.1107,-229.4683 1044.5558,-237.8773 1048.393,-232.0227"/>
<text text-anchor="middle" x="1158.0068" y="-276.3602" font-family="Roboto Mono" font-size="10.00" fill="#555555">triggers (when</text>
<text text-anchor="middle" x="1158.0068" y="-263.1717" font-family="Roboto Mono" font-size="10.00" fill="#555555">scheduled ⏰)</text>
</g>
<!-- cloudwatch_events_rule&#45;&gt;region -->
<g id="edge13" class="edge">
<title>cloudwatch_events_rule&#45;&gt;region</title>
<path fill="none" stroke="#555555" d="M1260.0723,-307.9538C1267.7273,-301.2804 1274.6248,-293.3921 1279,-284.3602 1318.1296,-203.5822 1306.2208,-144.9419 1238,-86.614 1198.9982,-53.268 1055.3196,-33.1035 974.7369,-24.1706"/>
<polygon fill="#555555" stroke="#555555" points="975.0764,-20.687 964.7567,-23.086 974.32,-27.646 975.0764,-20.687"/>
<text text-anchor="middle" x="1321.0049" y="-147.2281" font-family="Roboto Mono" font-size="10.00" fill="#555555">belongs to</text>
</g>
<!-- compute_instance&#45;&gt;ec2_instance -->
<g id="edge15" class="edge">
<title>compute_instance&#45;&gt;ec2_instance</title>
<path fill="none" stroke="#555555" d="M901.932,-892.8301C819.1939,-916.4535 664.936,-960.4973 578.9497,-985.0481"/>
<polygon fill="#555555" stroke="#555555" points="577.9751,-981.6864 569.3203,-987.7975 579.897,-988.4174 577.9751,-981.6864"/>
<text text-anchor="middle" x="816.0063" y="-944.9673" font-family="Roboto Mono" font-size="10.00" fill="#555555">accesses (via</text>
<text text-anchor="middle" x="816.0063" y="-931.7788" font-family="Roboto Mono" font-size="10.00" fill="#555555">internal IP)</text>
</g>
<!-- compute_instance&#45;&gt;lambda_function -->
<g id="edge17" class="edge">
<title>compute_instance&#45;&gt;lambda_function</title>
<path fill="none" stroke="#555555" d="M958,-844.7903C958,-814.024 958,-766.2331 958,-724.7954 958,-724.7954 958,-724.7954 958,-334.1289 958,-303.0862 969.112,-269.8133 979.9048,-244.8175"/>
<polygon fill="#555555" stroke="#555555" points="983.1107,-246.2222 984.0018,-235.6649 976.7216,-243.3622 983.1107,-246.2222"/>
<text text-anchor="middle" x="982.0039" y="-515.0005" font-family="Roboto Mono" font-size="10.00" fill="#555555">triggers</text>
</g>
<!-- compute_instance&#45;&gt;service -->
<g id="edge18" class="edge">
<title>compute_instance&#45;&gt;service</title>
<path fill="none" stroke="#555555" d="M1022.8145,-873.6899C1115.3556,-868.2996 1279.9254,-855.0347 1332,-827.0529 1345.6992,-819.6918 1343.2253,-810.8442 1354.9922,-800.6759 1364.9053,-792.1096 1375.8624,-783.7931 1386.9872,-775.9996"/>
<polygon fill="#555555" stroke="#555555" points="1389.2495,-778.6919 1395.5125,-770.1464 1385.2875,-772.9211 1389.2495,-778.6919"/>
<text text-anchor="middle" x="1378.0039" y="-812.4587" font-family="Roboto Mono" font-size="10.00" fill="#555555">accesses</text>
</g>
<!-- compute_instance&#45;&gt;data_instance -->
<g id="edge14" class="edge">
<title>compute_instance&#45;&gt;data_instance</title>
<path fill="none" stroke="#555555" d="M951.557,-844.8148C926.7218,-722.9492 836.1928,-292.8684 788,-254.7655 763.5672,-235.4481 678.956,-245.2955 649,-236.7655 643.9941,-235.3401 638.8889,-233.6116 633.8307,-231.7056"/>
<polygon fill="#555555" stroke="#555555" points="634.7848,-228.3177 624.2001,-227.8543 632.1856,-234.8173 634.7848,-228.3177"/>
<text text-anchor="middle" x="903.0039" y="-515.0005" font-family="Roboto Mono" font-size="10.00" fill="#555555">accesses</text>
</g>
<!-- internet -->
<g id="node13" class="node">
<title>internet</title>
<ellipse fill="#aaddff" stroke="#aaddff" cx="393" cy="-724.7954" rx="58.6785" ry="34.9083"/>
<text text-anchor="middle" x="393" y="-734.3117" font-family="Roboto Mono" font-size="14.00" fill="#000000">️️Internet</text>
<text text-anchor="middle" x="393" y="-715.8478" font-family="Roboto Mono" font-size="14.00" fill="#000000">☁️</text>
</g>
<!-- compute_instance&#45;&gt;internet -->
<g id="edge16" class="edge">
<title>compute_instance&#45;&gt;internet</title>
<path fill="none" stroke="#555555" d="M898.4638,-863.8929C821.985,-846.9384 685.3435,-815.4748 570,-782.6759 530.9409,-771.5692 487.6018,-757.4281 453.5847,-745.9038"/>
<polygon fill="#555555" stroke="#555555" points="454.391,-742.4811 443.7966,-742.573 452.1359,-749.108 454.391,-742.4811"/>
<text text-anchor="middle" x="764.0039" y="-812.4587" font-family="Roboto Mono" font-size="10.00" fill="#555555">accesses</text>
</g>
<!-- sns_topic -->
<g id="node14" class="node">
<title>sns_topic</title>
<ellipse fill="#f3bb44" stroke="#f3bb44" cx="1079" cy="-334.1289" rx="41.0341" ry="31.5391"/>
<text text-anchor="middle" x="1079" y="-341.3928" font-family="Roboto Mono" font-size="14.00" fill="#000000">SNS</text>
<text text-anchor="middle" x="1079" y="-322.9289" font-family="Roboto Mono" font-size="14.00" fill="#000000">Topic</text>
</g>
<!-- compute_instance&#45;&gt;sns_topic -->
<g id="edge19" class="edge">
<title>compute_instance&#45;&gt;sns_topic</title>
<path fill="none" stroke="#555555" d="M1007.1564,-856.0655C1020.293,-848.5501 1033.4701,-838.9192 1043,-827.0529 1072.9032,-789.8183 1076,-772.5511 1076,-724.7954 1076,-724.7954 1076,-724.7954 1076,-460.0433 1076,-432.0134 1076.7522,-400.4835 1077.5033,-375.9869"/>
<polygon fill="#555555" stroke="#555555" points="1081.0028,-376.056 1077.8229,-365.9496 1074.0063,-375.8331 1081.0028,-376.056"/>
<text text-anchor="middle" x="1100.0039" y="-571.3634" font-family="Roboto Mono" font-size="10.00" fill="#555555">accesses</text>
</g>
<!-- sqs_queue -->
<g id="node15" class="node">
<title>sqs_queue</title>
<ellipse fill="#f3bb44" stroke="#f3bb44" cx="1227" cy="-204.9968" rx="41.0341" ry="31.5391"/>
<text text-anchor="middle" x="1227" y="-212.2606" font-family="Roboto Mono" font-size="14.00" fill="#000000">SQS</text>
<text text-anchor="middle" x="1227" y="-193.7968" font-family="Roboto Mono" font-size="14.00" fill="#000000">Queue</text>
</g>
<!-- compute_instance&#45;&gt;sqs_queue -->
<g id="edge20" class="edge">
<title>compute_instance&#45;&gt;sqs_queue</title>
<path fill="none" stroke="#555555" d="M1017.9421,-864.6604C1121.0443,-842.0062 1321,-789.7037 1321,-724.7954 1321,-724.7954 1321,-724.7954 1321,-334.1289 1321,-293.7478 1290.5828,-257.5225 1264.3538,-233.7919"/>
<polygon fill="#555555" stroke="#555555" points="1266.5745,-231.0843 1256.7422,-227.1376 1261.9673,-236.3544 1266.5745,-231.0843"/>
<text text-anchor="middle" x="1345.0039" y="-515.0005" font-family="Roboto Mono" font-size="10.00" fill="#555555">accesses</text>
</g>
<!-- internet&#45;&gt;api_gateway_api -->
<g id="edge37" class="edge">
<title>internet&#45;&gt;api_gateway_api</title>
<path fill="none" stroke="#555555" d="M388.2922,-759.8557C378.0347,-836.2451 353.7041,-1017.4403 342.6452,-1099.7977"/>
<polygon fill="#555555" stroke="#555555" points="339.1633,-1099.4297 341.3012,-1109.8066 346.101,-1100.3614 339.1633,-1099.4297"/>
<text text-anchor="middle" x="390.0039" y="-938.373" font-family="Roboto Mono" font-size="10.00" fill="#555555">accesses</text>
</g>
<!-- internet&#45;&gt;ec2_instance -->
<g id="edge39" class="edge">
<title>internet&#45;&gt;ec2_instance</title>
<path fill="none" stroke="#555555" d="M393.021,-759.9238C394.3867,-798.4185 400.6358,-861.0199 424.9873,-908.5903 437.0157,-932.0876 456.9201,-953.5462 475.1452,-970.0226"/>
<polygon fill="#555555" stroke="#555555" points="473.0027,-972.7993 482.8252,-976.7704 477.623,-967.5407 473.0027,-972.7993"/>
<text text-anchor="middle" x="464.0063" y="-888.6043" font-family="Roboto Mono" font-size="10.00" fill="#555555">accesses (via</text>
<text text-anchor="middle" x="464.0063" y="-875.4158" font-family="Roboto Mono" font-size="10.00" fill="#555555">public or</text>
<text text-anchor="middle" x="464.0063" y="-862.2274" font-family="Roboto Mono" font-size="10.00" fill="#555555">Elastic IP)</text>
</g>
<!-- internet&#45;&gt;elb -->
<g id="edge40" class="edge">
<title>internet&#45;&gt;elb</title>
<path fill="none" stroke="#555555" d="M362.9999,-694.5271C328.7591,-657.6498 274.6943,-591.717 252.9922,-523.0005 235.8252,-468.6437 241.5156,-401.0167 246.9363,-363.2074"/>
<polygon fill="#555555" stroke="#555555" points="250.457,-363.3384 248.5115,-352.9238 243.5377,-362.2785 250.457,-363.3384"/>
<text text-anchor="middle" x="277.0039" y="-515.0005" font-family="Roboto Mono" font-size="10.00" fill="#555555">accesses</text>
</g>
<!-- internet&#45;&gt;s3_bucket -->
<g id="edge42" class="edge">
<title>internet&#45;&gt;s3_bucket</title>
<path fill="none" stroke="#555555" d="M441.0522,-704.2728C510.299,-671.4294 633.913,-599.589 671,-491.812 684.4432,-452.7454 671.3845,-406.2616 657.9326,-373.9281"/>
<polygon fill="#555555" stroke="#555555" points="660.9736,-372.1446 653.7741,-364.3717 654.5549,-374.9378 660.9736,-372.1446"/>
<text text-anchor="middle" x="687.0039" y="-515.0005" font-family="Roboto Mono" font-size="10.00" fill="#555555">accesses</text>
</g>
<!-- internet&#45;&gt;cloudfront_distribution -->
<g id="edge38" class="edge">
<title>internet&#45;&gt;cloudfront_distribution</title>
<path fill="none" stroke="#555555" d="M386.0753,-689.9525C380.1909,-651.4315 375.9424,-588.5449 398.9922,-541.0005 408.3103,-521.78 424.5571,-505.4142 441.0647,-492.533"/>
<polygon fill="#555555" stroke="#555555" points="443.2388,-495.2778 449.1602,-486.4922 439.0524,-489.6676 443.2388,-495.2778"/>
<text text-anchor="middle" x="423.0039" y="-571.3634" font-family="Roboto Mono" font-size="10.00" fill="#555555">accesses</text>
</g>
<!-- route_53_zone -->
<g id="node24" class="node">
<title>route_53_zone</title>
<ellipse fill="#f3bb44" stroke="#f3bb44" cx="515" cy="-572.7692" rx="58.6785" ry="31.5391"/>
<text text-anchor="middle" x="515" y="-580.033" font-family="Roboto Mono" font-size="14.00" fill="#000000">Route 53</text>
<text text-anchor="middle" x="515" y="-561.5692" font-family="Roboto Mono" font-size="14.00" fill="#000000">Zone</text>
</g>
<!-- internet&#45;&gt;route_53_zone -->
<g id="edge41" class="edge">
<title>internet&#45;&gt;route_53_zone</title>
<path fill="none" stroke="#555555" d="M409.6916,-691.1415C420.9305,-670.2307 436.9585,-643.4469 454.9922,-622.5379 460.1511,-616.5564 466.0764,-610.7157 472.1506,-605.2624"/>
<polygon fill="#555555" stroke="#555555" points="474.6028,-607.769 479.8777,-598.5806 470.0242,-602.4741 474.6028,-607.769"/>
<text text-anchor="middle" x="479.0039" y="-634.3206" font-family="Roboto Mono" font-size="10.00" fill="#555555">accesses</text>
</g>
<!-- sns_topic&#45;&gt;lambda_function -->
<g id="edge52" class="edge">
<title>sns_topic&#45;&gt;lambda_function</title>
<path fill="none" stroke="#555555" d="M1049.4878,-311.9686C1040.5955,-304.0765 1031.4843,-294.5864 1024.9922,-284.3602 1017.7834,-273.0052 1012.5124,-259.4115 1008.7231,-246.7096"/>
<polygon fill="#555555" stroke="#555555" points="1012.0176,-245.4894 1005.9932,-236.774 1005.2678,-247.344 1012.0176,-245.4894"/>
<text text-anchor="middle" x="1048.0039" y="-268.1571" font-family="Roboto Mono" font-size="10.00" fill="#555555">triggers</text>
</g>
<!-- sns_topic&#45;&gt;region -->
<g id="edge53" class="edge">
<title>sns_topic&#45;&gt;region</title>
<path fill="none" stroke="#555555" d="M1082.4631,-302.1568C1086.2205,-250.4734 1085.7756,-148.1622 1033,-86.614 1013.8712,-64.3056 985.4991,-47.3695 961.8456,-35.991"/>
<polygon fill="#555555" stroke="#555555" points="963.2527,-32.7855 952.7082,-31.754 960.308,-39.136 963.2527,-32.7855"/>
<text text-anchor="middle" x="1099.0049" y="-147.2281" font-family="Roboto Mono" font-size="10.00" fill="#555555">belongs to</text>
</g>
<!-- sns_topic&#45;&gt;sqs_queue -->
<g id="edge54" class="edge">
<title>sns_topic&#45;&gt;sqs_queue</title>
<path fill="none" stroke="#555555" d="M1109.7032,-312.8149C1116.2023,-308.9361 1123.1677,-305.2193 1130,-302.3602 1161.6228,-289.1272 1180.3415,-308.1735 1205,-284.3602 1215.0808,-274.6249 1220.6673,-260.7103 1223.7232,-247.2439"/>
<polygon fill="#555555" stroke="#555555" points="1227.2204,-247.5801 1225.5993,-237.11 1220.3373,-246.3057 1227.2204,-247.5801"/>
<text text-anchor="middle" x="1248.0044" y="-268.1571" font-family="Roboto Mono" font-size="10.00" fill="#555555">pushes to</text>
</g>
<!-- sqs_queue&#45;&gt;region -->
<g id="edge55" class="edge">
<title>sqs_queue&#45;&gt;region</title>
<path fill="none" stroke="#555555" d="M1210.7074,-175.6601C1189.9275,-141.1516 1150.6583,-84.8481 1101,-55.4256 1079.8591,-42.8996 1019.342,-32.2714 973.8511,-25.7237"/>
<polygon fill="#555555" stroke="#555555" points="974.2016,-22.2385 963.8111,-24.309 973.2249,-29.1701 974.2016,-22.2385"/>
<text text-anchor="middle" x="1204.0049" y="-103.9211" font-family="Roboto Mono" font-size="10.00" fill="#555555">belongs to</text>
</g>
<!-- ec2_security_group&#45;&gt;vpc -->
<g id="edge24" class="edge">
<title>ec2_security_group&#45;&gt;vpc</title>
<path fill="none" stroke="#555555" d="M143.0185,-173.7429C152.3973,-162.0891 164.4071,-149.8149 177.9902,-142.0396 202.4297,-128.0498 277.5389,-116.2867 324.2021,-110.073"/>
<polygon fill="#555555" stroke="#555555" points="324.8041,-113.5242 334.2672,-108.7598 323.8984,-106.583 324.8041,-113.5242"/>
<text text-anchor="middle" x="208.0049" y="-147.2281" font-family="Roboto Mono" font-size="10.00" fill="#555555">belongs to</text>
</g>
<!-- vpc_subnet&#45;&gt;availability_zone -->
<g id="edge58" class="edge">
<title>vpc_subnet&#45;&gt;availability_zone</title>
<path fill="none" stroke="#555555" d="M770.4222,-305.1491C783.169,-287.061 799.7345,-263.554 813.613,-243.8599"/>
<polygon fill="#555555" stroke="#555555" points="816.478,-245.8703 819.3775,-235.6799 810.7561,-241.8379 816.478,-245.8703"/>
<text text-anchor="middle" x="833.0049" y="-268.1571" font-family="Roboto Mono" font-size="10.00" fill="#555555">belongs to</text>
</g>
<!-- vpc_subnet&#45;&gt;vpc -->
<g id="edge59" class="edge">
<title>vpc_subnet&#45;&gt;vpc</title>
<path fill="none" stroke="#555555" d="M721.9746,-308.516C714.8903,-301.164 707.6878,-292.8314 702,-284.3602 671.9097,-239.5448 693.4122,-209.015 653,-173.2281 615.9943,-140.4577 472.5177,-118.7633 402.2385,-109.8786"/>
<polygon fill="#555555" stroke="#555555" points="402.3729,-106.3686 392.0182,-108.6119 401.5118,-113.3154 402.3729,-106.3686"/>
<text text-anchor="middle" x="714.0049" y="-203.591" font-family="Roboto Mono" font-size="10.00" fill="#555555">belongs to</text>
</g>
<!-- vpc&#45;&gt;region -->
<g id="edge57" class="edge">
<title>vpc&#45;&gt;region</title>
<path fill="none" stroke="#555555" d="M374.9391,-87.7793C383.7374,-76.4133 396.7856,-62.4623 411.9902,-55.4256 451.9635,-36.9259 737.9257,-24.953 861.906,-20.5777"/>
<polygon fill="#555555" stroke="#555555" points="862.0972,-24.0733 871.9691,-20.2267 861.8531,-17.0775 862.0972,-24.0733"/>
<text text-anchor="middle" x="442.0049" y="-60.614" font-family="Roboto Mono" font-size="10.00" fill="#555555">belongs to</text>
</g>
<!-- vpc&#45;&gt;internet -->
<g id="edge56" class="edge">
<title>vpc&#45;&gt;internet</title>
<path fill="none" stroke="#555555" d="M358.772,-123.9967C343.8431,-191.0024 295.1737,-419.2322 308,-491.812 320.1717,-560.6878 351.122,-635.9653 372.1179,-681.7867"/>
<polygon fill="#555555" stroke="#555555" points="369.056,-683.5036 376.4368,-691.1045 375.4069,-680.5599 369.056,-683.5036"/>
<text text-anchor="middle" x="342.0049" y="-402.2746" font-family="Roboto Mono" font-size="10.00" fill="#555555">exposed to</text>
<text text-anchor="middle" x="342.0049" y="-389.0861" font-family="Roboto Mono" font-size="10.00" fill="#555555">(optional)</text>
</g>
<!-- elasticache_cluster -->
<g id="node19" class="node">
<title>elasticache_cluster</title>
<ellipse fill="#f3bb44" stroke="#f3bb44" cx="493" cy="-334.1289" rx="76.8224" ry="31.5391"/>
<text text-anchor="middle" x="493" y="-341.3928" font-family="Roboto Mono" font-size="14.00" fill="#000000">ElastiCache</text>
<text text-anchor="middle" x="493" y="-322.9289" font-family="Roboto Mono" font-size="14.00" fill="#000000">Cluster</text>
</g>
<!-- elasticache_cluster&#45;&gt;availability_zone -->
<g id="edge28" class="edge">
<title>elasticache_cluster&#45;&gt;availability_zone</title>
<path fill="none" stroke="#555555" d="M513.4927,-303.3803C517.6495,-297.099 521.9786,-290.5254 526,-284.3602 534.5377,-271.271 531.6261,-262.8709 544.9873,-254.7655 582.9532,-231.7341 700.5094,-245.7333 744,-236.7655 752.9217,-234.9258 762.1717,-232.544 771.2584,-229.9119"/>
<polygon fill="#555555" stroke="#555555" points="772.4636,-233.2043 781.031,-226.9714 770.4466,-226.5012 772.4636,-233.2043"/>
<text text-anchor="middle" x="584.0063" y="-274.7513" font-family="Roboto Mono" font-size="10.00" fill="#555555">belongs to</text>
<text text-anchor="middle" x="584.0063" y="-261.5628" font-family="Roboto Mono" font-size="10.00" fill="#555555">(one or more)</text>
</g>
<!-- elasticache_cluster&#45;&gt;data_instance -->
<g id="edge29" class="edge">
<title>elasticache_cluster&#45;&gt;data_instance</title>
<path fill="none" stroke="#555555" d="M490.5016,-302.3188C490.7464,-286.9254 493.3016,-268.7904 501.9961,-254.7655 507.3429,-246.1407 514.8019,-238.7251 522.9896,-232.4515"/>
<polygon fill="#555555" stroke="#555555" points="525.2045,-235.1727 531.369,-226.5559 521.1765,-229.4477 525.2045,-235.1727"/>
<text text-anchor="middle" x="514.002" y="-268.1571" font-family="Roboto Mono" font-size="10.00" fill="#555555">is a</text>
</g>
<!-- elasticache_cluster&#45;&gt;ec2_security_group -->
<g id="edge30" class="edge">
<title>elasticache_cluster&#45;&gt;ec2_security_group</title>
<path fill="none" stroke="#555555" d="M434.2139,-313.6675C370.1099,-291.3552 267.3332,-255.5822 197.3504,-231.2236"/>
<polygon fill="#555555" stroke="#555555" points="198.2955,-227.8467 187.7006,-227.8649 195.9944,-234.4577 198.2955,-227.8467"/>
<text text-anchor="middle" x="350.0015" y="-268.1571" font-family="Roboto Mono" font-size="10.00" fill="#555555">has</text>
</g>
<!-- elasticache_cluster&#45;&gt;vpc -->
<g id="edge31" class="edge">
<title>elasticache_cluster&#45;&gt;vpc</title>
<path fill="none" stroke="#555555" d="M458.0719,-305.3571C438.4321,-287.4771 414.9312,-262.9591 399.9883,-236.7655 381.5297,-204.4093 371.7953,-162.251 367.0297,-134.5157"/>
<polygon fill="#555555" stroke="#555555" points="370.4287,-133.6075 365.3857,-124.2898 363.5174,-134.7186 370.4287,-133.6075"/>
<text text-anchor="middle" x="436.0059" y="-210.1853" font-family="Roboto Mono" font-size="10.00" fill="#555555">belongs to</text>
<text text-anchor="middle" x="436.0059" y="-196.9968" font-family="Roboto Mono" font-size="10.00" fill="#555555">(optionally)</text>
</g>
<!-- iam_group -->
<g id="node20" class="node">
<title>iam_group</title>
<ellipse fill="#f3bb44" stroke="#f3bb44" cx="1578" cy="-1002.736" rx="41.0341" ry="31.5391"/>
<text text-anchor="middle" x="1578" y="-1009.9998" font-family="Roboto Mono" font-size="14.00" fill="#000000">IAM</text>
<text text-anchor="middle" x="1578" y="-991.536" font-family="Roboto Mono" font-size="14.00" fill="#000000">Group</text>
</g>
<!-- iam_policy -->
<g id="node21" class="node">
<title>iam_policy</title>
<ellipse fill="#f3bb44" stroke="#f3bb44" cx="1535" cy="-876.8216" rx="46.9154" ry="31.5391"/>
<text text-anchor="middle" x="1535" y="-884.0855" font-family="Roboto Mono" font-size="14.00" fill="#000000">IAM</text>
<text text-anchor="middle" x="1535" y="-865.6216" font-family="Roboto Mono" font-size="14.00" fill="#000000">Policy</text>
</g>
<!-- iam_group&#45;&gt;iam_policy -->
<g id="edge32" class="edge">
<title>iam_group&#45;&gt;iam_policy</title>
<path fill="none" stroke="#555555" d="M1567.481,-971.9338C1561.9007,-955.5934 1554.9713,-935.3025 1548.9479,-917.6645"/>
<polygon fill="#555555" stroke="#555555" points="1552.2531,-916.5127 1545.7091,-908.1804 1545.6287,-918.7749 1552.2531,-916.5127"/>
<text text-anchor="middle" x="1569.0015" y="-938.373" font-family="Roboto Mono" font-size="10.00" fill="#555555">has</text>
</g>
<!-- iam_policy&#45;&gt;service -->
<g id="edge33" class="edge">
<title>iam_policy&#45;&gt;service</title>
<path fill="none" stroke="#555555" d="M1522.4534,-846.0568C1516.0069,-830.2497 1507.8864,-810.3381 1500.0996,-791.2446"/>
<polygon fill="#555555" stroke="#555555" points="1503.3298,-789.8965 1496.3126,-781.9586 1496.8481,-792.5399 1503.3298,-789.8965"/>
<text text-anchor="middle" x="1540.0044" y="-819.0529" font-family="Roboto Mono" font-size="10.00" fill="#555555">defines</text>
<text text-anchor="middle" x="1540.0044" y="-805.8644" font-family="Roboto Mono" font-size="10.00" fill="#555555">access to</text>
</g>
<!-- iam_role -->
<g id="node22" class="node">
<title>iam_role</title>
<ellipse fill="#f3bb44" stroke="#f3bb44" cx="1484" cy="-1002.736" rx="35.1529" ry="31.5391"/>
<text text-anchor="middle" x="1484" y="-1009.9998" font-family="Roboto Mono" font-size="14.00" fill="#000000">IAM</text>
<text text-anchor="middle" x="1484" y="-991.536" font-family="Roboto Mono" font-size="14.00" fill="#000000">Role</text>
</g>
<!-- iam_role&#45;&gt;iam_policy -->
<g id="edge34" class="edge">
<title>iam_role&#45;&gt;iam_policy</title>
<path fill="none" stroke="#555555" d="M1496.0863,-972.896C1502.7967,-956.3286 1511.2396,-935.4839 1518.5447,-917.4482"/>
<polygon fill="#555555" stroke="#555555" points="1521.9577,-918.3448 1522.4679,-907.7623 1515.4697,-915.7169 1521.9577,-918.3448"/>
<text text-anchor="middle" x="1523.0015" y="-938.373" font-family="Roboto Mono" font-size="10.00" fill="#555555">has</text>
</g>
<!-- iam_user -->
<g id="node23" class="node">
<title>iam_user</title>
<ellipse fill="#f3bb44" stroke="#f3bb44" cx="1617" cy="-1141.8388" rx="35.1529" ry="31.5391"/>
<text text-anchor="middle" x="1617" y="-1149.1027" font-family="Roboto Mono" font-size="14.00" fill="#000000">IAM</text>
<text text-anchor="middle" x="1617" y="-1130.6388" font-family="Roboto Mono" font-size="14.00" fill="#000000">User</text>
</g>
<!-- iam_user&#45;&gt;iam_group -->
<g id="edge35" class="edge">
<title>iam_user&#45;&gt;iam_group</title>
<path fill="none" stroke="#555555" d="M1594.7582,-1117.1412C1589.2358,-1109.6047 1584.0306,-1100.9491 1580.9902,-1092.0701 1575.8845,-1077.1595 1574.3593,-1060.0192 1574.3773,-1044.7652"/>
<polygon fill="#555555" stroke="#555555" points="1577.8811,-1044.6343 1574.6112,-1034.5567 1570.883,-1044.4738 1577.8811,-1044.6343"/>
<text text-anchor="middle" x="1610.0049" y="-1070.8816" font-family="Roboto Mono" font-size="10.00" fill="#555555">belongs to</text>
</g>
<!-- iam_user&#45;&gt;iam_policy -->
<g id="edge36" class="edge">
<title>iam_user&#45;&gt;iam_policy</title>
<path fill="none" stroke="#555555" d="M1633.3788,-1113.4305C1636.5276,-1106.6423 1639.3545,-1099.2708 1641,-1092.0701 1653.0597,-1039.2978 1652.4528,-1019.2623 1628,-970.9673 1615.4125,-946.1065 1593.8766,-923.6699 1574.6971,-906.941"/>
<polygon fill="#555555" stroke="#555555" points="1576.8247,-904.1563 1566.9333,-900.3601 1572.2984,-909.4961 1576.8247,-904.1563"/>
<text text-anchor="middle" x="1657.0015" y="-1001.3302" font-family="Roboto Mono" font-size="10.00" fill="#555555">has</text>
</g>
<!-- route_53_zone&#45;&gt;ec2_instance -->
<g id="edge46" class="edge">
<title>route_53_zone&#45;&gt;ec2_instance</title>
<path fill="none" stroke="#555555" d="M515.1483,-604.6535C515.5038,-681.0762 516.4045,-874.7157 516.804,-960.6018"/>
<polygon fill="#555555" stroke="#555555" points="513.3047,-960.7863 516.8513,-970.7698 520.3047,-960.7536 513.3047,-960.7863"/>
<text text-anchor="middle" x="544.0068" y="-812.4587" font-family="Roboto Mono" font-size="10.00" fill="#555555">refers to</text>
</g>
<!-- route_53_zone&#45;&gt;elb -->
<g id="edge47" class="edge">
<title>route_53_zone&#45;&gt;elb</title>
<path fill="none" stroke="#555555" d="M471.6557,-551.1699C464.7528,-547.7542 457.6855,-544.2714 451,-541.0005 405.7867,-518.8794 386.3489,-525.5407 348.9863,-491.812 307.9486,-454.7656 278.2705,-396.3091 263.215,-361.9427"/>
<polygon fill="#555555" stroke="#555555" points="266.3342,-360.3347 259.1871,-352.5136 259.8969,-363.0846 266.3342,-360.3347"/>
<text text-anchor="middle" x="376.0068" y="-458.6375" font-family="Roboto Mono" font-size="10.00" fill="#555555">refers to</text>
</g>
<!-- route_53_zone&#45;&gt;s3_bucket -->
<g id="edge48" class="edge">
<title>route_53_zone&#45;&gt;s3_bucket</title>
<path fill="none" stroke="#555555" d="M543.7058,-545.0057C550.556,-538.0059 557.7027,-530.3788 564,-523.0005 575.1811,-509.9001 579.1367,-507.1353 587,-491.812 606.1427,-454.5082 620.0178,-408.5781 628.4193,-375.9309"/>
<polygon fill="#555555" stroke="#555555" points="631.9159,-376.3768 630.9545,-365.8257 625.1263,-374.6734 631.9159,-376.3768"/>
<text text-anchor="middle" x="640.0068" y="-458.6375" font-family="Roboto Mono" font-size="10.00" fill="#555555">refers to</text>
</g>
<!-- route_53_zone&#45;&gt;cloudfront_distribution -->
<g id="edge45" class="edge">
<title>route_53_zone&#45;&gt;cloudfront_distribution</title>
<path fill="none" stroke="#555555" d="M509.3757,-541.0687C507.2241,-528.9421 504.736,-514.9183 502.4407,-501.9814"/>
<polygon fill="#555555" stroke="#555555" points="505.8446,-501.1311 500.6514,-491.8963 498.9523,-502.354 505.8446,-501.1311"/>
<text text-anchor="middle" x="533.0068" y="-515.0005" font-family="Roboto Mono" font-size="10.00" fill="#555555">refers to</text>
</g>
</g>
</svg>
