<?xml version="1.0" encoding="UTF-8" standalone="no"?>
<!DOCTYPE svg PUBLIC "-//W3C//DTD SVG 1.1//EN"
 "http://www.w3.org/Graphics/SVG/1.1/DTD/svg11.dtd">
<!-- Generated by graphviz version 2.40.1 (20161225.0304)
 -->
<!-- Title: %3 Pages: 1 -->
<svg width="1674pt" height="1195pt"
 viewBox="0.00 0.00 1674.00 1194.80" xmlns="http://www.w3.org/2000/svg" xmlns:xlink="http://www.w3.org/1999/xlink">
<g id="graph0" class="graph" transform="scale(1 1) rotate(0) translate(4 1190.796)">
<title>%3</title>
<polygon fill="#ffffff" stroke="transparent" points="-4,4 -4,-1190.796 1670.0029,-1190.796 1670.0029,4 -4,4"/>
<!-- api_gateway_api -->
<g id="node1" class="node">
<title>api_gateway_api</title>
<ellipse fill="#f3bb44" stroke="#f3bb44" cx="357" cy="-1155.0273" rx="76.8224" ry="31.5391"/>
<text text-anchor="middle" x="357" y="-1162.2911" font-family="Roboto Mono" font-size="14.00" fill="#000000">API Gateway</text>
<text text-anchor="middle" x="357" y="-1143.8273" font-family="Roboto Mono" font-size="14.00" fill="#000000">API</text>
</g>
<!-- ec2_instance -->
<g id="node2" class="node">
<title>ec2_instance</title>
<ellipse fill="#f3bb44" stroke="#f3bb44" cx="537" cy="-1015.9244" rx="58.6785" ry="31.5391"/>
<text text-anchor="middle" x="537" y="-1023.1883" font-family="Roboto Mono" font-size="14.00" fill="#000000">EC2</text>
<text text-anchor="middle" x="537" y="-1004.7244" font-family="Roboto Mono" font-size="14.00" fill="#000000">Instance</text>
</g>
<!-- api_gateway_api&#45;&gt;ec2_instance -->
<g id="edge1" class="edge">
<title>api_gateway_api&#45;&gt;ec2_instance</title>
<path fill="none" stroke="#555555" d="M393.4257,-1126.8777C422.8475,-1104.1407 464.2794,-1072.1225 495.0782,-1048.3213"/>
<polygon fill="#555555" stroke="#555555" points="497.2917,-1051.0342 503.0641,-1042.1499 493.0113,-1045.4953 497.2917,-1051.0342"/>
<text text-anchor="middle" x="511.0068" y="-1097.2586" font-family="Roboto Mono" font-size="10.00" fill="#555555">accesses</text>
<text text-anchor="middle" x="511.0068" y="-1084.0701" font-family="Roboto Mono" font-size="10.00" fill="#555555">(via internal</text>
<text text-anchor="middle" x="511.0068" y="-1070.8816" font-family="Roboto Mono" font-size="10.00" fill="#555555">HTTP endpoint)</text>
</g>
<!-- elb -->
<g id="node3" class="node">
<title>elb</title>
<ellipse fill="#f3bb44" stroke="#f3bb44" cx="251" cy="-334.1289" rx="29.272" ry="18.928"/>
<text text-anchor="middle" x="251" y="-332.1608" font-family="Roboto Mono" font-size="14.00" fill="#000000">ELB</text>
</g>
<!-- api_gateway_api&#45;&gt;elb -->
<g id="edge2" class="edge">
<title>api_gateway_api&#45;&gt;elb</title>
<path fill="none" stroke="#555555" d="M285.231,-1143.7715C215.7985,-1128.3184 121,-1093.0902 121,-1015.9244 121,-1015.9244 121,-1015.9244 121,-648.9148 121,-533.4942 196.5883,-411.0647 232.4885,-359.4263"/>
<polygon fill="#555555" stroke="#555555" points="235.3941,-361.3792 238.2984,-351.1901 229.6741,-357.3442 235.3941,-361.3792"/>
<text text-anchor="middle" x="145.0039" y="-736.5781" font-family="Roboto Mono" font-size="10.00" fill="#555555">accesses</text>
</g>
<!-- lambda_function -->
<g id="node4" class="node">
<title>lambda_function</title>
<ellipse fill="#f3bb44" stroke="#f3bb44" cx="1000" cy="-204.9968" rx="58.6785" ry="31.5391"/>
<text text-anchor="middle" x="1000" y="-212.2606" font-family="Roboto Mono" font-size="14.00" fill="#000000">Lambda</text>
<text text-anchor="middle" x="1000" y="-193.7968" font-family="Roboto Mono" font-size="14.00" fill="#000000">Function</text>
</g>
<!-- api_gateway_api&#45;&gt;lambda_function -->
<g id="edge3" class="edge">
<title>api_gateway_api&#45;&gt;lambda_function</title>
<path fill="none" stroke="#555555" d="M432.903,-1149.9927C574.339,-1138.5159 864,-1104.2317 864,-1015.9244 864,-1015.9244 864,-1015.9244 864,-827.0529 864,-741.9026 847.9493,-720.6619 853.9922,-635.7264 858.004,-579.3375 858.3361,-564.6672 872,-509.812 901.1262,-392.8817 907.6917,-361.3038 964,-254.7655 966.103,-250.7865 968.491,-246.7669 971.0128,-242.8281"/>
<polygon fill="#555555" stroke="#555555" points="974.0161,-244.6341 976.6889,-234.3819 968.2061,-240.7296 974.0161,-244.6341"/>
<text text-anchor="middle" x="877.0039" y="-647.5091" font-family="Roboto Mono" font-size="10.00" fill="#555555">triggers</text>
</g>
<!-- region -->
<g id="node5" class="node">
<title>region</title>
<ellipse fill="#f3bb44" stroke="#f3bb44" cx="919" cy="-18.7128" rx="46.9154" ry="18.928"/>
<text text-anchor="middle" x="919" y="-16.7447" font-family="Roboto Mono" font-size="14.00" fill="#000000">Region</text>
</g>
<!-- api_gateway_api&#45;&gt;region -->
<g id="edge4" class="edge">
<title>api_gateway_api&#45;&gt;region</title>
<path fill="none" stroke="#555555" d="M283.5981,-1145.6213C239.0595,-1138.2297 181.7856,-1125.676 134,-1105.2586 68.1794,-1077.1353 0,-1087.5015 0,-1015.9244 0,-1015.9244 0,-1015.9244 0,-105.3268 0,-61.8128 661.6796,-29.7824 862.1316,-21.0774"/>
<polygon fill="#555555" stroke="#555555" points="862.3234,-24.5725 872.1632,-20.6445 862.0216,-17.579 862.3234,-24.5725"/>
<text text-anchor="middle" x="30.0049" y="-521.5947" font-family="Roboto Mono" font-size="10.00" fill="#555555">belongs to</text>
</g>
<!-- s3_bucket -->
<g id="node6" class="node">
<title>s3_bucket</title>
<ellipse fill="#f3bb44" stroke="#f3bb44" cx="641" cy="-334.1289" rx="46.9154" ry="31.5391"/>
<text text-anchor="middle" x="641" y="-341.3928" font-family="Roboto Mono" font-size="14.00" fill="#000000">S3</text>
<text text-anchor="middle" x="641" y="-322.9289" font-family="Roboto Mono" font-size="14.00" fill="#000000">Bucket</text>
</g>
<!-- api_gateway_api&#45;&gt;s3_bucket -->
<g id="edge5" class="edge">
<title>api_gateway_api&#45;&gt;s3_bucket</title>
<path fill="none" stroke="#555555" d="M431.0915,-1146.5708C554.3208,-1130.4224 788,-1090.0304 788,-1015.9244 788,-1015.9244 788,-1015.9244 788,-460.0433 788,-432.6141 728.2195,-388.9629 684.9034,-360.9341"/>
<polygon fill="#555555" stroke="#555555" points="686.5203,-357.8136 676.2102,-355.3739 682.7486,-363.7106 686.5203,-357.8136"/>
<text text-anchor="middle" x="812.0039" y="-736.5781" font-family="Roboto Mono" font-size="10.00" fill="#555555">accesses</text>
</g>
<!-- service -->
<g id="node7" class="node">
<title>service</title>
<ellipse fill="#f3bb44" stroke="#f3bb44" cx="1473" cy="-737.9839" rx="124.3729" ry="57.7614"/>
<text text-anchor="middle" x="1473" y="-763.7116" font-family="Roboto Mono" font-size="14.00" fill="#000000">&quot;Service&quot;</text>
<text text-anchor="middle" x="1473" y="-745.2477" font-family="Roboto Mono" font-size="14.00" fill="#000000">(not linking to</text>
<text text-anchor="middle" x="1473" y="-726.7839" font-family="Roboto Mono" font-size="14.00" fill="#000000">the actual services</text>
<text text-anchor="middle" x="1473" y="-708.32" font-family="Roboto Mono" font-size="14.00" fill="#000000">for clarity sake)</text>
</g>
<!-- api_gateway_api&#45;&gt;service -->
<g id="edge6" class="edge">
<title>api_gateway_api&#45;&gt;service</title>
<path fill="none" stroke="#555555" d="M433.3511,-1151.2164C557.2903,-1144.4465 796.6017,-1128.7846 878,-1105.2586 1129.0994,-1032.685 1206.3226,-1012.392 1403,-840.2414 1415.3338,-829.4457 1426.5262,-816.0188 1436.1643,-802.483"/>
<polygon fill="#555555" stroke="#555555" points="1439.1729,-804.285 1441.9607,-794.0635 1433.4072,-800.3155 1439.1729,-804.285"/>
<text text-anchor="middle" x="1302.0039" y="-951.5615" font-family="Roboto Mono" font-size="10.00" fill="#555555">accesses</text>
</g>
<!-- compute_instance -->
<g id="node11" class="node">
<title>compute_instance</title>
<ellipse fill="#f3bb44" stroke="#f3bb44" cx="963" cy="-890.0101" rx="64.5601" ry="31.5391"/>
<text text-anchor="middle" x="963" y="-897.2739" font-family="Roboto Mono" font-size="14.00" fill="#000000">&quot;Compute</text>
<text text-anchor="middle" x="963" y="-878.8101" font-family="Roboto Mono" font-size="14.00" fill="#000000">Instance&quot;</text>
</g>
<!-- ec2_instance&#45;&gt;compute_instance -->
<g id="edge21" class="edge">
<title>ec2_instance&#45;&gt;compute_instance</title>
<path fill="none" stroke="#555555" d="M595.4351,-1011.0226C677.6695,-1003.4811 822.8815,-987.6241 871,-966.1557 892.1532,-956.7181 912.3649,-941.016 928.4283,-926.3144"/>
<polygon fill="#555555" stroke="#555555" points="931.09,-928.6153 935.9666,-919.2095 926.2888,-923.5213 931.09,-928.6153"/>
<text text-anchor="middle" x="924.002" y="-951.5615" font-family="Roboto Mono" font-size="10.00" fill="#555555">is a</text>
</g>
<!-- ec2_security_group -->
<g id="node16" class="node">
<title>ec2_security_group</title>
<ellipse fill="#f3bb44" stroke="#f3bb44" cx="122" cy="-204.9968" rx="94.466" ry="31.5391"/>
<text text-anchor="middle" x="122" y="-212.2606" font-family="Roboto Mono" font-size="14.00" fill="#000000">EC2</text>
<text text-anchor="middle" x="122" y="-193.7968" font-family="Roboto Mono" font-size="14.00" fill="#000000">Security Group</text>
</g>
<!-- ec2_instance&#45;&gt;ec2_security_group -->
<g id="edge22" class="edge">
<title>ec2_instance&#45;&gt;ec2_security_group</title>
<path fill="none" stroke="#555555" d="M488.4501,-997.9358C468.8709,-989.6361 446.5697,-978.8023 428,-966.1557 404.5205,-950.1654 398.385,-944.9845 382,-921.7788 351.6179,-878.7492 374.5696,-846.2155 333,-813.8644 297.3618,-786.1294 266.02,-826.6701 233,-795.8644 152.6313,-720.8853 129.3725,-369.3556 123.6514,-247.0611"/>
<polygon fill="#555555" stroke="#555555" points="127.1431,-246.7964 123.1949,-236.9647 120.1502,-247.1126 127.1431,-246.7964"/>
<text text-anchor="middle" x="173.0015" y="-584.5519" font-family="Roboto Mono" font-size="10.00" fill="#555555">has</text>
</g>
<!-- vpc_subnet -->
<g id="node17" class="node">
<title>vpc_subnet</title>
<ellipse fill="#f3bb44" stroke="#f3bb44" cx="753" cy="-334.1289" rx="46.9154" ry="31.5391"/>
<text text-anchor="middle" x="753" y="-341.3928" font-family="Roboto Mono" font-size="14.00" fill="#000000">VPC</text>
<text text-anchor="middle" x="753" y="-322.9289" font-family="Roboto Mono" font-size="14.00" fill="#000000">Subnet</text>
</g>
<!-- ec2_instance&#45;&gt;vpc_subnet -->
<g id="edge23" class="edge">
<title>ec2_instance&#45;&gt;vpc_subnet</title>
<path fill="none" stroke="#555555" d="M572.3511,-990.2376C611.1951,-959.5893 671.3463,-904.3645 696,-840.2414 728.7452,-755.0728 700.9809,-726.0407 713.9902,-635.7264 720.4237,-591.0634 727.4322,-580.8323 734,-536.1889 742.0909,-481.1925 747.4255,-417.2404 750.3282,-376.2584"/>
<polygon fill="#555555" stroke="#555555" points="753.8324,-376.3172 751.0311,-366.0994 746.8491,-375.8339 753.8324,-376.3172"/>
<text text-anchor="middle" x="744.0049" y="-647.5091" font-family="Roboto Mono" font-size="10.00" fill="#555555">belongs to</text>
</g>
<!-- elb&#45;&gt;ec2_instance -->
<g id="edge25" class="edge">
<title>elb&#45;&gt;ec2_instance</title>
<path fill="none" stroke="#555555" d="M244.4179,-352.6571C227.3155,-403.8503 185.5902,-550.8003 226.9873,-662.1033 242.5185,-703.8616 332.2286,-777.5214 358,-813.8644 389.996,-858.9855 389.6659,-875.5241 420,-921.7788 433.4789,-942.3319 434.736,-949.7077 453,-966.1557 462.442,-974.6589 473.5567,-982.4496 484.555,-989.2159"/>
<polygon fill="#555555" stroke="#555555" points="482.9306,-992.3219 493.3162,-994.4169 486.5039,-986.3026 482.9306,-992.3219"/>
<text text-anchor="middle" x="266.0063" y="-654.1033" font-family="Roboto Mono" font-size="10.00" fill="#555555">accesses (via</text>
<text text-anchor="middle" x="266.0063" y="-640.9148" font-family="Roboto Mono" font-size="10.00" fill="#555555">internal IP)</text>
</g>
<!-- elb&#45;&gt;ec2_security_group -->
<g id="edge26" class="edge">
<title>elb&#45;&gt;ec2_security_group</title>
<path fill="none" stroke="#555555" d="M235.1821,-318.2948C216.4444,-299.5379 184.6021,-267.663 159.4562,-242.4914"/>
<polygon fill="#555555" stroke="#555555" points="161.768,-239.8532 152.2244,-235.2521 156.8157,-244.8005 161.768,-239.8532"/>
<text text-anchor="middle" x="208.0015" y="-268.1571" font-family="Roboto Mono" font-size="10.00" fill="#555555">has</text>
</g>
<!-- vpc -->
<g id="node18" class="node">
<title>vpc</title>
<ellipse fill="#f3bb44" stroke="#f3bb44" cx="363" cy="-105.3268" rx="29.272" ry="18.928"/>
<text text-anchor="middle" x="363" y="-103.3587" font-family="Roboto Mono" font-size="14.00" fill="#000000">VPC</text>
</g>
<!-- elb&#45;&gt;vpc -->
<g id="edge27" class="edge">
<title>elb&#45;&gt;vpc</title>
<path fill="none" stroke="#555555" d="M247.9676,-315.5021C243.8026,-283.8805 239.5564,-218.7074 265.9902,-173.2281 280.1818,-148.8116 307.0775,-131.047 328.9561,-119.8261"/>
<polygon fill="#555555" stroke="#555555" points="330.5272,-122.954 337.9738,-115.4175 327.4527,-116.6652 330.5272,-122.954"/>
<text text-anchor="middle" x="296.0049" y="-203.591" font-family="Roboto Mono" font-size="10.00" fill="#555555">belongs to</text>
</g>
<!-- lambda_function&#45;&gt;region -->
<g id="edge44" class="edge">
<title>lambda_function&#45;&gt;region</title>
<path fill="none" stroke="#555555" d="M986.4424,-173.817C970.9891,-138.2774 945.958,-80.7108 931.1273,-46.6031"/>
<polygon fill="#555555" stroke="#555555" points="934.2498,-45.0069 927.0525,-37.232 927.8304,-47.7982 934.2498,-45.0069"/>
<text text-anchor="middle" x="993.0049" y="-103.9211" font-family="Roboto Mono" font-size="10.00" fill="#555555">belongs to</text>
</g>
<!-- lambda_function&#45;&gt;compute_instance -->
<g id="edge43" class="edge">
<title>lambda_function&#45;&gt;compute_instance</title>
<path fill="none" stroke="#555555" d="M1001.6756,-237.0206C1004.4878,-292.5393 1010.0413,-410.2659 1012,-509.812 1014.9052,-657.4625 1005.5299,-695.3444 977,-840.2414 976.4736,-842.915 975.8751,-845.6545 975.2291,-848.4065"/>
<polygon fill="#555555" stroke="#555555" points="971.7776,-847.7799 972.7254,-858.3323 978.565,-849.492 971.7776,-847.7799"/>
<text text-anchor="middle" x="1024.002" y="-521.5947" font-family="Roboto Mono" font-size="10.00" fill="#555555">is a</text>
</g>
<!-- s3_bucket&#45;&gt;lambda_function -->
<g id="edge50" class="edge">
<title>s3_bucket&#45;&gt;lambda_function</title>
<path fill="none" stroke="#555555" d="M665.7239,-306.7357C683.8177,-288.645 710.0075,-266.2329 737.9922,-254.7655 818.5311,-221.7626 849.0547,-259.7635 933,-236.7655 938.2767,-235.3199 943.648,-233.4786 948.937,-231.413"/>
<polygon fill="#555555" stroke="#555555" points="950.4518,-234.5734 958.3302,-227.4895 947.7538,-228.1142 950.4518,-234.5734"/>
<text text-anchor="middle" x="762.0039" y="-268.1571" font-family="Roboto Mono" font-size="10.00" fill="#555555">triggers</text>
</g>
<!-- s3_bucket&#45;&gt;region -->
<g id="edge51" class="edge">
<title>s3_bucket&#45;&gt;region</title>
<path fill="none" stroke="#555555" d="M598.7994,-320.1937C556.8712,-306.2518 498.5684,-286.5616 497,-284.3602 483.1355,-264.8992 478.569,-207.5886 505,-173.2281 550.7311,-113.7772 768.131,-54.9999 868.2763,-30.5509"/>
<polygon fill="#555555" stroke="#555555" points="869.2728,-33.9108 878.1677,-28.1548 867.6247,-27.1076 869.2728,-33.9108"/>
<text text-anchor="middle" x="573.0049" y="-147.2281" font-family="Roboto Mono" font-size="10.00" fill="#555555">belongs to</text>
</g>
<!-- data_instance -->
<g id="node12" class="node">
<title>data_instance</title>
<ellipse fill="#f3bb44" stroke="#f3bb44" cx="579" cy="-204.9968" rx="64.5601" ry="31.5391"/>
<text text-anchor="middle" x="579" y="-212.2606" font-family="Roboto Mono" font-size="14.00" fill="#000000">&quot;Data</text>
<text text-anchor="middle" x="579" y="-193.7968" font-family="Roboto Mono" font-size="14.00" fill="#000000">Instance&quot;</text>
</g>
<!-- s3_bucket&#45;&gt;data_instance -->
<g id="edge49" class="edge">
<title>s3_bucket&#45;&gt;data_instance</title>
<path fill="none" stroke="#555555" d="M638.0505,-302.3245C635.708,-287.2797 631.5115,-269.4412 624,-254.7655 621.6391,-250.1527 618.7398,-245.6403 615.5607,-241.3326"/>
<polygon fill="#555555" stroke="#555555" points="618.1446,-238.9594 609.17,-233.3285 612.6743,-243.327 618.1446,-238.9594"/>
<text text-anchor="middle" x="647.002" y="-268.1571" font-family="Roboto Mono" font-size="10.00" fill="#555555">is a</text>
</g>
<!-- availability_zone -->
<g id="node8" class="node">
<title>availability_zone</title>
<ellipse fill="#f3bb44" stroke="#f3bb44" cx="841" cy="-204.9968" rx="82.7035" ry="31.5391"/>
<text text-anchor="middle" x="841" y="-212.2606" font-family="Roboto Mono" font-size="14.00" fill="#000000">Availability</text>
<text text-anchor="middle" x="841" y="-193.7968" font-family="Roboto Mono" font-size="14.00" fill="#000000">Zone</text>
</g>
<!-- availability_zone&#45;&gt;region -->
<g id="edge7" class="edge">
<title>availability_zone&#45;&gt;region</title>
<path fill="none" stroke="#555555" d="M852.179,-173.2844C860.8551,-149.2673 873.4762,-115.5772 885.9902,-86.614 891.7744,-73.2269 898.7657,-58.6509 904.8225,-46.4478"/>
<polygon fill="#555555" stroke="#555555" points="908.0867,-47.7463 909.4387,-37.238 901.8288,-44.6096 908.0867,-47.7463"/>
<text text-anchor="middle" x="915.0049" y="-103.9211" font-family="Roboto Mono" font-size="10.00" fill="#555555">belongs to</text>
</g>
<!-- cloudfront_distribution -->
<g id="node9" class="node">
<title>cloudfront_distribution</title>
<ellipse fill="#f3bb44" stroke="#f3bb44" cx="511" cy="-460.0433" rx="82.7035" ry="31.5391"/>
<text text-anchor="middle" x="511" y="-467.3071" font-family="Roboto Mono" font-size="14.00" fill="#000000">CloudFront</text>
<text text-anchor="middle" x="511" y="-448.8433" font-family="Roboto Mono" font-size="14.00" fill="#000000">Distribution</text>
</g>
<!-- cloudfront_distribution&#45;&gt;api_gateway_api -->
<g id="edge8" class="edge">
<title>cloudfront_distribution&#45;&gt;api_gateway_api</title>
<path fill="none" stroke="#555555" d="M451.5747,-482.1838C437.1535,-489.4613 422.573,-498.6256 411,-509.812 308.2037,-609.174 325.7134,-672.2646 305.9805,-813.8644 290.8765,-922.2477 323.3266,-1049.7204 343.1406,-1113.8142"/>
<polygon fill="#555555" stroke="#555555" points="339.8622,-1115.0562 346.2029,-1123.5441 346.5393,-1112.9546 339.8622,-1115.0562"/>
<text text-anchor="middle" x="351.0098" y="-832.2414" font-family="Roboto Mono" font-size="10.00" fill="#555555">accesses (if</text>
<text text-anchor="middle" x="351.0098" y="-819.0529" font-family="Roboto Mono" font-size="10.00" fill="#555555">edge&#45;optimized)</text>
</g>
<!-- cloudfront_distribution&#45;&gt;ec2_instance -->
<g id="edge9" class="edge">
<title>cloudfront_distribution&#45;&gt;ec2_instance</title>
<path fill="none" stroke="#555555" d="M553.8255,-487.2304C561.7431,-493.8305 569.2995,-501.4331 575,-509.812 610.684,-562.2626 607,-585.4766 607,-648.9148 607,-890.0101 607,-890.0101 607,-890.0101 607,-923.1224 588.2788,-955.6618 570.1999,-979.3651"/>
<polygon fill="#555555" stroke="#555555" points="567.3275,-977.3545 563.8636,-987.3672 572.8154,-981.7 567.3275,-977.3545"/>
<text text-anchor="middle" x="646.0063" y="-743.1723" font-family="Roboto Mono" font-size="10.00" fill="#555555">accesses (via</text>
<text text-anchor="middle" x="646.0063" y="-729.9839" font-family="Roboto Mono" font-size="10.00" fill="#555555">public IP)</text>
</g>
<!-- cloudfront_distribution&#45;&gt;elb -->
<g id="edge10" class="edge">
<title>cloudfront_distribution&#45;&gt;elb</title>
<path fill="none" stroke="#555555" d="M472.4953,-431.8919C450.0708,-416.354 420.8127,-397.5076 393,-383.8976 358.577,-367.053 316.9745,-353.1704 287.7255,-344.3868"/>
<polygon fill="#555555" stroke="#555555" points="288.5086,-340.9687 277.9269,-341.496 286.5279,-347.6827 288.5086,-340.9687"/>
<text text-anchor="middle" x="476.0063" y="-402.2746" font-family="Roboto Mono" font-size="10.00" fill="#555555">accesses (via</text>
<text text-anchor="middle" x="476.0063" y="-389.0861" font-family="Roboto Mono" font-size="10.00" fill="#555555">public IP)</text>
</g>
<!-- cloudfront_distribution&#45;&gt;s3_bucket -->
<g id="edge11" class="edge">
<title>cloudfront_distribution&#45;&gt;s3_bucket</title>
<path fill="none" stroke="#555555" d="M519.2907,-428.3333C524.4486,-413.4514 532.3654,-396.304 543.9883,-383.8976 556.4295,-370.6177 573.207,-360.2934 589.3096,-352.5776"/>
<polygon fill="#555555" stroke="#555555" points="591.0111,-355.6492 598.6747,-348.3334 588.1216,-349.2733 591.0111,-355.6492"/>
<text text-anchor="middle" x="580.0059" y="-402.2746" font-family="Roboto Mono" font-size="10.00" fill="#555555">accesses</text>
<text text-anchor="middle" x="580.0059" y="-389.0861" font-family="Roboto Mono" font-size="10.00" fill="#555555">(internally)</text>
</g>
<!-- cloudwatch_events_rule -->
<g id="node10" class="node">
<title>cloudwatch_events_rule</title>
<ellipse fill="#f3bb44" stroke="#f3bb44" cx="1216" cy="-334.1289" rx="76.8224" ry="31.5391"/>
<text text-anchor="middle" x="1216" y="-341.3928" font-family="Roboto Mono" font-size="14.00" fill="#000000">CloudWatch</text>
<text text-anchor="middle" x="1216" y="-322.9289" font-family="Roboto Mono" font-size="14.00" fill="#000000">Events Rule</text>
</g>
<!-- cloudwatch_events_rule&#45;&gt;lambda_function -->
<g id="edge12" class="edge">
<title>cloudwatch_events_rule&#45;&gt;lambda_function</title>
<path fill="none" stroke="#555555" d="M1164.787,-310.3315C1149.1601,-302.5557 1132.1169,-293.5449 1116.9863,-284.3602 1097.7795,-272.7011 1094.5113,-267.5 1076,-254.7655 1066.5529,-248.2666 1056.342,-241.4449 1046.5631,-235.0081"/>
<polygon fill="#555555" stroke="#555555" points="1048.393,-232.0227 1038.1107,-229.4683 1044.5558,-237.8773 1048.393,-232.0227"/>
<text text-anchor="middle" x="1158.0068" y="-276.3602" font-family="Roboto Mono" font-size="10.00" fill="#555555">triggers (when</text>
<text text-anchor="middle" x="1158.0068" y="-263.1717" font-family="Roboto Mono" font-size="10.00" fill="#555555">scheduled ⏰)</text>
</g>
<!-- cloudwatch_events_rule&#45;&gt;region -->
<g id="edge13" class="edge">
<title>cloudwatch_events_rule&#45;&gt;region</title>
<path fill="none" stroke="#555555" d="M1260.0723,-307.9538C1267.7273,-301.2804 1274.6248,-293.3921 1279,-284.3602 1318.1296,-203.5822 1306.2208,-144.9419 1238,-86.614 1198.9982,-53.268 1055.3196,-33.1035 974.7369,-24.1706"/>
<polygon fill="#555555" stroke="#555555" points="975.0764,-20.687 964.7567,-23.086 974.32,-27.646 975.0764,-20.687"/>
<text text-anchor="middle" x="1321.0049" y="-147.2281" font-family="Roboto Mono" font-size="10.00" fill="#555555">belongs to</text>
</g>
<!-- compute_instance&#45;&gt;ec2_instance -->
<g id="edge15" class="edge">
<title>compute_instance&#45;&gt;ec2_instance</title>
<path fill="none" stroke="#555555" d="M907.5094,-906.4116C827.8383,-929.9603 681.5279,-973.2058 598.6003,-997.717"/>
<polygon fill="#555555" stroke="#555555" points="597.4078,-994.4197 588.8101,-1000.6108 599.392,-1001.1326 597.4078,-994.4197"/>
<text text-anchor="middle" x="828.0063" y="-958.1557" font-family="Roboto Mono" font-size="10.00" fill="#555555">accesses (via</text>
<text text-anchor="middle" x="828.0063" y="-944.9673" font-family="Roboto Mono" font-size="10.00" fill="#555555">internal IP)</text>
</g>
<!-- compute_instance&#45;&gt;lambda_function -->
<g id="edge17" class="edge">
<title>compute_instance&#45;&gt;lambda_function</title>
<path fill="none" stroke="#555555" d="M963,-857.9787C963,-827.2125 963,-779.4216 963,-737.9839 963,-737.9839 963,-737.9839 963,-334.1289 963,-298.3117 966.2869,-288.943 977,-254.7655 977.9822,-251.632 979.1174,-248.4391 980.3465,-245.2599"/>
<polygon fill="#555555" stroke="#555555" points="983.6571,-246.4137 984.2565,-235.8358 977.1915,-243.7311 983.6571,-246.4137"/>
<text text-anchor="middle" x="987.0039" y="-521.5947" font-family="Roboto Mono" font-size="10.00" fill="#555555">triggers</text>
</g>
<!-- compute_instance&#45;&gt;service -->
<g id="edge18" class="edge">
<title>compute_instance&#45;&gt;service</title>
<path fill="none" stroke="#555555" d="M1027.7116,-886.7485C1119.1579,-881.2238 1280.7762,-867.8246 1332,-840.2414 1345.6926,-832.8681 1343.2253,-824.0327 1354.9922,-813.8644 1364.9053,-805.298 1375.8624,-796.9815 1386.9872,-789.1881"/>
<polygon fill="#555555" stroke="#555555" points="1389.2495,-791.8804 1395.5125,-783.3349 1385.2875,-786.1096 1389.2495,-791.8804"/>
<text text-anchor="middle" x="1378.0039" y="-825.6471" font-family="Roboto Mono" font-size="10.00" fill="#555555">accesses</text>
</g>
<!-- compute_instance&#45;&gt;data_instance -->
<g id="edge14" class="edge">
<title>compute_instance&#45;&gt;data_instance</title>
<path fill="none" stroke="#555555" d="M956.4565,-858.3746C930.5854,-734.8564 834.3041,-290.1392 782,-254.7655 732.5892,-221.3485 706.3223,-253.2662 649,-236.7655 643.9983,-235.3257 638.8959,-233.5873 633.8396,-231.6746"/>
<polygon fill="#555555" stroke="#555555" points="634.7958,-228.2872 624.2115,-227.8145 632.1908,-234.7845 634.7958,-228.2872"/>
<text text-anchor="middle" x="906.0039" y="-521.5947" font-family="Roboto Mono" font-size="10.00" fill="#555555">accesses</text>
</g>
<!-- internet -->
<g id="node13" class="node">
<title>internet</title>
<ellipse fill="#aaddff" stroke="#aaddff" cx="412" cy="-737.9839" rx="58.6785" ry="34.9083"/>
<text text-anchor="middle" x="412" y="-747.5002" font-family="Roboto Mono" font-size="14.00" fill="#000000">️️Internet</text>
<text text-anchor="middle" x="412" y="-729.0363" font-family="Roboto Mono" font-size="14.00" fill="#000000">☁️</text>
</g>
<!-- compute_instance&#45;&gt;internet -->
<g id="edge16" class="edge">
<title>compute_instance&#45;&gt;internet</title>
<path fill="none" stroke="#555555" d="M904.0129,-876.8363C829.3101,-859.8057 696.8429,-828.4471 585,-795.8644 547.2234,-784.8591 505.3686,-770.9038 472.2909,-759.4537"/>
<polygon fill="#555555" stroke="#555555" points="473.3591,-756.1196 462.7643,-756.1414 471.0602,-762.7314 473.3591,-756.1196"/>
<text text-anchor="middle" x="775.0039" y="-825.6471" font-family="Roboto Mono" font-size="10.00" fill="#555555">accesses</text>
</g>
<!-- sns_topic -->
<g id="node14" class="node">
<title>sns_topic</title>
<ellipse fill="#f3bb44" stroke="#f3bb44" cx="1080" cy="-334.1289" rx="41.0341" ry="31.5391"/>
<text text-anchor="middle" x="1080" y="-341.3928" font-family="Roboto Mono" font-size="14.00" fill="#000000">SNS</text>
<text text-anchor="middle" x="1080" y="-322.9289" font-family="Roboto Mono" font-size="14.00" fill="#000000">Topic</text>
</g>
<!-- compute_instance&#45;&gt;sns_topic -->
<g id="edge19" class="edge">
<title>compute_instance&#45;&gt;sns_topic</title>
<path fill="none" stroke="#555555" d="M1012.2238,-869.3079C1025.3618,-861.7936 1038.5229,-852.1499 1048,-840.2414 1077.6537,-802.9797 1080,-785.605 1080,-737.9839 1080,-737.9839 1080,-737.9839 1080,-460.0433 1080,-432.0213 1080,-400.4915 1080,-375.9928"/>
<polygon fill="#555555" stroke="#555555" points="1083.5001,-375.9546 1080,-365.9546 1076.5001,-375.9546 1083.5001,-375.9546"/>
<text text-anchor="middle" x="1104.0039" y="-584.5519" font-family="Roboto Mono" font-size="10.00" fill="#555555">accesses</text>
</g>
<!-- sqs_queue -->
<g id="node15" class="node">
<title>sqs_queue</title>
<ellipse fill="#f3bb44" stroke="#f3bb44" cx="1227" cy="-204.9968" rx="41.0341" ry="31.5391"/>
<text text-anchor="middle" x="1227" y="-212.2606" font-family="Roboto Mono" font-size="14.00" fill="#000000">SQS</text>
<text text-anchor="middle" x="1227" y="-193.7968" font-family="Roboto Mono" font-size="14.00" fill="#000000">Queue</text>
</g>
<!-- compute_instance&#45;&gt;sqs_queue -->
<g id="edge20" class="edge">
<title>compute_instance&#45;&gt;sqs_queue</title>
<path fill="none" stroke="#555555" d="M1022.9212,-877.516C1124.835,-854.5256 1321,-801.9635 1321,-737.9839 1321,-737.9839 1321,-737.9839 1321,-334.1289 1321,-293.7478 1290.5828,-257.5225 1264.3538,-233.7919"/>
<polygon fill="#555555" stroke="#555555" points="1266.5745,-231.0843 1256.7422,-227.1376 1261.9673,-236.3544 1266.5745,-231.0843"/>
<text text-anchor="middle" x="1345.0039" y="-521.5947" font-family="Roboto Mono" font-size="10.00" fill="#555555">accesses</text>
</g>
<!-- internet&#45;&gt;api_gateway_api -->
<g id="edge37" class="edge">
<title>internet&#45;&gt;api_gateway_api</title>
<path fill="none" stroke="#555555" d="M407.3762,-773.0441C397.3019,-849.4336 373.4058,-1030.6288 362.5444,-1112.9862"/>
<polygon fill="#555555" stroke="#555555" points="359.0621,-1112.6233 361.2244,-1122.9951 366.002,-1113.5386 359.0621,-1112.6233"/>
<text text-anchor="middle" x="410.0039" y="-951.5615" font-family="Roboto Mono" font-size="10.00" fill="#555555">accesses</text>
</g>
<!-- internet&#45;&gt;ec2_instance -->
<g id="edge39" class="edge">
<title>internet&#45;&gt;ec2_instance</title>
<path fill="none" stroke="#555555" d="M412.2541,-773.1199C413.8659,-811.6213 420.4875,-874.2285 444.9873,-921.7788 457.0776,-945.2443 476.9881,-966.6997 495.2011,-983.1824"/>
<polygon fill="#555555" stroke="#555555" points="493.0551,-985.956 502.8751,-989.9333 497.6786,-980.7003 493.0551,-985.956"/>
<text text-anchor="middle" x="484.0063" y="-901.7928" font-family="Roboto Mono" font-size="10.00" fill="#555555">accesses (via</text>
<text text-anchor="middle" x="484.0063" y="-888.6043" font-family="Roboto Mono" font-size="10.00" fill="#555555">public or</text>
<text text-anchor="middle" x="484.0063" y="-875.4158" font-family="Roboto Mono" font-size="10.00" fill="#555555">Elastic IP)</text>
</g>
<!-- internet&#45;&gt;elb -->
<g id="edge40" class="edge">
<title>internet&#45;&gt;elb</title>
<path fill="none" stroke="#555555" d="M377.8263,-709.4458C338.1254,-673.759 275.0015,-608.4981 250.9844,-536.1889 231.343,-477.0542 238.9657,-402.7026 245.4739,-362.7202"/>
<polygon fill="#555555" stroke="#555555" points="248.9239,-363.3092 247.1717,-352.8603 242.0254,-362.1213 248.9239,-363.3092"/>
<text text-anchor="middle" x="284.0078" y="-528.1889" font-family="Roboto Mono" font-size="10.00" fill="#555555">accesses</text>
<text text-anchor="middle" x="284.0078" y="-515.0005" font-family="Roboto Mono" font-size="10.00" fill="#555555">(if public)</text>
</g>
<!-- internet&#45;&gt;s3_bucket -->
<g id="edge42" class="edge">
<title>internet&#45;&gt;s3_bucket</title>
<path fill="none" stroke="#555555" d="M451.9503,-712.2638C474.2079,-697.7746 502.3277,-679.2043 527,-662.1033 554.5545,-643.0046 564.1881,-641.3273 588,-617.7264 630.4014,-575.7005 630.3306,-556.1396 667.9844,-509.812 674.7383,-501.5023 680.1921,-501.8203 684,-491.812 699.1074,-452.1054 681.8359,-404.9086 664.8913,-372.5642"/>
<polygon fill="#555555" stroke="#555555" points="667.7762,-370.5439 659.9145,-363.4415 661.6312,-373.8964 667.7762,-370.5439"/>
<text text-anchor="middle" x="701.0078" y="-528.1889" font-family="Roboto Mono" font-size="10.00" fill="#555555">accesses</text>
<text text-anchor="middle" x="701.0078" y="-515.0005" font-family="Roboto Mono" font-size="10.00" fill="#555555">(if public)</text>
</g>
<!-- internet&#45;&gt;cloudfront_distribution -->
<g id="edge38" class="edge">
<title>internet&#45;&gt;cloudfront_distribution</title>
<path fill="none" stroke="#555555" d="M401.5407,-703.3736C391.942,-665.0587 382.2152,-602.3539 403.9922,-554.1889 415.2416,-529.3081 436.6762,-508.3841 457.4247,-492.6288"/>
<polygon fill="#555555" stroke="#555555" points="459.6204,-495.3591 465.6257,-486.6306 455.488,-489.709 459.6204,-495.3591"/>
<text text-anchor="middle" x="428.0039" y="-584.5519" font-family="Roboto Mono" font-size="10.00" fill="#555555">accesses</text>
</g>
<!-- route_53_zone -->
<g id="node24" class="node">
<title>route_53_zone</title>
<ellipse fill="#f3bb44" stroke="#f3bb44" cx="520" cy="-585.9576" rx="58.6785" ry="31.5391"/>
<text text-anchor="middle" x="520" y="-593.2215" font-family="Roboto Mono" font-size="14.00" fill="#000000">Route 53</text>
<text text-anchor="middle" x="520" y="-574.7576" font-family="Roboto Mono" font-size="14.00" fill="#000000">Zone</text>
</g>
<!-- internet&#45;&gt;route_53_zone -->
<g id="edge41" class="edge">
<title>internet&#45;&gt;route_53_zone</title>
<path fill="none" stroke="#555555" d="M430.3942,-704.7472C442.2431,-684.2416 458.4746,-657.7425 474.9922,-635.7264 478.3567,-631.2418 482.0468,-626.6845 485.8212,-622.2404"/>
<polygon fill="#555555" stroke="#555555" points="488.7205,-624.2408 492.6539,-614.4031 483.4442,-619.6407 488.7205,-624.2408"/>
<text text-anchor="middle" x="499.0039" y="-647.5091" font-family="Roboto Mono" font-size="10.00" fill="#555555">accesses</text>
</g>
<!-- sns_topic&#45;&gt;lambda_function -->
<g id="edge52" class="edge">
<title>sns_topic&#45;&gt;lambda_function</title>
<path fill="none" stroke="#555555" d="M1049.9321,-312.0549C1040.8745,-304.168 1031.5967,-294.6592 1024.9922,-284.3602 1017.7316,-273.0382 1012.4465,-259.4535 1008.6602,-246.7498"/>
<polygon fill="#555555" stroke="#555555" points="1011.955,-245.5296 1005.936,-236.8106 1005.204,-247.3801 1011.955,-245.5296"/>
<text text-anchor="middle" x="1048.0039" y="-268.1571" font-family="Roboto Mono" font-size="10.00" fill="#555555">triggers</text>
</g>
<!-- sns_topic&#45;&gt;region -->
<g id="edge53" class="edge">
<title>sns_topic&#45;&gt;region</title>
<path fill="none" stroke="#555555" d="M1082.466,-302.0258C1084.6298,-250.1563 1081.1081,-147.5864 1027,-86.614 1008.4772,-65.7414 982.0249,-48.9662 959.9359,-37.3115"/>
<polygon fill="#555555" stroke="#555555" points="961.27,-34.063 950.7721,-32.6331 958.0871,-40.2975 961.27,-34.063"/>
<text text-anchor="middle" x="1094.0049" y="-147.2281" font-family="Roboto Mono" font-size="10.00" fill="#555555">belongs to</text>
</g>
<!-- sns_topic&#45;&gt;sqs_queue -->
<g id="edge54" class="edge">
<title>sns_topic&#45;&gt;sqs_queue</title>
<path fill="none" stroke="#555555" d="M1110.3315,-312.6352C1116.6293,-308.8169 1123.3713,-305.1689 1130,-302.3602 1161.5634,-288.9862 1180.3415,-308.1735 1205,-284.3602 1215.0808,-274.6249 1220.6673,-260.7103 1223.7232,-247.2439"/>
<polygon fill="#555555" stroke="#555555" points="1227.2204,-247.5801 1225.5993,-237.11 1220.3373,-246.3057 1227.2204,-247.5801"/>
<text text-anchor="middle" x="1248.0044" y="-268.1571" font-family="Roboto Mono" font-size="10.00" fill="#555555">pushes to</text>
</g>
<!-- sqs_queue&#45;&gt;region -->
<g id="edge55" class="edge">
<title>sqs_queue&#45;&gt;region</title>
<path fill="none" stroke="#555555" d="M1210.7074,-175.6601C1189.9275,-141.1516 1150.6583,-84.8481 1101,-55.4256 1079.8591,-42.8996 1019.342,-32.2714 973.8511,-25.7237"/>
<polygon fill="#555555" stroke="#555555" points="974.2016,-22.2385 963.8111,-24.309 973.2249,-29.1701 974.2016,-22.2385"/>
<text text-anchor="middle" x="1204.0049" y="-103.9211" font-family="Roboto Mono" font-size="10.00" fill="#555555">belongs to</text>
</g>
<!-- ec2_security_group&#45;&gt;vpc -->
<g id="edge24" class="edge">
<title>ec2_security_group&#45;&gt;vpc</title>
<path fill="none" stroke="#555555" d="M143.0185,-173.7429C152.3973,-162.0891 164.4071,-149.8149 177.9902,-142.0396 202.4297,-128.0498 277.5389,-116.2867 324.2021,-110.073"/>
<polygon fill="#555555" stroke="#555555" points="324.8041,-113.5242 334.2672,-108.7598 323.8984,-106.583 324.8041,-113.5242"/>
<text text-anchor="middle" x="208.0049" y="-147.2281" font-family="Roboto Mono" font-size="10.00" fill="#555555">belongs to</text>
</g>
<!-- vpc_subnet&#45;&gt;availability_zone -->
<g id="edge58" class="edge">
<title>vpc_subnet&#45;&gt;availability_zone</title>
<path fill="none" stroke="#555555" d="M772.7489,-305.1491C784.9322,-287.2713 800.7229,-264.0998 814.0467,-244.5483"/>
<polygon fill="#555555" stroke="#555555" points="817.0409,-246.3698 819.78,-236.1352 811.2563,-242.4278 817.0409,-246.3698"/>
<text text-anchor="middle" x="835.0049" y="-268.1571" font-family="Roboto Mono" font-size="10.00" fill="#555555">belongs to</text>
</g>
<!-- vpc_subnet&#45;&gt;vpc -->
<g id="edge59" class="edge">
<title>vpc_subnet&#45;&gt;vpc</title>
<path fill="none" stroke="#555555" d="M722.0514,-309.8467C713.8082,-302.3167 705.4208,-293.5607 699,-284.3602 668.4074,-240.5237 692.6128,-209.122 653,-173.2281 616.3706,-140.0375 472.7083,-118.5505 402.3109,-109.7978"/>
<polygon fill="#555555" stroke="#555555" points="402.4229,-106.2857 392.073,-108.5507 401.5764,-113.2343 402.4229,-106.2857"/>
<text text-anchor="middle" x="712.0049" y="-203.591" font-family="Roboto Mono" font-size="10.00" fill="#555555">belongs to</text>
</g>
<!-- vpc&#45;&gt;region -->
<g id="edge57" class="edge">
<title>vpc&#45;&gt;region</title>
<path fill="none" stroke="#555555" d="M374.9391,-87.7793C383.7374,-76.4133 396.7856,-62.4623 411.9902,-55.4256 451.9635,-36.9259 737.9257,-24.953 861.906,-20.5777"/>
<polygon fill="#555555" stroke="#555555" points="862.0972,-24.0733 871.9691,-20.2267 861.8531,-17.0775 862.0972,-24.0733"/>
<text text-anchor="middle" x="442.0049" y="-60.614" font-family="Roboto Mono" font-size="10.00" fill="#555555">belongs to</text>
</g>
<!-- vpc&#45;&gt;internet -->
<g id="edge56" class="edge">
<title>vpc&#45;&gt;internet</title>
<path fill="none" stroke="#555555" d="M357.5553,-123.9579C341.9488,-179.9678 299.6934,-351.6073 324,-491.812 336.8285,-565.8092 369.8383,-646.9951 391.581,-695.1619"/>
<polygon fill="#555555" stroke="#555555" points="388.4348,-696.6981 395.77,-704.343 394.8032,-693.7924 388.4348,-696.6981"/>
<text text-anchor="middle" x="347.0049" y="-402.2746" font-family="Roboto Mono" font-size="10.00" fill="#555555">exposed to</text>
<text text-anchor="middle" x="347.0049" y="-389.0861" font-family="Roboto Mono" font-size="10.00" fill="#555555">(optional)</text>
</g>
<!-- elasticache_cluster -->
<g id="node19" class="node">
<title>elasticache_cluster</title>
<ellipse fill="#f3bb44" stroke="#f3bb44" cx="459" cy="-334.1289" rx="76.8224" ry="31.5391"/>
<text text-anchor="middle" x="459" y="-341.3928" font-family="Roboto Mono" font-size="14.00" fill="#000000">ElastiCache</text>
<text text-anchor="middle" x="459" y="-322.9289" font-family="Roboto Mono" font-size="14.00" fill="#000000">Cluster</text>
</g>
<!-- elasticache_cluster&#45;&gt;availability_zone -->
<g id="edge28" class="edge">
<title>elasticache_cluster&#45;&gt;availability_zone</title>
<path fill="none" stroke="#555555" d="M508.0295,-309.358C519.5884,-302.2191 531.3434,-293.7784 541,-284.3602 552.1881,-273.4484 546.6578,-262.9195 559.9902,-254.7655 595.0408,-233.3287 703.7909,-245.21 744,-236.7655 752.9149,-234.8932 762.1609,-232.4919 771.2454,-229.8494"/>
<polygon fill="#555555" stroke="#555555" points="772.4538,-233.1407 781.0164,-226.9011 770.4316,-226.4391 772.4538,-233.1407"/>
<text text-anchor="middle" x="590.0049" y="-274.7513" font-family="Roboto Mono" font-size="10.00" fill="#555555">belongs to</text>
<text text-anchor="middle" x="590.0049" y="-261.5628" font-family="Roboto Mono" font-size="10.00" fill="#555555">(1+)</text>
</g>
<!-- elasticache_cluster&#45;&gt;data_instance -->
<g id="edge29" class="edge">
<title>elasticache_cluster&#45;&gt;data_instance</title>
<path fill="none" stroke="#555555" d="M478.7336,-303.2666C489.2197,-287.9336 502.8473,-269.57 516.9961,-254.7655 522.4947,-249.012 528.6616,-243.3256 534.9169,-237.968"/>
<polygon fill="#555555" stroke="#555555" points="537.3921,-240.4618 542.8438,-231.3772 532.9168,-235.0792 537.3921,-240.4618"/>
<text text-anchor="middle" x="529.002" y="-268.1571" font-family="Roboto Mono" font-size="10.00" fill="#555555">is a</text>
</g>
<!-- elasticache_cluster&#45;&gt;ec2_security_group -->
<g id="edge30" class="edge">
<title>elasticache_cluster&#45;&gt;ec2_security_group</title>
<path fill="none" stroke="#555555" d="M402.5938,-312.5151C345.2944,-290.559 256.345,-256.4753 193.9932,-232.5832"/>
<polygon fill="#555555" stroke="#555555" points="195.1992,-229.2972 184.6089,-228.9873 192.6944,-235.8338 195.1992,-229.2972"/>
<text text-anchor="middle" x="330.0015" y="-268.1571" font-family="Roboto Mono" font-size="10.00" fill="#555555">has</text>
</g>
<!-- elasticache_cluster&#45;&gt;vpc -->
<g id="edge31" class="edge">
<title>elasticache_cluster&#45;&gt;vpc</title>
<path fill="none" stroke="#555555" d="M437.3372,-303.2861C425.0477,-284.6941 410.1427,-260.1541 399.9883,-236.7655 385.2365,-202.7879 374.7126,-161.3193 368.7513,-134.1634"/>
<polygon fill="#555555" stroke="#555555" points="372.1264,-133.2078 366.6193,-124.1567 365.28,-134.6665 372.1264,-133.2078"/>
<text text-anchor="middle" x="436.0059" y="-210.1853" font-family="Roboto Mono" font-size="10.00" fill="#555555">belongs to</text>
<text text-anchor="middle" x="436.0059" y="-196.9968" font-family="Roboto Mono" font-size="10.00" fill="#555555">(optionally)</text>
</g>
<!-- iam_group -->
<g id="node20" class="node">
<title>iam_group</title>
<ellipse fill="#f3bb44" stroke="#f3bb44" cx="1578" cy="-1015.9244" rx="41.0341" ry="31.5391"/>
<text text-anchor="middle" x="1578" y="-1023.1883" font-family="Roboto Mono" font-size="14.00" fill="#000000">IAM</text>
<text text-anchor="middle" x="1578" y="-1004.7244" font-family="Roboto Mono" font-size="14.00" fill="#000000">Group</text>
</g>
<!-- iam_policy -->
<g id="node21" class="node">
<title>iam_policy</title>
<ellipse fill="#f3bb44" stroke="#f3bb44" cx="1535" cy="-890.0101" rx="46.9154" ry="31.5391"/>
<text text-anchor="middle" x="1535" y="-897.2739" font-family="Roboto Mono" font-size="14.00" fill="#000000">IAM</text>
<text text-anchor="middle" x="1535" y="-878.8101" font-family="Roboto Mono" font-size="14.00" fill="#000000">Policy</text>
</g>
<!-- iam_group&#45;&gt;iam_policy -->
<g id="edge32" class="edge">
<title>iam_group&#45;&gt;iam_policy</title>
<path fill="none" stroke="#555555" d="M1567.481,-985.1223C1561.9007,-968.7819 1554.9713,-948.491 1548.9479,-930.8529"/>
<polygon fill="#555555" stroke="#555555" points="1552.2531,-929.7011 1545.7091,-921.3689 1545.6287,-931.9634 1552.2531,-929.7011"/>
<text text-anchor="middle" x="1569.0015" y="-951.5615" font-family="Roboto Mono" font-size="10.00" fill="#555555">has</text>
</g>
<!-- iam_policy&#45;&gt;service -->
<g id="edge33" class="edge">
<title>iam_policy&#45;&gt;service</title>
<path fill="none" stroke="#555555" d="M1522.4534,-859.2453C1516.0069,-843.4382 1507.8864,-823.5266 1500.0996,-804.433"/>
<polygon fill="#555555" stroke="#555555" points="1503.3298,-803.085 1496.3126,-795.1471 1496.8481,-805.7284 1503.3298,-803.085"/>
<text text-anchor="middle" x="1540.0044" y="-832.2414" font-family="Roboto Mono" font-size="10.00" fill="#555555">defines</text>
<text text-anchor="middle" x="1540.0044" y="-819.0529" font-family="Roboto Mono" font-size="10.00" fill="#555555">access to</text>
</g>
<!-- iam_role -->
<g id="node22" class="node">
<title>iam_role</title>
<ellipse fill="#f3bb44" stroke="#f3bb44" cx="1484" cy="-1015.9244" rx="35.1529" ry="31.5391"/>
<text text-anchor="middle" x="1484" y="-1023.1883" font-family="Roboto Mono" font-size="14.00" fill="#000000">IAM</text>
<text text-anchor="middle" x="1484" y="-1004.7244" font-family="Roboto Mono" font-size="14.00" fill="#000000">Role</text>
</g>
<!-- iam_role&#45;&gt;iam_policy -->
<g id="edge34" class="edge">
<title>iam_role&#45;&gt;iam_policy</title>
<path fill="none" stroke="#555555" d="M1496.0863,-986.0845C1502.7967,-969.5171 1511.2396,-948.6724 1518.5447,-930.6366"/>
<polygon fill="#555555" stroke="#555555" points="1521.9577,-931.5333 1522.4679,-920.9508 1515.4697,-928.9054 1521.9577,-931.5333"/>
<text text-anchor="middle" x="1523.0015" y="-951.5615" font-family="Roboto Mono" font-size="10.00" fill="#555555">has</text>
</g>
<!-- iam_user -->
<g id="node23" class="node">
<title>iam_user</title>
<ellipse fill="#f3bb44" stroke="#f3bb44" cx="1617" cy="-1155.0273" rx="35.1529" ry="31.5391"/>
<text text-anchor="middle" x="1617" y="-1162.2911" font-family="Roboto Mono" font-size="14.00" fill="#000000">IAM</text>
<text text-anchor="middle" x="1617" y="-1143.8273" font-family="Roboto Mono" font-size="14.00" fill="#000000">User</text>
</g>
<!-- iam_user&#45;&gt;iam_group -->
<g id="edge35" class="edge">
<title>iam_user&#45;&gt;iam_group</title>
<path fill="none" stroke="#555555" d="M1594.7582,-1130.3297C1589.2358,-1122.7931 1584.0306,-1114.1376 1580.9902,-1105.2586 1575.8845,-1090.3479 1574.3593,-1073.2076 1574.3773,-1057.9537"/>
<polygon fill="#555555" stroke="#555555" points="1577.8811,-1057.8227 1574.6112,-1047.7452 1570.883,-1057.6623 1577.8811,-1057.8227"/>
<text text-anchor="middle" x="1610.0049" y="-1084.0701" font-family="Roboto Mono" font-size="10.00" fill="#555555">belongs to</text>
</g>
<!-- iam_user&#45;&gt;iam_policy -->
<g id="edge36" class="edge">
<title>iam_user&#45;&gt;iam_policy</title>
<path fill="none" stroke="#555555" d="M1633.3788,-1126.619C1636.5276,-1119.8308 1639.3545,-1112.4592 1641,-1105.2586 1653.0597,-1052.4863 1652.4528,-1032.4508 1628,-984.1557 1615.4125,-959.2949 1593.8766,-936.8584 1574.6971,-920.1295"/>
<polygon fill="#555555" stroke="#555555" points="1576.8247,-917.3448 1566.9333,-913.5485 1572.2984,-922.6845 1576.8247,-917.3448"/>
<text text-anchor="middle" x="1657.0015" y="-1014.5187" font-family="Roboto Mono" font-size="10.00" fill="#555555">has</text>
</g>
<!-- route_53_zone&#45;&gt;ec2_instance -->
<g id="edge46" class="edge">
<title>route_53_zone&#45;&gt;ec2_instance</title>
<path fill="none" stroke="#555555" d="M522.0313,-617.8116C522.3793,-623.764 522.7188,-629.9336 523,-635.7264 528.9631,-758.564 533.6579,-903.8373 535.7749,-973.9318"/>
<polygon fill="#555555" stroke="#555555" points="532.2821,-974.2285 536.0804,-984.1191 539.279,-974.0187 532.2821,-974.2285"/>
<text text-anchor="middle" x="559.0068" y="-825.6471" font-family="Roboto Mono" font-size="10.00" fill="#555555">refers to</text>
</g>
<!-- route_53_zone&#45;&gt;elb -->
<g id="edge47" class="edge">
<title>route_53_zone&#45;&gt;elb</title>
<path fill="none" stroke="#555555" d="M478.3926,-563.1703C439.0723,-541.1976 383.4391,-508.8425 364.9863,-491.812 322.1027,-452.2336 285.1882,-394.2637 265.7157,-360.7489"/>
<polygon fill="#555555" stroke="#555555" points="268.7015,-358.9196 260.6956,-351.9801 262.6266,-362.3975 268.7015,-358.9196"/>
<text text-anchor="middle" x="392.0068" y="-458.6375" font-family="Roboto Mono" font-size="10.00" fill="#555555">refers to</text>
</g>
<!-- route_53_zone&#45;&gt;s3_bucket -->
<g id="edge48" class="edge">
<title>route_53_zone&#45;&gt;s3_bucket</title>
<path fill="none" stroke="#555555" d="M552.5556,-559.1764C560.3167,-552.0872 568.2876,-544.1731 575,-536.1889 613.8045,-490.0325 629.9612,-420.4776 636.5724,-376.1982"/>
<polygon fill="#555555" stroke="#555555" points="640.0713,-376.4485 637.9852,-366.0611 633.1383,-375.4823 640.0713,-376.4485"/>
<text text-anchor="middle" x="653.0068" y="-458.6375" font-family="Roboto Mono" font-size="10.00" fill="#555555">refers to</text>
</g>
<!-- route_53_zone&#45;&gt;cloudfront_distribution -->
<g id="edge45" class="edge">
<title>route_53_zone&#45;&gt;cloudfront_distribution</title>
<path fill="none" stroke="#555555" d="M517.7289,-554.1841C516.5991,-538.3772 515.2185,-519.0615 514.0025,-502.0494"/>
<polygon fill="#555555" stroke="#555555" points="517.4745,-501.5316 513.2704,-491.8066 510.4923,-502.0307 517.4745,-501.5316"/>
<text text-anchor="middle" x="544.0068" y="-521.5947" font-family="Roboto Mono" font-size="10.00" fill="#555555">refers to</text>
</g>
</g>
</svg>
