<?xml version="1.0" encoding="UTF-8" standalone="no"?>
<!DOCTYPE svg PUBLIC "-//W3C//DTD SVG 1.1//EN"
 "http://www.w3.org/Graphics/SVG/1.1/DTD/svg11.dtd">
<!-- Generated by graphviz version 2.40.1 (20161225.0304)
 -->
<!-- Title: %3 Pages: 1 -->
<svg width="1501pt" height="1208pt"
 viewBox="0.00 0.00 1500.66 1207.72" xmlns="http://www.w3.org/2000/svg" xmlns:xlink="http://www.w3.org/1999/xlink">
<g id="graph0" class="graph" transform="scale(1 1) rotate(0) translate(4 1203.7194)">
<title>%3</title>
<polygon fill="#ffffff" stroke="transparent" points="-4,4 -4,-1203.7194 1496.661,-1203.7194 1496.661,4 -4,4"/>
<!-- api_gateway_api -->
<g id="node1" class="node">
<title>api_gateway_api</title>
<ellipse fill="#f3bb44" stroke="#f3bb44" cx="641" cy="-1167.9507" rx="76.8224" ry="31.5391"/>
<text text-anchor="middle" x="641" y="-1175.2145" font-family="Roboto Mono" font-size="14.00" fill="#000000">API Gateway</text>
<text text-anchor="middle" x="641" y="-1156.7507" font-family="Roboto Mono" font-size="14.00" fill="#000000">API</text>
</g>
<!-- ec2_instance -->
<g id="node2" class="node">
<title>ec2_instance</title>
<ellipse fill="#f3bb44" stroke="#f3bb44" cx="397" cy="-1028.8478" rx="58.6785" ry="31.5391"/>
<text text-anchor="middle" x="397" y="-1036.1117" font-family="Roboto Mono" font-size="14.00" fill="#000000">EC2</text>
<text text-anchor="middle" x="397" y="-1017.6478" font-family="Roboto Mono" font-size="14.00" fill="#000000">Instance</text>
</g>
<!-- api_gateway_api&#45;&gt;ec2_instance -->
<g id="edge1" class="edge">
<title>api_gateway_api&#45;&gt;ec2_instance</title>
<path fill="none" stroke="#555555" d="M568.8118,-1157.219C518.5393,-1148.4885 457.049,-1134.8963 436.9863,-1118.182 422.3625,-1105.9987 412.8805,-1087.3734 406.8405,-1070.2762"/>
<polygon fill="#555555" stroke="#555555" points="410.0706,-1068.8888 403.6692,-1060.4465 403.4088,-1071.0381 410.0706,-1068.8888"/>
<text text-anchor="middle" x="479.0068" y="-1110.182" font-family="Roboto Mono" font-size="10.00" fill="#555555">triggers</text>
<text text-anchor="middle" x="479.0068" y="-1096.9935" font-family="Roboto Mono" font-size="10.00" fill="#555555">(via internal</text>
<text text-anchor="middle" x="479.0068" y="-1083.805" font-family="Roboto Mono" font-size="10.00" fill="#555555">HTTP endpoint)</text>
</g>
<!-- elb -->
<g id="node3" class="node">
<title>elb</title>
<ellipse fill="#f3bb44" stroke="#f3bb44" cx="362" cy="-360.2408" rx="29.272" ry="18.928"/>
<text text-anchor="middle" x="362" y="-358.2727" font-family="Roboto Mono" font-size="14.00" fill="#000000">ELB</text>
</g>
<!-- api_gateway_api&#45;&gt;elb -->
<g id="edge2" class="edge">
<title>api_gateway_api&#45;&gt;elb</title>
<path fill="none" stroke="#555555" d="M564.7938,-1164.3894C414.6471,-1155.2842 95,-1124.6499 95,-1028.8478 95,-1028.8478 95,-1028.8478 95,-839.9763 95,-737.3124 190.275,-481.4553 264,-410.0095 281.5466,-393.0053 306.0581,-380.5602 326.1772,-372.3677"/>
<polygon fill="#555555" stroke="#555555" points="327.598,-375.5706 335.6513,-368.6861 325.0626,-369.0459 327.598,-375.5706"/>
<text text-anchor="middle" x="148.0039" y="-749.5015" font-family="Roboto Mono" font-size="10.00" fill="#555555">triggers</text>
</g>
<!-- lambda_function -->
<g id="node4" class="node">
<title>lambda_function</title>
<ellipse fill="#f3bb44" stroke="#f3bb44" cx="981" cy="-231.1086" rx="58.6785" ry="31.5391"/>
<text text-anchor="middle" x="981" y="-238.3725" font-family="Roboto Mono" font-size="14.00" fill="#000000">Lambda</text>
<text text-anchor="middle" x="981" y="-219.9086" font-family="Roboto Mono" font-size="14.00" fill="#000000">Function</text>
</g>
<!-- api_gateway_api&#45;&gt;lambda_function -->
<g id="edge3" class="edge">
<title>api_gateway_api&#45;&gt;lambda_function</title>
<path fill="none" stroke="#555555" d="M717.0062,-1163.0932C865.7261,-1152.3289 1188.5682,-1122.3827 1279,-1060.6165 1292.5855,-1051.3374 1298,-1045.2998 1298,-1028.8478 1298,-1028.8478 1298,-1028.8478 1298,-360.2408 1298,-306.4161 1139.2721,-264.1068 1046.4528,-243.967"/>
<polygon fill="#555555" stroke="#555555" points="1047.091,-240.5244 1036.5799,-241.8543 1045.6261,-247.3694 1047.091,-240.5244"/>
<text text-anchor="middle" x="1322.0039" y="-660.4324" font-family="Roboto Mono" font-size="10.00" fill="#555555">triggers</text>
</g>
<!-- region -->
<g id="node5" class="node">
<title>region</title>
<ellipse fill="#f3bb44" stroke="#f3bb44" cx="670" cy="-18.7128" rx="46.9154" ry="18.928"/>
<text text-anchor="middle" x="670" y="-16.7447" font-family="Roboto Mono" font-size="14.00" fill="#000000">Region</text>
</g>
<!-- api_gateway_api&#45;&gt;region -->
<g id="edge4" class="edge">
<title>api_gateway_api&#45;&gt;region</title>
<path fill="none" stroke="#555555" d="M564.5834,-1165.2331C441.9287,-1160.0845 206.984,-1146.7625 129,-1118.182 63.5201,-1094.184 0,-1098.5868 0,-1028.8478 0,-1028.8478 0,-1028.8478 0,-118.3827 0,-56.6389 450.9112,-29.1222 612.9084,-21.2287"/>
<polygon fill="#555555" stroke="#555555" points="613.3325,-24.7125 623.1532,-20.737 612.9969,-17.7205 613.3325,-24.7125"/>
<text text-anchor="middle" x="30.0049" y="-541.1123" font-family="Roboto Mono" font-size="10.00" fill="#555555">belongs to</text>
</g>
<!-- s3_bucket -->
<g id="node6" class="node">
<title>s3_bucket</title>
<ellipse fill="#f3bb44" stroke="#f3bb44" cx="668" cy="-360.2408" rx="46.9154" ry="31.5391"/>
<text text-anchor="middle" x="668" y="-367.5046" font-family="Roboto Mono" font-size="14.00" fill="#000000">S3</text>
<text text-anchor="middle" x="668" y="-349.0408" font-family="Roboto Mono" font-size="14.00" fill="#000000">Bucket</text>
</g>
<!-- api_gateway_api&#45;&gt;s3_bucket -->
<g id="edge5" class="edge">
<title>api_gateway_api&#45;&gt;s3_bucket</title>
<path fill="none" stroke="#555555" d="M677.271,-1139.7753C684.6156,-1133.1449 691.9364,-1125.7807 698,-1118.182 737.8317,-1068.2659 805.792,-968.148 833,-853.1647 835.6994,-841.7567 838.9189,-836.907 833,-826.7878 824.7597,-812.6999 809.4704,-822.7337 800.9922,-808.7878 767.0453,-752.9483 796,-727.1868 796,-661.8382 796,-661.8382 796,-661.8382 796,-486.1551 796,-439.6017 752.4384,-404.5126 716.1406,-383.3551"/>
<polygon fill="#555555" stroke="#555555" points="717.5327,-380.1228 707.0997,-378.2777 714.105,-386.2261 717.5327,-380.1228"/>
<text text-anchor="middle" x="824.0039" y="-749.5015" font-family="Roboto Mono" font-size="10.00" fill="#555555">accesses</text>
</g>
<!-- service -->
<g id="node7" class="node">
<title>service</title>
<ellipse fill="#f3bb44" stroke="#f3bb44" cx="1146" cy="-750.9072" rx="124.3729" ry="57.7614"/>
<text text-anchor="middle" x="1146" y="-776.635" font-family="Roboto Mono" font-size="14.00" fill="#000000">&quot;Service&quot;</text>
<text text-anchor="middle" x="1146" y="-758.1711" font-family="Roboto Mono" font-size="14.00" fill="#000000">(not linking to</text>
<text text-anchor="middle" x="1146" y="-739.7072" font-family="Roboto Mono" font-size="14.00" fill="#000000">the actual services</text>
<text text-anchor="middle" x="1146" y="-721.2434" font-family="Roboto Mono" font-size="14.00" fill="#000000">for clarity sake)</text>
</g>
<!-- api_gateway_api&#45;&gt;service -->
<g id="edge6" class="edge">
<title>api_gateway_api&#45;&gt;service</title>
<path fill="none" stroke="#555555" d="M712.6774,-1156.6575C766.9189,-1147.2069 836.1706,-1132.932 861,-1118.182 982.3451,-1046.0961 1070.8993,-901.1081 1114.8371,-816.4581"/>
<polygon fill="#555555" stroke="#555555" points="1118.0074,-817.9462 1119.4618,-807.4516 1111.7804,-814.7487 1118.0074,-817.9462"/>
<text text-anchor="middle" x="1053.0039" y="-964.4849" font-family="Roboto Mono" font-size="10.00" fill="#555555">accesses</text>
</g>
<!-- compute_instance -->
<g id="node11" class="node">
<title>compute_instance</title>
<ellipse fill="#f3bb44" stroke="#f3bb44" cx="940" cy="-902.9335" rx="64.5601" ry="31.5391"/>
<text text-anchor="middle" x="940" y="-910.1973" font-family="Roboto Mono" font-size="14.00" fill="#000000">&quot;Compute</text>
<text text-anchor="middle" x="940" y="-891.7335" font-family="Roboto Mono" font-size="14.00" fill="#000000">Instance&quot;</text>
</g>
<!-- ec2_instance&#45;&gt;compute_instance -->
<g id="edge20" class="edge">
<title>ec2_instance&#45;&gt;compute_instance</title>
<path fill="none" stroke="#555555" d="M455.2328,-1023.6416C494.4673,-1017.7932 545.8249,-1005.3862 584,-979.0791 595.8958,-970.8815 590.6545,-960.2119 602.9961,-952.7022 645.8417,-926.6311 779.8377,-913.2601 865.3995,-907.2045"/>
<polygon fill="#555555" stroke="#555555" points="865.849,-910.6819 875.5844,-906.5019 865.3672,-903.6985 865.849,-910.6819"/>
<text text-anchor="middle" x="615.002" y="-964.4849" font-family="Roboto Mono" font-size="10.00" fill="#555555">is a</text>
</g>
<!-- ec2_security_group -->
<g id="node15" class="node">
<title>ec2_security_group</title>
<ellipse fill="#f3bb44" stroke="#f3bb44" cx="362" cy="-231.1086" rx="94.466" ry="31.5391"/>
<text text-anchor="middle" x="362" y="-238.3725" font-family="Roboto Mono" font-size="14.00" fill="#000000">EC2</text>
<text text-anchor="middle" x="362" y="-219.9086" font-family="Roboto Mono" font-size="14.00" fill="#000000">Security Group</text>
</g>
<!-- ec2_instance&#45;&gt;ec2_security_group -->
<g id="edge21" class="edge">
<title>ec2_instance&#45;&gt;ec2_security_group</title>
<path fill="none" stroke="#555555" d="M342.3701,-1016.9273C286.8626,-1001.22 209,-967.6524 209,-902.9335 209,-902.9335 209,-902.9335 209,-423.1979 209,-356.5714 266.014,-299.7079 310.4345,-265.5157"/>
<polygon fill="#555555" stroke="#555555" points="312.6791,-268.207 318.5656,-259.3979 308.4705,-262.6134 312.6791,-268.207"/>
<text text-anchor="middle" x="218.0015" y="-597.4753" font-family="Roboto Mono" font-size="10.00" fill="#555555">has</text>
</g>
<!-- vpc_subnet -->
<g id="node16" class="node">
<title>vpc_subnet</title>
<ellipse fill="#f3bb44" stroke="#f3bb44" cx="82" cy="-231.1086" rx="46.9154" ry="31.5391"/>
<text text-anchor="middle" x="82" y="-238.3725" font-family="Roboto Mono" font-size="14.00" fill="#000000">VPC</text>
<text text-anchor="middle" x="82" y="-219.9086" font-family="Roboto Mono" font-size="14.00" fill="#000000">Subnet</text>
</g>
<!-- ec2_instance&#45;&gt;vpc_subnet -->
<g id="edge22" class="edge">
<title>ec2_instance&#45;&gt;vpc_subnet</title>
<path fill="none" stroke="#555555" d="M341.578,-1018.0796C298.2634,-1008.7206 242.5533,-994.3051 225,-979.0791 208.6578,-964.9036 211.5942,-955.3063 205,-934.7022 171.6201,-830.4041 194.2891,-795.9919 157,-693.0267 131.0612,-621.4026 75,-618.6944 75,-542.5181 75,-542.5181 75,-542.5181 75,-360.2408 75,-331.036 76.8073,-298.1704 78.5852,-272.9044"/>
<polygon fill="#555555" stroke="#555555" points="82.0764,-273.1516 79.3136,-262.9233 75.095,-272.642 82.0764,-273.1516"/>
<text text-anchor="middle" x="147.0049" y="-597.4753" font-family="Roboto Mono" font-size="10.00" fill="#555555">belongs to</text>
</g>
<!-- elb&#45;&gt;ec2_instance -->
<g id="edge24" class="edge">
<title>elb&#45;&gt;ec2_instance</title>
<path fill="none" stroke="#555555" d="M350.3454,-377.7392C322.6134,-419.6799 255,-523.8496 255,-542.5181 255,-902.9335 255,-902.9335 255,-902.9335 255,-950.6713 300.4835,-984.7052 339.9672,-1005.2562"/>
<polygon fill="#555555" stroke="#555555" points="338.8122,-1008.592 349.321,-1009.939 341.9458,-1002.3326 338.8122,-1008.592"/>
<text text-anchor="middle" x="294.0063" y="-667.0267" font-family="Roboto Mono" font-size="10.00" fill="#555555">triggers (via</text>
<text text-anchor="middle" x="294.0063" y="-653.8382" font-family="Roboto Mono" font-size="10.00" fill="#555555">internal IP)</text>
</g>
<!-- elb&#45;&gt;ec2_security_group -->
<g id="edge25" class="edge">
<title>elb&#45;&gt;ec2_security_group</title>
<path fill="none" stroke="#555555" d="M362,-341.4638C362,-323.6298 362,-296.1933 362,-273.1396"/>
<polygon fill="#555555" stroke="#555555" points="365.5001,-272.9059 362,-262.906 358.5001,-272.906 365.5001,-272.9059"/>
<text text-anchor="middle" x="371.0015" y="-294.2689" font-family="Roboto Mono" font-size="10.00" fill="#555555">has</text>
</g>
<!-- vpc -->
<g id="node17" class="node">
<title>vpc</title>
<ellipse fill="#f3bb44" stroke="#f3bb44" cx="362" cy="-118.3827" rx="29.272" ry="18.928"/>
<text text-anchor="middle" x="362" y="-116.4147" font-family="Roboto Mono" font-size="14.00" fill="#000000">VPC</text>
</g>
<!-- elb&#45;&gt;vpc -->
<g id="edge26" class="edge">
<title>elb&#45;&gt;vpc</title>
<path fill="none" stroke="#555555" d="M383.9016,-347.382C408.9293,-331.2677 448.5473,-301.0695 465,-262.8773 476.1723,-236.9426 477.235,-224.7906 465,-199.3399 450.6694,-169.5303 419.3833,-147.4639 395.0293,-133.9628"/>
<polygon fill="#555555" stroke="#555555" points="396.5576,-130.8114 386.0846,-129.2094 393.2727,-136.9928 396.5576,-130.8114"/>
<text text-anchor="middle" x="504.0049" y="-229.7029" font-family="Roboto Mono" font-size="10.00" fill="#555555">belongs to</text>
</g>
<!-- lambda_function&#45;&gt;region -->
<g id="edge39" class="edge">
<title>lambda_function&#45;&gt;region</title>
<path fill="none" stroke="#555555" d="M960.1842,-201.2787C936.3589,-169.0779 894.5695,-118.1749 848,-86.614 808.666,-59.9567 757.4226,-41.8349 720.0236,-31.0636"/>
<polygon fill="#555555" stroke="#555555" points="720.9211,-27.6803 710.3475,-28.3512 719.0317,-34.4205 720.9211,-27.6803"/>
<text text-anchor="middle" x="948.0049" y="-116.977" font-family="Roboto Mono" font-size="10.00" fill="#555555">belongs to</text>
</g>
<!-- lambda_function&#45;&gt;compute_instance -->
<g id="edge38" class="edge">
<title>lambda_function&#45;&gt;compute_instance</title>
<path fill="none" stroke="#555555" d="M986.5807,-262.9061C987.4929,-268.864 988.3504,-275.05 989,-280.8773 1001.5829,-393.755 1001.4427,-422.4027 1005,-535.9238 1009.4685,-678.5218 989.2771,-714.432 956,-853.1647 955.3252,-855.9779 954.5704,-858.8621 953.766,-861.756"/>
<polygon fill="#555555" stroke="#555555" points="950.3512,-860.9621 950.884,-871.5436 957.0662,-862.9395 950.3512,-860.9621"/>
<text text-anchor="middle" x="1017.002" y="-541.1123" font-family="Roboto Mono" font-size="10.00" fill="#555555">is a</text>
</g>
<!-- s3_bucket&#45;&gt;lambda_function -->
<g id="edge44" class="edge">
<title>s3_bucket&#45;&gt;lambda_function</title>
<path fill="none" stroke="#555555" d="M693.1164,-333.1763C711.1248,-315.4761 736.9026,-293.3916 763.9922,-280.8773 805.7854,-261.5705 821.0935,-273.018 866,-262.8773 883.4807,-258.9299 902.2811,-254.022 919.5125,-249.2537"/>
<polygon fill="#555555" stroke="#555555" points="920.7685,-252.5367 929.4549,-246.4706 918.8816,-245.7958 920.7685,-252.5367"/>
<text text-anchor="middle" x="787.0039" y="-294.2689" font-family="Roboto Mono" font-size="10.00" fill="#555555">triggers</text>
</g>
<!-- s3_bucket&#45;&gt;region -->
<g id="edge45" class="edge">
<title>s3_bucket&#45;&gt;region</title>
<path fill="none" stroke="#555555" d="M655.5828,-329.5036C641.8008,-291.7441 622.4304,-225.6186 629.9902,-168.1514 635.6619,-125.0371 650.1636,-76.6825 660.0572,-46.9622"/>
<polygon fill="#555555" stroke="#555555" points="663.4483,-47.8604 663.3426,-37.266 656.8185,-45.614 663.4483,-47.8604"/>
<text text-anchor="middle" x="660.0049" y="-173.3399" font-family="Roboto Mono" font-size="10.00" fill="#555555">belongs to</text>
</g>
<!-- availability_zone -->
<g id="node8" class="node">
<title>availability_zone</title>
<ellipse fill="#f3bb44" stroke="#f3bb44" cx="172" cy="-118.3827" rx="82.7035" ry="31.5391"/>
<text text-anchor="middle" x="172" y="-125.6466" font-family="Roboto Mono" font-size="14.00" fill="#000000">Availability</text>
<text text-anchor="middle" x="172" y="-107.1827" font-family="Roboto Mono" font-size="14.00" fill="#000000">Zone</text>
</g>
<!-- availability_zone&#45;&gt;region -->
<g id="edge7" class="edge">
<title>availability_zone&#45;&gt;region</title>
<path fill="none" stroke="#555555" d="M242.4462,-101.6874C299.5773,-88.3948 382.2677,-69.7143 454.9902,-55.4256 509.6863,-44.6787 572.5691,-34.1526 616.1402,-27.1466"/>
<polygon fill="#555555" stroke="#555555" points="616.9117,-30.5677 626.2328,-25.5311 615.8053,-23.6557 616.9117,-30.5677"/>
<text text-anchor="middle" x="485.0049" y="-60.614" font-family="Roboto Mono" font-size="10.00" fill="#555555">belongs to</text>
</g>
<!-- cloudfront_distribution -->
<g id="node9" class="node">
<title>cloudfront_distribution</title>
<ellipse fill="#f3bb44" stroke="#f3bb44" cx="494" cy="-486.1551" rx="82.7035" ry="31.5391"/>
<text text-anchor="middle" x="494" y="-493.419" font-family="Roboto Mono" font-size="14.00" fill="#000000">CloudFront</text>
<text text-anchor="middle" x="494" y="-474.9551" font-family="Roboto Mono" font-size="14.00" fill="#000000">Distribution</text>
</g>
<!-- cloudfront_distribution&#45;&gt;api_gateway_api -->
<g id="edge8" class="edge">
<title>cloudfront_distribution&#45;&gt;api_gateway_api</title>
<path fill="none" stroke="#555555" d="M552.2436,-508.7941C562.0839,-512.1526 572.2651,-515.3455 582,-517.9238 604.6729,-523.929 670.8953,-517.9803 686,-535.9238 776.947,-643.9638 628.1689,-717.6692 667.9805,-853.1647 685.6785,-913.3985 745.9757,-917.8745 732,-979.0791 719.4884,-1033.872 688.9621,-1091.2813 666.7054,-1128.2156"/>
<polygon fill="#555555" stroke="#555555" points="663.4726,-1126.7934 661.2411,-1137.1505 669.4444,-1130.4455 663.4726,-1126.7934"/>
<text text-anchor="middle" x="713.0098" y="-845.1647" font-family="Roboto Mono" font-size="10.00" fill="#555555">accesses (if</text>
<text text-anchor="middle" x="713.0098" y="-831.9763" font-family="Roboto Mono" font-size="10.00" fill="#555555">edge&#45;optimized)</text>
</g>
<!-- cloudfront_distribution&#45;&gt;ec2_instance -->
<g id="edge9" class="edge">
<title>cloudfront_distribution&#45;&gt;ec2_instance</title>
<path fill="none" stroke="#555555" d="M446.4797,-512.3755C425.3039,-526.1897 401.6609,-544.8949 386,-567.1123 352.2458,-614.9979 355.7555,-635.1 346.9873,-693.0267 330.9093,-799.2445 363.0711,-924.4278 382.9362,-987.7395"/>
<polygon fill="#555555" stroke="#555555" points="379.6317,-988.897 386.0096,-997.3571 386.2995,-986.7662 379.6317,-988.897"/>
<text text-anchor="middle" x="386.0063" y="-756.0957" font-family="Roboto Mono" font-size="10.00" fill="#555555">accesses (via</text>
<text text-anchor="middle" x="386.0063" y="-742.9072" font-family="Roboto Mono" font-size="10.00" fill="#555555">public IP)</text>
</g>
<!-- cloudfront_distribution&#45;&gt;elb -->
<g id="edge10" class="edge">
<title>cloudfront_distribution&#45;&gt;elb</title>
<path fill="none" stroke="#555555" d="M454.8257,-458.1438C446.0544,-451.3371 436.9858,-443.8577 428.9873,-436.3864 411.9425,-420.4652 394.601,-400.6322 381.8338,-385.1989"/>
<polygon fill="#555555" stroke="#555555" points="384.2795,-382.6604 375.2425,-377.1303 378.8584,-387.089 384.2795,-382.6604"/>
<text text-anchor="middle" x="468.0063" y="-428.3864" font-family="Roboto Mono" font-size="10.00" fill="#555555">accesses (via</text>
<text text-anchor="middle" x="468.0063" y="-415.1979" font-family="Roboto Mono" font-size="10.00" fill="#555555">public IP)</text>
</g>
<!-- cloudfront_distribution&#45;&gt;s3_bucket -->
<g id="edge11" class="edge">
<title>cloudfront_distribution&#45;&gt;s3_bucket</title>
<path fill="none" stroke="#555555" d="M513.7037,-455.0025C524.4637,-439.8982 538.8717,-422.393 554.9883,-410.0095 573.0391,-396.1397 595.5585,-385.2135 615.734,-377.175"/>
<polygon fill="#555555" stroke="#555555" points="617.0351,-380.4247 625.1162,-373.5729 614.5261,-373.8897 617.0351,-380.4247"/>
<text text-anchor="middle" x="591.0059" y="-428.3864" font-family="Roboto Mono" font-size="10.00" fill="#555555">accesses</text>
<text text-anchor="middle" x="591.0059" y="-415.1979" font-family="Roboto Mono" font-size="10.00" fill="#555555">(internally)</text>
</g>
<!-- cloudwatch_events_rule -->
<g id="node10" class="node">
<title>cloudwatch_events_rule</title>
<ellipse fill="#f3bb44" stroke="#f3bb44" cx="1416" cy="-360.2408" rx="76.8224" ry="31.5391"/>
<text text-anchor="middle" x="1416" y="-367.5046" font-family="Roboto Mono" font-size="14.00" fill="#000000">CloudWatch</text>
<text text-anchor="middle" x="1416" y="-349.0408" font-family="Roboto Mono" font-size="14.00" fill="#000000">Events Rule</text>
</g>
<!-- cloudwatch_events_rule&#45;&gt;lambda_function -->
<g id="edge12" class="edge">
<title>cloudwatch_events_rule&#45;&gt;lambda_function</title>
<path fill="none" stroke="#555555" d="M1367.2136,-335.5237C1355.0824,-328.2809 1342.5406,-319.7778 1331.9863,-310.4721 1319.494,-299.4576 1323.3655,-289.304 1309,-280.8773 1266.2573,-255.8047 1132.7843,-241.9523 1049.8627,-235.5643"/>
<polygon fill="#555555" stroke="#555555" points="1049.9957,-232.0645 1039.7611,-234.8036 1049.47,-239.0447 1049.9957,-232.0645"/>
<text text-anchor="middle" x="1373.0068" y="-302.4721" font-family="Roboto Mono" font-size="10.00" fill="#555555">triggers (when</text>
<text text-anchor="middle" x="1373.0068" y="-289.2836" font-family="Roboto Mono" font-size="10.00" fill="#555555">scheduled ⏰)</text>
</g>
<!-- cloudwatch_events_rule&#45;&gt;region -->
<g id="edge13" class="edge">
<title>cloudwatch_events_rule&#45;&gt;region</title>
<path fill="none" stroke="#555555" d="M1423.6128,-328.5919C1425.5533,-313.0584 1424.9913,-294.7529 1416,-280.8773 1301.0773,-103.5264 1182.7628,-152.6055 982,-86.614 893.7028,-57.5904 787.2318,-37.4581 724.2681,-27.0202"/>
<polygon fill="#555555" stroke="#555555" points="724.6017,-23.5283 714.1677,-25.3673 723.4711,-30.4364 724.6017,-23.5283"/>
<text text-anchor="middle" x="1350.0049" y="-173.3399" font-family="Roboto Mono" font-size="10.00" fill="#555555">belongs to</text>
</g>
<!-- compute_instance&#45;&gt;ec2_instance -->
<g id="edge14" class="edge">
<title>compute_instance&#45;&gt;ec2_instance</title>
<path fill="none" stroke="#555555" d="M882.3273,-917.7317C820.3579,-933.495 718.9114,-958.9039 631,-979.0791 574.2403,-992.1051 509.4606,-1005.7919 462.4727,-1015.5081"/>
<polygon fill="#555555" stroke="#555555" points="461.5134,-1012.1323 452.427,-1017.581 462.928,-1018.9878 461.5134,-1012.1323"/>
<text text-anchor="middle" x="780.0063" y="-971.0791" font-family="Roboto Mono" font-size="10.00" fill="#555555">triggers (via</text>
<text text-anchor="middle" x="780.0063" y="-957.8906" font-family="Roboto Mono" font-size="10.00" fill="#555555">internal IP)</text>
</g>
<!-- compute_instance&#45;&gt;lambda_function -->
<g id="edge16" class="edge">
<title>compute_instance&#45;&gt;lambda_function</title>
<path fill="none" stroke="#555555" d="M941.1306,-871.0051C943.4645,-807.2697 949.2517,-659.7443 956.9922,-535.9238 962.866,-441.9634 972.1237,-331.8966 977.2576,-273.1355"/>
<polygon fill="#555555" stroke="#555555" points="980.7488,-273.3883 978.1361,-263.1206 973.7756,-272.7765 980.7488,-273.3883"/>
<text text-anchor="middle" x="980.0039" y="-541.1123" font-family="Roboto Mono" font-size="10.00" fill="#555555">triggers</text>
</g>
<!-- compute_instance&#45;&gt;service -->
<g id="edge17" class="edge">
<title>compute_instance&#45;&gt;service</title>
<path fill="none" stroke="#555555" d="M976.378,-876.3695C986.6151,-868.8777 997.7514,-860.7122 1008,-853.1647 1028.667,-837.9449 1051.0371,-821.3996 1071.6287,-806.1408"/>
<polygon fill="#555555" stroke="#555555" points="1073.7771,-808.905 1079.7267,-800.1383 1069.6087,-803.2813 1073.7771,-808.905"/>
<text text-anchor="middle" x="1066.0039" y="-838.5705" font-family="Roboto Mono" font-size="10.00" fill="#555555">accesses</text>
</g>
<!-- internet -->
<g id="node12" class="node">
<title>internet</title>
<ellipse fill="#aaddff" stroke="#aaddff" cx="549" cy="-750.9072" rx="58.6785" ry="34.9083"/>
<text text-anchor="middle" x="549" y="-760.4235" font-family="Roboto Mono" font-size="14.00" fill="#000000">️️Internet</text>
<text text-anchor="middle" x="549" y="-741.9597" font-family="Roboto Mono" font-size="14.00" fill="#000000">☁️</text>
</g>
<!-- compute_instance&#45;&gt;internet -->
<g id="edge15" class="edge">
<title>compute_instance&#45;&gt;internet</title>
<path fill="none" stroke="#555555" d="M887.1313,-884.5626C863.2536,-875.7911 834.8791,-864.7013 809.9922,-853.1647 787.9103,-842.9284 784.2001,-836.7653 762,-826.7878 712.5051,-804.5429 654.3577,-784.1968 611.3332,-770.1849"/>
<polygon fill="#555555" stroke="#555555" points="612.1574,-766.773 601.5656,-767.0279 610.0045,-773.4338 612.1574,-766.773"/>
<text text-anchor="middle" x="833.0039" y="-838.5705" font-family="Roboto Mono" font-size="10.00" fill="#555555">accesses</text>
</g>
<!-- sns_topic -->
<g id="node13" class="node">
<title>sns_topic</title>
<ellipse fill="#f3bb44" stroke="#f3bb44" cx="816" cy="-360.2408" rx="41.0341" ry="31.5391"/>
<text text-anchor="middle" x="816" y="-367.5046" font-family="Roboto Mono" font-size="14.00" fill="#000000">SNS</text>
<text text-anchor="middle" x="816" y="-349.0408" font-family="Roboto Mono" font-size="14.00" fill="#000000">Topic</text>
</g>
<!-- compute_instance&#45;&gt;sns_topic -->
<g id="edge18" class="edge">
<title>compute_instance&#45;&gt;sns_topic</title>
<path fill="none" stroke="#555555" d="M915.6012,-873.3601C911.2248,-866.9877 907.0829,-860.0801 904,-853.1647 834.3582,-696.9483 819.784,-489.6917 816.7682,-402.1252"/>
<polygon fill="#555555" stroke="#555555" points="820.2641,-401.9375 816.4548,-392.0512 813.2675,-402.1552 820.2641,-401.9375"/>
<text text-anchor="middle" x="864.0039" y="-597.4753" font-family="Roboto Mono" font-size="10.00" fill="#555555">accesses</text>
</g>
<!-- sqs_queue -->
<g id="node14" class="node">
<title>sqs_queue</title>
<ellipse fill="#f3bb44" stroke="#f3bb44" cx="816" cy="-231.1086" rx="41.0341" ry="31.5391"/>
<text text-anchor="middle" x="816" y="-238.3725" font-family="Roboto Mono" font-size="14.00" fill="#000000">SQS</text>
<text text-anchor="middle" x="816" y="-219.9086" font-family="Roboto Mono" font-size="14.00" fill="#000000">Queue</text>
</g>
<!-- compute_instance&#45;&gt;sqs_queue -->
<g id="edge19" class="edge">
<title>compute_instance&#45;&gt;sqs_queue</title>
<path fill="none" stroke="#555555" d="M936.7809,-871.1339C924.0817,-746.0695 877.8201,-294.2085 871,-280.8773 866.9531,-272.9669 861.0921,-265.7051 854.689,-259.317"/>
<polygon fill="#555555" stroke="#555555" points="856.7255,-256.4343 846.9994,-252.2327 851.9825,-261.5826 856.7255,-256.4343"/>
<text text-anchor="middle" x="926.0039" y="-541.1123" font-family="Roboto Mono" font-size="10.00" fill="#555555">accesses</text>
</g>
<!-- internet&#45;&gt;api_gateway_api -->
<g id="edge32" class="edge">
<title>internet&#45;&gt;api_gateway_api</title>
<path fill="none" stroke="#555555" d="M547.2693,-785.8916C545.2185,-822.9371 541.2665,-883.079 535,-934.7022 532.6178,-954.3264 526.8772,-959.984 531.9922,-979.0791 547.1828,-1035.7881 583.9671,-1093.0957 610.6113,-1129.4693"/>
<polygon fill="#555555" stroke="#555555" points="608.032,-1131.8663 616.8075,-1137.8027 613.6494,-1127.6895 608.032,-1131.8663"/>
<text text-anchor="middle" x="556.0039" y="-964.4849" font-family="Roboto Mono" font-size="10.00" fill="#555555">triggers</text>
</g>
<!-- internet&#45;&gt;ec2_instance -->
<g id="edge34" class="edge">
<title>internet&#45;&gt;ec2_instance</title>
<path fill="none" stroke="#555555" d="M521.3201,-781.8107C501.479,-805.1212 475.1559,-838.5551 456.9873,-871.1647 436.0584,-908.7287 419.4054,-955.0677 409.0071,-987.7627"/>
<polygon fill="#555555" stroke="#555555" points="405.6231,-986.8578 405.9831,-997.4465 412.3049,-988.9444 405.6231,-986.8578"/>
<text text-anchor="middle" x="496.0063" y="-914.7162" font-family="Roboto Mono" font-size="10.00" fill="#555555">triggers (via</text>
<text text-anchor="middle" x="496.0063" y="-901.5277" font-family="Roboto Mono" font-size="10.00" fill="#555555">public or</text>
<text text-anchor="middle" x="496.0063" y="-888.3392" font-family="Roboto Mono" font-size="10.00" fill="#555555">Elastic IP)</text>
</g>
<!-- internet&#45;&gt;elb -->
<g id="edge35" class="edge">
<title>internet&#45;&gt;elb</title>
<path fill="none" stroke="#555555" d="M565.1214,-716.8861C593.8154,-656.3383 650.7846,-536.1527 650.9922,-535.9238 661.4413,-524.4048 673.3367,-531.4569 681,-517.9238 694.9147,-493.3512 699.7064,-475.5407 681,-454.3864 659.345,-429.8976 564.5887,-450.2842 535,-436.3864 519.5253,-429.118 521.6367,-418.8448 507,-410.0095 473.3245,-389.6814 430.2042,-376.2372 399.7682,-368.5037"/>
<polygon fill="#555555" stroke="#555555" points="400.5107,-365.0821 389.9647,-366.0983 398.8425,-371.8805 400.5107,-365.0821"/>
<text text-anchor="middle" x="675.0039" y="-541.1123" font-family="Roboto Mono" font-size="10.00" fill="#555555">triggers</text>
</g>
<!-- internet&#45;&gt;s3_bucket -->
<g id="edge37" class="edge">
<title>internet&#45;&gt;s3_bucket</title>
<path fill="none" stroke="#555555" d="M587.977,-724.3027C605.2786,-711.032 624.875,-693.8116 639,-675.0267 684.9401,-613.9306 693.0964,-592.6921 709,-517.9238 714.8751,-490.3029 714.7585,-482.0319 709,-454.3864 705.0797,-435.566 697.1872,-415.8962 689.3645,-399.432"/>
<polygon fill="#555555" stroke="#555555" points="692.3493,-397.57 684.7972,-390.1392 686.0671,-400.6577 692.3493,-397.57"/>
<text text-anchor="middle" x="729.0039" y="-541.1123" font-family="Roboto Mono" font-size="10.00" fill="#555555">accesses</text>
</g>
<!-- internet&#45;&gt;cloudfront_distribution -->
<g id="edge33" class="edge">
<title>internet&#45;&gt;cloudfront_distribution</title>
<path fill="none" stroke="#555555" d="M552.7958,-716.0118C556.1738,-672.2931 557.4706,-595.8436 534,-535.9238 532.4763,-532.0339 530.5343,-528.2106 528.3302,-524.5187"/>
<polygon fill="#555555" stroke="#555555" points="531.2345,-522.5653 522.7852,-516.1732 525.4041,-526.4393 531.2345,-522.5653"/>
<text text-anchor="middle" x="578.0039" y="-597.4753" font-family="Roboto Mono" font-size="10.00" fill="#555555">accesses</text>
</g>
<!-- route_53_zone -->
<g id="node22" class="node">
<title>route_53_zone</title>
<ellipse fill="#f3bb44" stroke="#f3bb44" cx="454" cy="-598.881" rx="58.6785" ry="31.5391"/>
<text text-anchor="middle" x="454" y="-606.1449" font-family="Roboto Mono" font-size="14.00" fill="#000000">Route 53</text>
<text text-anchor="middle" x="454" y="-587.681" font-family="Roboto Mono" font-size="14.00" fill="#000000">Zone</text>
</g>
<!-- internet&#45;&gt;route_53_zone -->
<g id="edge36" class="edge">
<title>internet&#45;&gt;route_53_zone</title>
<path fill="none" stroke="#555555" d="M520.6844,-720.2483C509.3104,-706.9723 496.6373,-690.865 486.9922,-675.0267 480.3183,-664.0674 474.2949,-651.5174 469.2771,-639.8098"/>
<polygon fill="#555555" stroke="#555555" points="472.3679,-638.1257 465.3065,-630.2271 465.9011,-640.8052 472.3679,-638.1257"/>
<text text-anchor="middle" x="511.0039" y="-660.4324" font-family="Roboto Mono" font-size="10.00" fill="#555555">triggers</text>
</g>
<!-- sns_topic&#45;&gt;lambda_function -->
<g id="edge46" class="edge">
<title>sns_topic&#45;&gt;lambda_function</title>
<path fill="none" stroke="#555555" d="M845.1189,-337.4518C871.2496,-317.0014 909.9014,-286.7517 939.3077,-263.7378"/>
<polygon fill="#555555" stroke="#555555" points="941.6206,-266.3721 947.3386,-257.4527 937.3064,-260.8596 941.6206,-266.3721"/>
<text text-anchor="middle" x="937.0039" y="-294.2689" font-family="Roboto Mono" font-size="10.00" fill="#555555">triggers</text>
</g>
<!-- sns_topic&#45;&gt;region -->
<g id="edge47" class="edge">
<title>sns_topic&#45;&gt;region</title>
<path fill="none" stroke="#555555" d="M777.8967,-347.906C759.4872,-340.0337 738.687,-327.9589 726,-310.4721 710.5827,-289.222 684.2656,-117.2164 674.1393,-47.7017"/>
<polygon fill="#555555" stroke="#555555" points="677.554,-46.8592 672.6573,-37.4638 670.6262,-47.8621 677.554,-46.8592"/>
<text text-anchor="middle" x="726.0049" y="-173.3399" font-family="Roboto Mono" font-size="10.00" fill="#555555">belongs to</text>
</g>
<!-- sns_topic&#45;&gt;sqs_queue -->
<g id="edge48" class="edge">
<title>sns_topic&#45;&gt;sqs_queue</title>
<path fill="none" stroke="#555555" d="M816,-328.3205C816,-311.7131 816,-291.1954 816,-273.2961"/>
<polygon fill="#555555" stroke="#555555" points="819.5001,-273.1092 816,-263.1093 812.5001,-273.1093 819.5001,-273.1092"/>
<text text-anchor="middle" x="843.0044" y="-294.2689" font-family="Roboto Mono" font-size="10.00" fill="#555555">pushes to</text>
</g>
<!-- sqs_queue&#45;&gt;region -->
<g id="edge49" class="edge">
<title>sqs_queue&#45;&gt;region</title>
<path fill="none" stroke="#555555" d="M805.7761,-200.283C792.1646,-162.7596 765.1653,-99.0169 726,-55.4256 720.5917,-49.406 713.9841,-43.9457 707.2293,-39.1855"/>
<polygon fill="#555555" stroke="#555555" points="708.9483,-36.1265 698.6738,-33.5409 705.0934,-41.9694 708.9483,-36.1265"/>
<text text-anchor="middle" x="814.0049" y="-116.977" font-family="Roboto Mono" font-size="10.00" fill="#555555">belongs to</text>
</g>
<!-- ec2_security_group&#45;&gt;vpc -->
<g id="edge23" class="edge">
<title>ec2_security_group&#45;&gt;vpc</title>
<path fill="none" stroke="#555555" d="M362,-199.1074C362,-182.9241 362,-163.4228 362,-147.6419"/>
<polygon fill="#555555" stroke="#555555" points="365.5001,-147.3975 362,-137.3976 358.5001,-147.3976 365.5001,-147.3975"/>
<text text-anchor="middle" x="392.0049" y="-173.3399" font-family="Roboto Mono" font-size="10.00" fill="#555555">belongs to</text>
</g>
<!-- vpc_subnet&#45;&gt;availability_zone -->
<g id="edge52" class="edge">
<title>vpc_subnet&#45;&gt;availability_zone</title>
<path fill="none" stroke="#555555" d="M76.3892,-199.2766C76.0652,-188.7308 77.4976,-177.349 82.9902,-168.1514 88.1644,-159.4872 95.4472,-152.2139 103.643,-146.1417"/>
<polygon fill="#555555" stroke="#555555" points="105.7487,-148.9437 112.099,-140.4629 101.846,-143.1325 105.7487,-148.9437"/>
<text text-anchor="middle" x="113.0049" y="-173.3399" font-family="Roboto Mono" font-size="10.00" fill="#555555">belongs to</text>
</g>
<!-- vpc_subnet&#45;&gt;vpc -->
<g id="edge53" class="edge">
<title>vpc_subnet&#45;&gt;vpc</title>
<path fill="none" stroke="#555555" d="M111.7412,-206.524C130.9639,-191.0925 154.4705,-173.1916 165.9902,-168.1514 206.565,-150.399 221.0617,-161.0037 264,-150.1514 285.166,-144.802 308.4276,-137.3314 326.9744,-130.9786"/>
<polygon fill="#555555" stroke="#555555" points="328.1782,-134.2657 336.4779,-127.6804 325.8831,-127.6526 328.1782,-134.2657"/>
<text text-anchor="middle" x="196.0049" y="-173.3399" font-family="Roboto Mono" font-size="10.00" fill="#555555">belongs to</text>
</g>
<!-- vpc&#45;&gt;region -->
<g id="edge51" class="edge">
<title>vpc&#45;&gt;region</title>
<path fill="none" stroke="#555555" d="M388.2039,-109.7762C425.3071,-97.6032 495.2895,-74.6918 554.9902,-55.4256 577.5479,-48.1459 602.6196,-40.1335 623.5821,-33.4563"/>
<polygon fill="#555555" stroke="#555555" points="624.739,-36.7611 633.2061,-30.3925 622.6156,-30.0909 624.739,-36.7611"/>
<text text-anchor="middle" x="585.0049" y="-60.614" font-family="Roboto Mono" font-size="10.00" fill="#555555">belongs to</text>
</g>
<!-- vpc&#45;&gt;internet -->
<g id="edge50" class="edge">
<title>vpc&#45;&gt;internet</title>
<path fill="none" stroke="#555555" d="M337.9702,-129.2359C312.9888,-142.0013 275.3027,-165.7903 259,-199.3399 212.8358,-294.3418 244.1272,-335.6827 275.9902,-436.3864 305.922,-530.9861 320.1864,-556.3962 386,-630.6497 418.2555,-667.0416 463.2238,-699.2066 497.7597,-721.0928"/>
<polygon fill="#555555" stroke="#555555" points="495.9663,-724.0993 506.3012,-726.432 499.6767,-718.1635 495.9663,-724.0993"/>
<text text-anchor="middle" x="306.0049" y="-428.3864" font-family="Roboto Mono" font-size="10.00" fill="#555555">exposed to</text>
<text text-anchor="middle" x="306.0049" y="-415.1979" font-family="Roboto Mono" font-size="10.00" fill="#555555">(optional)</text>
</g>
<!-- iam_group -->
<g id="node18" class="node">
<title>iam_group</title>
<ellipse fill="#f3bb44" stroke="#f3bb44" cx="1368" cy="-1028.8478" rx="41.0341" ry="31.5391"/>
<text text-anchor="middle" x="1368" y="-1036.1117" font-family="Roboto Mono" font-size="14.00" fill="#000000">IAM</text>
<text text-anchor="middle" x="1368" y="-1017.6478" font-family="Roboto Mono" font-size="14.00" fill="#000000">Group</text>
</g>
<!-- iam_policy -->
<g id="node19" class="node">
<title>iam_policy</title>
<ellipse fill="#f3bb44" stroke="#f3bb44" cx="1373" cy="-902.9335" rx="46.9154" ry="31.5391"/>
<text text-anchor="middle" x="1373" y="-910.1973" font-family="Roboto Mono" font-size="14.00" fill="#000000">IAM</text>
<text text-anchor="middle" x="1373" y="-891.7335" font-family="Roboto Mono" font-size="14.00" fill="#000000">Policy</text>
</g>
<!-- iam_group&#45;&gt;iam_policy -->
<g id="edge27" class="edge">
<title>iam_group&#45;&gt;iam_policy</title>
<path fill="none" stroke="#555555" d="M1369.2617,-997.0743C1369.8894,-981.2673 1370.6564,-961.9516 1371.332,-944.9396"/>
<polygon fill="#555555" stroke="#555555" points="1374.8391,-944.8278 1371.7387,-934.6968 1367.8446,-944.55 1374.8391,-944.8278"/>
<text text-anchor="middle" x="1379.0015" y="-964.4849" font-family="Roboto Mono" font-size="10.00" fill="#555555">has</text>
</g>
<!-- iam_policy&#45;&gt;service -->
<g id="edge28" class="edge">
<title>iam_policy&#45;&gt;service</title>
<path fill="none" stroke="#555555" d="M1339.5054,-880.5015C1309.6947,-860.5367 1264.9023,-830.5383 1225.9184,-804.4301"/>
<polygon fill="#555555" stroke="#555555" points="1227.4384,-801.2357 1217.182,-798.5791 1223.5431,-807.0518 1227.4384,-801.2357"/>
<text text-anchor="middle" x="1320.0044" y="-845.1647" font-family="Roboto Mono" font-size="10.00" fill="#555555">defines</text>
<text text-anchor="middle" x="1320.0044" y="-831.9763" font-family="Roboto Mono" font-size="10.00" fill="#555555">access to</text>
</g>
<!-- iam_role -->
<g id="node20" class="node">
<title>iam_role</title>
<ellipse fill="#f3bb44" stroke="#f3bb44" cx="1235" cy="-1028.8478" rx="35.1529" ry="31.5391"/>
<text text-anchor="middle" x="1235" y="-1036.1117" font-family="Roboto Mono" font-size="14.00" fill="#000000">IAM</text>
<text text-anchor="middle" x="1235" y="-1017.6478" font-family="Roboto Mono" font-size="14.00" fill="#000000">Role</text>
</g>
<!-- iam_role&#45;&gt;iam_policy -->
<g id="edge29" class="edge">
<title>iam_role&#45;&gt;iam_policy</title>
<path fill="none" stroke="#555555" d="M1259.9908,-1006.0457C1281.5774,-986.3496 1313.027,-957.6542 1337.2715,-935.533"/>
<polygon fill="#555555" stroke="#555555" points="1339.8402,-937.9272 1344.8683,-928.6015 1335.122,-932.7562 1339.8402,-937.9272"/>
<text text-anchor="middle" x="1325.0015" y="-964.4849" font-family="Roboto Mono" font-size="10.00" fill="#555555">has</text>
</g>
<!-- iam_user -->
<g id="node21" class="node">
<title>iam_user</title>
<ellipse fill="#f3bb44" stroke="#f3bb44" cx="1407" cy="-1167.9507" rx="35.1529" ry="31.5391"/>
<text text-anchor="middle" x="1407" y="-1175.2145" font-family="Roboto Mono" font-size="14.00" fill="#000000">IAM</text>
<text text-anchor="middle" x="1407" y="-1156.7507" font-family="Roboto Mono" font-size="14.00" fill="#000000">User</text>
</g>
<!-- iam_user&#45;&gt;iam_group -->
<g id="edge30" class="edge">
<title>iam_user&#45;&gt;iam_group</title>
<path fill="none" stroke="#555555" d="M1384.7582,-1143.2531C1379.2358,-1135.7165 1374.0306,-1127.061 1370.9902,-1118.182 1365.8845,-1103.2713 1364.3593,-1086.131 1364.3773,-1070.877"/>
<polygon fill="#555555" stroke="#555555" points="1367.8811,-1070.7461 1364.6112,-1060.6685 1360.883,-1070.5857 1367.8811,-1070.7461"/>
<text text-anchor="middle" x="1400.0049" y="-1096.9935" font-family="Roboto Mono" font-size="10.00" fill="#555555">belongs to</text>
</g>
<!-- iam_user&#45;&gt;iam_policy -->
<g id="edge31" class="edge">
<title>iam_user&#45;&gt;iam_policy</title>
<path fill="none" stroke="#555555" d="M1423.3788,-1139.5424C1426.5276,-1132.7542 1429.3545,-1125.3826 1431,-1118.182 1434.9175,-1101.0392 1432.3887,-1096.1462 1431,-1078.6165 1428.1021,-1042.0346 1428.9144,-1032.115 1418,-997.0791 1412.1897,-978.4277 1403.2897,-958.7845 1394.9339,-942.2945"/>
<polygon fill="#555555" stroke="#555555" points="1397.815,-940.2474 1390.1045,-932.9812 1391.6008,-943.4698 1397.815,-940.2474"/>
<text text-anchor="middle" x="1438.0015" y="-1027.4421" font-family="Roboto Mono" font-size="10.00" fill="#555555">has</text>
</g>
<!-- route_53_zone&#45;&gt;ec2_instance -->
<g id="edge41" class="edge">
<title>route_53_zone&#45;&gt;ec2_instance</title>
<path fill="none" stroke="#555555" d="M456.4863,-630.9088C458.4471,-673.7011 457.1405,-750.8525 429,-808.7878 424.0551,-818.9684 415.6782,-816.4881 410.9863,-826.7878 387.5544,-878.2267 388.0345,-944.7346 391.6358,-987.1064"/>
<polygon fill="#555555" stroke="#555555" points="388.1524,-987.4472 392.5787,-997.0731 395.1212,-986.7879 388.1524,-987.4472"/>
<text text-anchor="middle" x="438.0068" y="-838.5705" font-family="Roboto Mono" font-size="10.00" fill="#555555">refers to</text>
</g>
<!-- route_53_zone&#45;&gt;elb -->
<g id="edge42" class="edge">
<title>route_53_zone&#45;&gt;elb</title>
<path fill="none" stroke="#555555" d="M409.7584,-577.6878C386.806,-564.0992 360.9223,-544.0788 347.9863,-517.9238 327.4269,-476.3551 340.0587,-421.0785 351.0589,-388.2245"/>
<polygon fill="#555555" stroke="#555555" points="354.5016,-388.9861 354.529,-378.3913 347.9006,-386.6566 354.5016,-388.9861"/>
<text text-anchor="middle" x="375.0068" y="-484.7494" font-family="Roboto Mono" font-size="10.00" fill="#555555">refers to</text>
</g>
<!-- route_53_zone&#45;&gt;s3_bucket -->
<g id="edge43" class="edge">
<title>route_53_zone&#45;&gt;s3_bucket</title>
<path fill="none" stroke="#555555" d="M499.5669,-578.7317C527.2098,-564.7559 561.7172,-543.9847 586,-517.9238 617.6848,-483.919 640.4726,-435.3387 653.8636,-401.1084"/>
<polygon fill="#555555" stroke="#555555" points="657.2655,-402.0097 657.554,-391.4188 650.7239,-399.5182 657.2655,-402.0097"/>
<text text-anchor="middle" x="656.0068" y="-484.7494" font-family="Roboto Mono" font-size="10.00" fill="#555555">refers to</text>
</g>
<!-- route_53_zone&#45;&gt;cloudfront_distribution -->
<g id="edge40" class="edge">
<title>route_53_zone&#45;&gt;cloudfront_distribution</title>
<path fill="none" stroke="#555555" d="M465.1422,-567.4806C469.5264,-555.1253 474.6223,-540.7644 479.301,-527.5792"/>
<polygon fill="#555555" stroke="#555555" points="482.7331,-528.3729 482.7788,-517.7781 476.1361,-526.0319 482.7331,-528.3729"/>
<text text-anchor="middle" x="503.0068" y="-541.1123" font-family="Roboto Mono" font-size="10.00" fill="#555555">refers to</text>
</g>
</g>
</svg>
