<?xml version="1.0" encoding="UTF-8" standalone="no"?>
<!DOCTYPE svg PUBLIC "-//W3C//DTD SVG 1.1//EN"
 "http://www.w3.org/Graphics/SVG/1.1/DTD/svg11.dtd">
<!-- Generated by graphviz version 2.40.1 (20161225.0304)
 -->
<!-- Title: %3 Pages: 1 -->
<svg width="1646pt" height="1453pt"
 viewBox="0.00 0.00 1646.00 1453.00" xmlns="http://www.w3.org/2000/svg" xmlns:xlink="http://www.w3.org/1999/xlink">
<g id="graph0" class="graph" transform="scale(1 1) rotate(0) translate(4 1448.9956)">
<title>%3</title>
<polygon fill="#ffffff" stroke="transparent" points="-4,4 -4,-1448.9956 1642.0029,-1448.9956 1642.0029,4 -4,4"/>
<!-- api_gateway_api -->
<g id="node1" class="node">
<title>api_gateway_api</title>
<ellipse fill="#f3bb44" stroke="#f3bb44" cx="874" cy="-1413.2269" rx="76.8224" ry="31.5391"/>
<text text-anchor="middle" x="874" y="-1420.4907" font-family="Roboto Mono" font-size="14.00" fill="#000000">API Gateway</text>
<text text-anchor="middle" x="874" y="-1402.0269" font-family="Roboto Mono" font-size="14.00" fill="#000000">API</text>
</g>
<!-- ec2_instance -->
<g id="node2" class="node">
<title>ec2_instance</title>
<ellipse fill="#f3bb44" stroke="#f3bb44" cx="705" cy="-1274.124" rx="58.6785" ry="31.5391"/>
<text text-anchor="middle" x="705" y="-1281.3879" font-family="Roboto Mono" font-size="14.00" fill="#000000">EC2</text>
<text text-anchor="middle" x="705" y="-1262.924" font-family="Roboto Mono" font-size="14.00" fill="#000000">Instance</text>
</g>
<!-- api_gateway_api&#45;&gt;ec2_instance -->
<g id="edge1" class="edge">
<title>api_gateway_api&#45;&gt;ec2_instance</title>
<path fill="none" stroke="#555555" d="M802.2126,-1401.6377C760.0971,-1393.2112 712.7092,-1380.33 699.9863,-1363.4582 689.8401,-1350.0032 689.1935,-1331.9093 691.8173,-1315.5243"/>
<polygon fill="#555555" stroke="#555555" points="695.2727,-1316.0944 693.8179,-1305.6 688.4107,-1314.7111 695.2727,-1316.0944"/>
<text text-anchor="middle" x="742.0068" y="-1355.4582" font-family="Roboto Mono" font-size="10.00" fill="#555555">accesses</text>
<text text-anchor="middle" x="742.0068" y="-1342.2697" font-family="Roboto Mono" font-size="10.00" fill="#555555">(via internal</text>
<text text-anchor="middle" x="742.0068" y="-1329.0812" font-family="Roboto Mono" font-size="10.00" fill="#555555">HTTP endpoint)</text>
</g>
<!-- elb -->
<g id="node3" class="node">
<title>elb</title>
<ellipse fill="#f3bb44" stroke="#f3bb44" cx="543" cy="-247.5149" rx="29.272" ry="18.928"/>
<text text-anchor="middle" x="543" y="-245.5468" font-family="Roboto Mono" font-size="14.00" fill="#000000">ELB</text>
</g>
<!-- api_gateway_api&#45;&gt;elb -->
<g id="edge2" class="edge">
<title>api_gateway_api&#45;&gt;elb</title>
<path fill="none" stroke="#555555" d="M797.9656,-1408.5336C591.8824,-1394.8034 38,-1350.7718 38,-1274.124 38,-1274.124 38,-1274.124 38,-900.5202 38,-768.4794 86.2043,-530.5725 157,-423.1979 236.9025,-302.0112 422.6629,-263.2864 503.8486,-251.8862"/>
<polygon fill="#555555" stroke="#555555" points="504.6845,-255.3057 514.1323,-250.5109 503.7566,-248.3674 504.6845,-255.3057"/>
<text text-anchor="middle" x="76.0039" y="-766.6058" font-family="Roboto Mono" font-size="10.00" fill="#555555">accesses</text>
</g>
<!-- lambda_function -->
<g id="node4" class="node">
<title>lambda_function</title>
<ellipse fill="#f3bb44" stroke="#f3bb44" cx="1125" cy="-118.3827" rx="58.6785" ry="31.5391"/>
<text text-anchor="middle" x="1125" y="-125.6466" font-family="Roboto Mono" font-size="14.00" fill="#000000">Lambda</text>
<text text-anchor="middle" x="1125" y="-107.1827" font-family="Roboto Mono" font-size="14.00" fill="#000000">Function</text>
</g>
<!-- api_gateway_api&#45;&gt;lambda_function -->
<g id="edge3" class="edge">
<title>api_gateway_api&#45;&gt;lambda_function</title>
<path fill="none" stroke="#555555" d="M938.7299,-1396.045C964.0133,-1387.9821 992.7058,-1377.104 1017,-1363.4582 1178.6013,-1272.688 1255.2492,-1263.7891 1339,-1098.441 1378.8087,-1019.8472 1350,-988.6207 1350,-900.5202 1350,-900.5202 1350,-900.5202 1350,-542.5181 1350,-404.9114 1248.2276,-402.5182 1187,-279.2836 1167.4445,-239.9237 1149.9277,-192.7904 1138.5427,-159.7445"/>
<polygon fill="#555555" stroke="#555555" points="1141.749,-158.3023 1135.2109,-149.9654 1135.123,-160.5598 1141.749,-158.3023"/>
<text text-anchor="middle" x="1374.0039" y="-716.7046" font-family="Roboto Mono" font-size="10.00" fill="#555555">triggers</text>
</g>
<!-- region -->
<g id="node5" class="node">
<title>region</title>
<ellipse fill="#f3bb44" stroke="#f3bb44" cx="1030" cy="-18.7128" rx="46.9154" ry="18.928"/>
<text text-anchor="middle" x="1030" y="-16.7447" font-family="Roboto Mono" font-size="14.00" fill="#000000">Region</text>
</g>
<!-- api_gateway_api&#45;&gt;region -->
<g id="edge4" class="edge">
<title>api_gateway_api&#45;&gt;region</title>
<path fill="none" stroke="#555555" d="M797.3197,-1410.3916C618.425,-1403.4577 183.8483,-1384.6535 121,-1363.4582 57.6585,-1342.0966 0,-1340.9706 0,-1274.124 0,-1274.124 0,-1274.124 0,-118.3827 0,9.6023 154.1742,-72.612 281,-55.4256 414.4685,-37.3389 821.4725,-24.5063 972.6596,-20.2498"/>
<polygon fill="#555555" stroke="#555555" points="973.1974,-23.7362 983.0957,-19.9582 973.0018,-16.739 973.1974,-23.7362"/>
<text text-anchor="middle" x="30.0049" y="-666.8033" font-family="Roboto Mono" font-size="10.00" fill="#555555">belongs to</text>
</g>
<!-- s3_bucket -->
<g id="node6" class="node">
<title>s3_bucket</title>
<ellipse fill="#f3bb44" stroke="#f3bb44" cx="984" cy="-247.5149" rx="46.9154" ry="31.5391"/>
<text text-anchor="middle" x="984" y="-254.7787" font-family="Roboto Mono" font-size="14.00" fill="#000000">S3</text>
<text text-anchor="middle" x="984" y="-236.3149" font-family="Roboto Mono" font-size="14.00" fill="#000000">Bucket</text>
</g>
<!-- api_gateway_api&#45;&gt;s3_bucket -->
<g id="edge5" class="edge">
<title>api_gateway_api&#45;&gt;s3_bucket</title>
<path fill="none" stroke="#555555" d="M931.3592,-1391.9581C978.6521,-1370.2789 1038,-1331.6195 1038,-1274.124 1038,-1274.124 1038,-1274.124 1038,-900.5202 1038,-687.9584 1023.0814,-635.2241 1008,-423.1979 1004.017,-367.2013 1007.8699,-352.5473 998,-297.2836 997.4896,-294.4257 996.8847,-291.4955 996.2173,-288.557"/>
<polygon fill="#555555" stroke="#555555" points="999.5587,-287.4897 993.7541,-278.6265 992.7646,-289.175 999.5587,-287.4897"/>
<text text-anchor="middle" x="1060.0039" y="-766.6058" font-family="Roboto Mono" font-size="10.00" fill="#555555">accesses</text>
</g>
<!-- service -->
<g id="node7" class="node">
<title>service</title>
<ellipse fill="#f3bb44" stroke="#f3bb44" cx="1502" cy="-996.1835" rx="124.3729" ry="57.7614"/>
<text text-anchor="middle" x="1502" y="-1021.9112" font-family="Roboto Mono" font-size="14.00" fill="#000000">&quot;Service&quot;</text>
<text text-anchor="middle" x="1502" y="-1003.4473" font-family="Roboto Mono" font-size="14.00" fill="#000000">(not linking to</text>
<text text-anchor="middle" x="1502" y="-984.9835" font-family="Roboto Mono" font-size="14.00" fill="#000000">the actual services</text>
<text text-anchor="middle" x="1502" y="-966.5196" font-family="Roboto Mono" font-size="14.00" fill="#000000">for clarity sake)</text>
</g>
<!-- api_gateway_api&#45;&gt;service -->
<g id="edge6" class="edge">
<title>api_gateway_api&#45;&gt;service</title>
<path fill="none" stroke="#555555" d="M950.2552,-1409.9399C1080.4659,-1403.6833 1334.8151,-1388.4155 1367,-1363.4582 1370.1195,-1361.0392 1439.9308,-1168.367 1477.9052,-1063.0978"/>
<polygon fill="#555555" stroke="#555555" points="1481.2654,-1064.0971 1481.3656,-1053.5028 1474.6805,-1061.7223 1481.2654,-1064.0971"/>
<text text-anchor="middle" x="1452.0039" y="-1209.7611" font-family="Roboto Mono" font-size="10.00" fill="#555555">accesses</text>
</g>
<!-- compute_instance -->
<g id="node11" class="node">
<title>compute_instance</title>
<ellipse fill="#f3bb44" stroke="#f3bb44" cx="1160" cy="-1148.2097" rx="64.5601" ry="31.5391"/>
<text text-anchor="middle" x="1160" y="-1155.4735" font-family="Roboto Mono" font-size="14.00" fill="#000000">&quot;Compute</text>
<text text-anchor="middle" x="1160" y="-1137.0097" font-family="Roboto Mono" font-size="14.00" fill="#000000">Instance&quot;</text>
</g>
<!-- ec2_instance&#45;&gt;compute_instance -->
<g id="edge21" class="edge">
<title>ec2_instance&#45;&gt;compute_instance</title>
<path fill="none" stroke="#555555" d="M763.3788,-1269.3123C849.0284,-1261.6685 1004.1933,-1245.4344 1056,-1224.3553 1079.8336,-1214.6579 1103.2384,-1198.31 1121.7913,-1183.2423"/>
<polygon fill="#555555" stroke="#555555" points="1124.2485,-1185.7507 1129.6946,-1176.6628 1119.7699,-1180.3709 1124.2485,-1185.7507"/>
<text text-anchor="middle" x="1113.002" y="-1209.7611" font-family="Roboto Mono" font-size="10.00" fill="#555555">is a</text>
</g>
<!-- ec2_security_group -->
<g id="node16" class="node">
<title>ec2_security_group</title>
<ellipse fill="#f3bb44" stroke="#f3bb44" cx="478" cy="-830.9688" rx="94.466" ry="31.5391"/>
<text text-anchor="middle" x="478" y="-838.2326" font-family="Roboto Mono" font-size="14.00" fill="#000000">EC2</text>
<text text-anchor="middle" x="478" y="-819.7688" font-family="Roboto Mono" font-size="14.00" fill="#000000">Security Group</text>
</g>
<!-- ec2_instance&#45;&gt;ec2_security_group -->
<g id="edge22" class="edge">
<title>ec2_instance&#45;&gt;ec2_security_group</title>
<path fill="none" stroke="#555555" d="M671.3764,-1247.674C626.14,-1209.9975 546.9847,-1136.2682 509,-1054.064 481.8563,-995.3212 476.8515,-919.3005 476.7057,-872.8861"/>
<polygon fill="#555555" stroke="#555555" points="480.2056,-872.8984 476.7485,-862.8834 473.2056,-872.8683 480.2056,-872.8984"/>
<text text-anchor="middle" x="542.0015" y="-1083.8467" font-family="Roboto Mono" font-size="10.00" fill="#555555">has</text>
</g>
<!-- vpc_subnet -->
<g id="node17" class="node">
<title>vpc_subnet</title>
<ellipse fill="#f3bb44" stroke="#f3bb44" cx="268" cy="-996.1835" rx="46.9154" ry="31.5391"/>
<text text-anchor="middle" x="268" y="-1003.4473" font-family="Roboto Mono" font-size="14.00" fill="#000000">VPC</text>
<text text-anchor="middle" x="268" y="-984.9835" font-family="Roboto Mono" font-size="14.00" fill="#000000">Subnet</text>
</g>
<!-- ec2_instance&#45;&gt;vpc_subnet -->
<g id="edge23" class="edge">
<title>ec2_instance&#45;&gt;vpc_subnet</title>
<path fill="none" stroke="#555555" d="M646.9457,-1268.618C566.8773,-1260.4491 427.1008,-1243.9562 380,-1224.3553 349.3746,-1211.6106 338.8531,-1207.2646 319.9902,-1179.9784 290.3901,-1137.1601 277.5426,-1077.7482 272.0324,-1038.1912"/>
<polygon fill="#555555" stroke="#555555" points="275.4794,-1037.556 270.7242,-1028.0883 268.5374,-1038.4549 275.4794,-1037.556"/>
<text text-anchor="middle" x="350.0049" y="-1146.8039" font-family="Roboto Mono" font-size="10.00" fill="#555555">belongs to</text>
</g>
<!-- elb&#45;&gt;ec2_instance -->
<g id="edge25" class="edge">
<title>elb&#45;&gt;ec2_instance</title>
<path fill="none" stroke="#555555" d="M514.3449,-251.927C459.0431,-262.2423 343,-293.4199 343,-373.4292 343,-718.1103 343,-718.1103 343,-718.1103 343,-783.9437 352.2785,-800.9495 375,-862.7375 430.0653,-1012.4799 434.294,-1063.1966 543,-1179.9784 572.0718,-1211.2099 613.8818,-1235.1528 647.7444,-1251.077"/>
<polygon fill="#555555" stroke="#555555" points="646.5189,-1254.3655 657.0674,-1255.3551 649.4384,-1248.0033 646.5189,-1254.3655"/>
<text text-anchor="middle" x="383.0063" y="-723.2988" font-family="Roboto Mono" font-size="10.00" fill="#555555">accesses (via</text>
<text text-anchor="middle" x="383.0063" y="-710.1103" font-family="Roboto Mono" font-size="10.00" fill="#555555">internal IP)</text>
</g>
<!-- elb&#45;&gt;ec2_security_group -->
<g id="edge26" class="edge">
<title>elb&#45;&gt;ec2_security_group</title>
<path fill="none" stroke="#555555" d="M543,-266.2875C543,-290.8927 543,-335.3926 543,-373.4292 543,-718.1103 543,-718.1103 543,-718.1103 543,-746.8323 542.971,-756.105 529,-781.2001 526.6061,-785.5001 523.7246,-789.6655 520.5649,-793.6344"/>
<polygon fill="#555555" stroke="#555555" points="517.664,-791.6373 513.7557,-801.4849 522.952,-796.2239 517.664,-791.6373"/>
<text text-anchor="middle" x="552.0015" y="-541.1123" font-family="Roboto Mono" font-size="10.00" fill="#555555">has</text>
</g>
<!-- vpc -->
<g id="node18" class="node">
<title>vpc</title>
<ellipse fill="#f3bb44" stroke="#f3bb44" cx="468" cy="-718.1103" rx="29.272" ry="18.928"/>
<text text-anchor="middle" x="468" y="-716.1423" font-family="Roboto Mono" font-size="14.00" fill="#000000">VPC</text>
</g>
<!-- elb&#45;&gt;vpc -->
<g id="edge27" class="edge">
<title>elb&#45;&gt;vpc</title>
<path fill="none" stroke="#555555" d="M523.9053,-261.8797C498.0238,-283.1509 455,-325.6904 455,-373.4292 455,-602.0665 455,-602.0665 455,-602.0665 455,-631.9526 459.3111,-665.9006 462.968,-689.3214"/>
<polygon fill="#555555" stroke="#555555" points="459.5288,-689.9783 464.5844,-699.2891 466.4385,-688.8578 459.5288,-689.9783"/>
<text text-anchor="middle" x="485.0049" y="-484.7494" font-family="Roboto Mono" font-size="10.00" fill="#555555">belongs to</text>
</g>
<!-- lambda_function&#45;&gt;region -->
<g id="edge43" class="edge">
<title>lambda_function&#45;&gt;region</title>
<path fill="none" stroke="#555555" d="M1098.0309,-90.0879C1084.1456,-75.52 1067.3617,-57.9111 1053.9392,-43.8288"/>
<polygon fill="#555555" stroke="#555555" points="1056.3008,-41.2336 1046.8678,-36.4098 1051.2338,-46.0632 1056.3008,-41.2336"/>
<text text-anchor="middle" x="1107.0049" y="-60.614" font-family="Roboto Mono" font-size="10.00" fill="#555555">belongs to</text>
</g>
<!-- lambda_function&#45;&gt;compute_instance -->
<g id="edge42" class="edge">
<title>lambda_function&#45;&gt;compute_instance</title>
<path fill="none" stroke="#555555" d="M1112.3357,-149.6541C1103.0295,-175.4601 1092,-213.2688 1092,-247.5149 1092,-542.5181 1092,-542.5181 1092,-542.5181 1092,-659.0962 1131.6134,-683.5131 1146,-799.2001 1159.6815,-909.2173 1160.9619,-1040.0952 1160.5759,-1105.9287"/>
<polygon fill="#555555" stroke="#555555" points="1157.0733,-1106.2779 1160.4978,-1116.304 1164.0731,-1106.3307 1157.0733,-1106.2779"/>
<text text-anchor="middle" x="1115.002" y="-600.6607" font-family="Roboto Mono" font-size="10.00" fill="#555555">is a</text>
</g>
<!-- s3_bucket&#45;&gt;lambda_function -->
<g id="edge48" class="edge">
<title>s3_bucket&#45;&gt;lambda_function</title>
<path fill="none" stroke="#555555" d="M996.7015,-216.8705C1004.4981,-200.8605 1015.7343,-181.8134 1029.9922,-168.1514 1040.916,-157.6843 1054.476,-148.848 1067.8986,-141.6618"/>
<polygon fill="#555555" stroke="#555555" points="1069.8172,-144.6122 1077.135,-136.9505 1066.6366,-138.3765 1069.8172,-144.6122"/>
<text text-anchor="middle" x="1054.0039" y="-181.543" font-family="Roboto Mono" font-size="10.00" fill="#555555">triggers</text>
</g>
<!-- s3_bucket&#45;&gt;region -->
<g id="edge49" class="edge">
<title>s3_bucket&#45;&gt;region</title>
<path fill="none" stroke="#555555" d="M983.1293,-215.4693C983.0321,-182.5594 985.1062,-130.1412 996.9902,-86.614 1000.804,-72.6455 1007.4731,-58.0886 1013.823,-46.0521"/>
<polygon fill="#555555" stroke="#555555" points="1017.048,-47.4501 1018.7865,-36.9988 1010.91,-44.0848 1017.048,-47.4501"/>
<text text-anchor="middle" x="1027.0049" y="-116.977" font-family="Roboto Mono" font-size="10.00" fill="#555555">belongs to</text>
</g>
<!-- availability_zone -->
<g id="node8" class="node">
<title>availability_zone</title>
<ellipse fill="#f3bb44" stroke="#f3bb44" cx="149" cy="-830.9688" rx="82.7035" ry="31.5391"/>
<text text-anchor="middle" x="149" y="-838.2326" font-family="Roboto Mono" font-size="14.00" fill="#000000">Availability</text>
<text text-anchor="middle" x="149" y="-819.7688" font-family="Roboto Mono" font-size="14.00" fill="#000000">Zone</text>
</g>
<!-- availability_zone&#45;&gt;region -->
<g id="edge7" class="edge">
<title>availability_zone&#45;&gt;region</title>
<path fill="none" stroke="#555555" d="M162.0712,-799.4547C170.1555,-777.1416 179,-746.2911 179,-718.1103 179,-718.1103 179,-718.1103 179,-118.3827 179,-38.2293 782.23,-22.3924 972.9335,-19.3884"/>
<polygon fill="#555555" stroke="#555555" points="973.0886,-22.8865 983.0344,-19.2353 972.9824,-15.8874 973.0886,-22.8865"/>
<text text-anchor="middle" x="209.0049" y="-428.3864" font-family="Roboto Mono" font-size="10.00" fill="#555555">belongs to</text>
</g>
<!-- cloudfront_distribution -->
<g id="node9" class="node">
<title>cloudfront_distribution</title>
<ellipse fill="#f3bb44" stroke="#f3bb44" cx="872" cy="-373.4292" rx="82.7035" ry="31.5391"/>
<text text-anchor="middle" x="872" y="-380.6931" font-family="Roboto Mono" font-size="14.00" fill="#000000">CloudFront</text>
<text text-anchor="middle" x="872" y="-362.2292" font-family="Roboto Mono" font-size="14.00" fill="#000000">Distribution</text>
</g>
<!-- cloudfront_distribution&#45;&gt;api_gateway_api -->
<g id="edge8" class="edge">
<title>cloudfront_distribution&#45;&gt;api_gateway_api</title>
<path fill="none" stroke="#555555" d="M884.2869,-405.0468C886.3654,-411.0222 888.3735,-417.2606 890,-423.1979 929.6383,-567.8918 938.9381,-605.4586 953,-754.8231 954.0988,-766.4946 957.6349,-770.4321 953,-781.2001 948.3985,-791.8903 938.5819,-788.5098 933.9805,-799.2001 922.8158,-825.1381 933.9375,-834.4987 933.9805,-862.7375 934.207,-1011.7339 934.7734,-1048.9819 935,-1197.9784 935.0178,-1209.7015 936.8237,-1212.775 935,-1224.3553 926.7333,-1276.849 906.2893,-1334.6392 891.3397,-1372.2942"/>
<polygon fill="#555555" stroke="#555555" points="887.965,-1371.3048 887.4762,-1381.8884 894.4583,-1373.9197 887.965,-1371.3048"/>
<text text-anchor="middle" x="979.0098" y="-836.1572" font-family="Roboto Mono" font-size="10.00" fill="#555555">accesses (if</text>
<text text-anchor="middle" x="979.0098" y="-822.9688" font-family="Roboto Mono" font-size="10.00" fill="#555555">edge&#45;optimized)</text>
</g>
<!-- cloudfront_distribution&#45;&gt;ec2_instance -->
<g id="edge9" class="edge">
<title>cloudfront_distribution&#45;&gt;ec2_instance</title>
<path fill="none" stroke="#555555" d="M874.4251,-405.3224C875.4409,-420.2191 876.5006,-438.2 877,-454.3864 877.8708,-482.6118 877.4475,-489.6885 877,-517.9238 876.5277,-547.7206 869.4497,-1025.8014 860,-1054.064 835.499,-1127.3425 777.9883,-1197.7624 740.3289,-1238.4479"/>
<polygon fill="#555555" stroke="#555555" points="737.5945,-1236.2472 733.3091,-1245.9367 742.7016,-1241.0345 737.5945,-1236.2472"/>
<text text-anchor="middle" x="912.0063" y="-773.2001" font-family="Roboto Mono" font-size="10.00" fill="#555555">accesses (via</text>
<text text-anchor="middle" x="912.0063" y="-760.0116" font-family="Roboto Mono" font-size="10.00" fill="#555555">public IP)</text>
</g>
<!-- cloudfront_distribution&#45;&gt;elb -->
<g id="edge10" class="edge">
<title>cloudfront_distribution&#45;&gt;elb</title>
<path fill="none" stroke="#555555" d="M813.1814,-350.9183C744.6581,-324.6932 633.708,-282.2305 577.7022,-260.796"/>
<polygon fill="#555555" stroke="#555555" points="578.8199,-257.4763 568.2294,-257.1707 576.3178,-264.0139 578.8199,-257.4763"/>
<text text-anchor="middle" x="776.0063" y="-315.6605" font-family="Roboto Mono" font-size="10.00" fill="#555555">accesses (via</text>
<text text-anchor="middle" x="776.0063" y="-302.4721" font-family="Roboto Mono" font-size="10.00" fill="#555555">public IP)</text>
</g>
<!-- cloudfront_distribution&#45;&gt;s3_bucket -->
<g id="edge11" class="edge">
<title>cloudfront_distribution&#45;&gt;s3_bucket</title>
<path fill="none" stroke="#555555" d="M877.0011,-341.618C880.5961,-326.8879 886.6998,-309.8987 896.9883,-297.2836 906.7292,-285.3399 920.144,-275.7037 933.5249,-268.2078"/>
<polygon fill="#555555" stroke="#555555" points="935.519,-271.1135 942.7376,-263.3583 932.2584,-264.9192 935.519,-271.1135"/>
<text text-anchor="middle" x="933.0059" y="-315.6605" font-family="Roboto Mono" font-size="10.00" fill="#555555">accesses</text>
<text text-anchor="middle" x="933.0059" y="-302.4721" font-family="Roboto Mono" font-size="10.00" fill="#555555">(internally)</text>
</g>
<!-- cloudwatch_events_rule -->
<g id="node10" class="node">
<title>cloudwatch_events_rule</title>
<ellipse fill="#f3bb44" stroke="#f3bb44" cx="1273" cy="-247.5149" rx="76.8224" ry="31.5391"/>
<text text-anchor="middle" x="1273" y="-254.7787" font-family="Roboto Mono" font-size="14.00" fill="#000000">CloudWatch</text>
<text text-anchor="middle" x="1273" y="-236.3149" font-family="Roboto Mono" font-size="14.00" fill="#000000">Events Rule</text>
</g>
<!-- cloudwatch_events_rule&#45;&gt;lambda_function -->
<g id="edge12" class="edge">
<title>cloudwatch_events_rule&#45;&gt;lambda_function</title>
<path fill="none" stroke="#555555" d="M1221.5807,-223.5965C1208.5852,-216.2931 1195.1604,-207.5609 1183.9863,-197.7462 1181.9125,-195.9247 1167.0317,-175.8985 1152.737,-156.421"/>
<polygon fill="#555555" stroke="#555555" points="1155.4191,-154.1597 1146.6856,-148.1618 1149.7725,-158.2969 1155.4191,-154.1597"/>
<text text-anchor="middle" x="1225.0068" y="-189.7462" font-family="Roboto Mono" font-size="10.00" fill="#555555">triggers (when</text>
<text text-anchor="middle" x="1225.0068" y="-176.5577" font-family="Roboto Mono" font-size="10.00" fill="#555555">scheduled ⏰)</text>
</g>
<!-- cloudwatch_events_rule&#45;&gt;region -->
<g id="edge13" class="edge">
<title>cloudwatch_events_rule&#45;&gt;region</title>
<path fill="none" stroke="#555555" d="M1318.7969,-221.9528C1326.9525,-215.1982 1334.3271,-207.1225 1339,-197.7462 1344.867,-185.9739 1345.611,-179.5225 1339,-168.1514 1332.638,-157.2087 1152.5655,-60.5694 1141,-55.4256 1121.0095,-46.5346 1098.1745,-38.6221 1078.4344,-32.4404"/>
<polygon fill="#555555" stroke="#555555" points="1079.3097,-29.0479 1068.7228,-29.459 1077.2553,-35.7397 1079.3097,-29.0479"/>
<text text-anchor="middle" x="1342.0049" y="-116.977" font-family="Roboto Mono" font-size="10.00" fill="#555555">belongs to</text>
</g>
<!-- compute_instance&#45;&gt;ec2_instance -->
<g id="edge14" class="edge">
<title>compute_instance&#45;&gt;ec2_instance</title>
<path fill="none" stroke="#555555" d="M1103.5722,-1163.8252C1018.0534,-1187.4913 856.1996,-1232.2818 767.319,-1256.8782"/>
<polygon fill="#555555" stroke="#555555" points="766.343,-1253.5167 757.6388,-1259.5571 768.2101,-1260.2631 766.343,-1253.5167"/>
<text text-anchor="middle" x="1013.0063" y="-1216.3553" font-family="Roboto Mono" font-size="10.00" fill="#555555">accesses (via</text>
<text text-anchor="middle" x="1013.0063" y="-1203.1669" font-family="Roboto Mono" font-size="10.00" fill="#555555">internal IP)</text>
</g>
<!-- compute_instance&#45;&gt;lambda_function -->
<g id="edge17" class="edge">
<title>compute_instance&#45;&gt;lambda_function</title>
<path fill="none" stroke="#555555" d="M1170.2811,-1116.6248C1171.8274,-1110.6463 1173.1781,-1104.3983 1174,-1098.441 1192.1777,-966.6931 1178.7767,-932.1102 1174,-799.2001 1169.4876,-673.6446 1138.8341,-289.0082 1128.4394,-160.6093"/>
<polygon fill="#555555" stroke="#555555" points="1131.9084,-160.0839 1127.6118,-150.3994 1124.9312,-160.6496 1131.9084,-160.0839"/>
<text text-anchor="middle" x="1188.0039" y="-600.6607" font-family="Roboto Mono" font-size="10.00" fill="#555555">triggers</text>
</g>
<!-- compute_instance&#45;&gt;service -->
<g id="edge18" class="edge">
<title>compute_instance&#45;&gt;service</title>
<path fill="none" stroke="#555555" d="M1207.6546,-1126.584C1241.4774,-1111.2727 1287.9726,-1090.3004 1328.9922,-1072.064 1352.5395,-1061.5954 1377.9296,-1050.405 1401.8132,-1039.922"/>
<polygon fill="#555555" stroke="#555555" points="1403.4853,-1043.0105 1411.2369,-1035.7881 1400.6732,-1036.6002 1403.4853,-1043.0105"/>
<text text-anchor="middle" x="1352.0039" y="-1083.8467" font-family="Roboto Mono" font-size="10.00" fill="#555555">accesses</text>
</g>
<!-- elasticache_cluster -->
<g id="node12" class="node">
<title>elasticache_cluster</title>
<ellipse fill="#f3bb44" stroke="#f3bb44" cx="595" cy="-996.1835" rx="76.8224" ry="31.5391"/>
<text text-anchor="middle" x="595" y="-1003.4473" font-family="Roboto Mono" font-size="14.00" fill="#000000">ElastiCache</text>
<text text-anchor="middle" x="595" y="-984.9835" font-family="Roboto Mono" font-size="14.00" fill="#000000">Cluster</text>
</g>
<!-- compute_instance&#45;&gt;elasticache_cluster -->
<g id="edge15" class="edge">
<title>compute_instance&#45;&gt;elasticache_cluster</title>
<path fill="none" stroke="#555555" d="M1100.7915,-1135.031C1025.0833,-1117.874 890.123,-1086.2596 776,-1054.064 738.8646,-1043.5876 697.8824,-1030.603 664.3191,-1019.5885"/>
<polygon fill="#555555" stroke="#555555" points="665.2005,-1016.1939 654.6075,-1016.3886 663.0099,-1022.8423 665.2005,-1016.1939"/>
<text text-anchor="middle" x="968.0039" y="-1083.8467" font-family="Roboto Mono" font-size="10.00" fill="#555555">accesses</text>
</g>
<!-- internet -->
<g id="node13" class="node">
<title>internet</title>
<ellipse fill="#aaddff" stroke="#aaddff" cx="804" cy="-602.0665" rx="58.6785" ry="34.9083"/>
<text text-anchor="middle" x="804" y="-611.5828" font-family="Roboto Mono" font-size="14.00" fill="#000000">️️Internet</text>
<text text-anchor="middle" x="804" y="-593.1189" font-family="Roboto Mono" font-size="14.00" fill="#000000">☁️</text>
</g>
<!-- compute_instance&#45;&gt;internet -->
<g id="edge16" class="edge">
<title>compute_instance&#45;&gt;internet</title>
<path fill="none" stroke="#555555" d="M1150.7626,-1116.7076C1149.0975,-1110.6652 1147.4364,-1104.373 1146,-1098.441 1120.8398,-994.5358 1118.3986,-967.6798 1097.9922,-862.7375 1088.6815,-814.8563 1106.4487,-794.446 1078,-754.8231 1026.6378,-683.2866 930.8435,-641.1757 867.2388,-619.8584"/>
<polygon fill="#555555" stroke="#555555" points="868.3009,-616.5233 857.7083,-616.7386 866.1232,-623.176 868.3009,-616.5233"/>
<text text-anchor="middle" x="1121.0039" y="-829.563" font-family="Roboto Mono" font-size="10.00" fill="#555555">accesses</text>
</g>
<!-- sns_topic -->
<g id="node14" class="node">
<title>sns_topic</title>
<ellipse fill="#f3bb44" stroke="#f3bb44" cx="1447" cy="-247.5149" rx="41.0341" ry="31.5391"/>
<text text-anchor="middle" x="1447" y="-254.7787" font-family="Roboto Mono" font-size="14.00" fill="#000000">SNS</text>
<text text-anchor="middle" x="1447" y="-236.3149" font-family="Roboto Mono" font-size="14.00" fill="#000000">Topic</text>
</g>
<!-- compute_instance&#45;&gt;sns_topic -->
<g id="edge19" class="edge">
<title>compute_instance&#45;&gt;sns_topic</title>
<path fill="none" stroke="#555555" d="M1210.0685,-1127.6204C1222.6196,-1120.1875 1234.8243,-1110.5582 1243,-1098.441 1254.1677,-1081.8892 1247.497,-1073.8735 1250,-1054.064 1272.3327,-877.3147 1260.9141,-831.1054 1287.9922,-655.0206 1295.7631,-604.4877 1312,-593.645 1312,-542.5181 1312,-542.5181 1312,-542.5181 1312,-373.4292 1312,-347.0984 1367.6154,-302.6958 1407.4532,-274.2674"/>
<polygon fill="#555555" stroke="#555555" points="1409.5363,-277.0812 1415.689,-268.4558 1405.5004,-271.3618 1409.5363,-277.0812"/>
<text text-anchor="middle" x="1311.0039" y="-666.8033" font-family="Roboto Mono" font-size="10.00" fill="#555555">accesses</text>
</g>
<!-- sqs_queue -->
<g id="node15" class="node">
<title>sqs_queue</title>
<ellipse fill="#f3bb44" stroke="#f3bb44" cx="1425" cy="-118.3827" rx="41.0341" ry="31.5391"/>
<text text-anchor="middle" x="1425" y="-125.6466" font-family="Roboto Mono" font-size="14.00" fill="#000000">SQS</text>
<text text-anchor="middle" x="1425" y="-107.1827" font-family="Roboto Mono" font-size="14.00" fill="#000000">Queue</text>
</g>
<!-- compute_instance&#45;&gt;sqs_queue -->
<g id="edge20" class="edge">
<title>compute_instance&#45;&gt;sqs_queue</title>
<path fill="none" stroke="#555555" d="M1179.5651,-1117.863C1183.0551,-1111.6072 1186.4011,-1104.9408 1189,-1098.441 1222.5667,-1014.492 1236,-990.9312 1236,-900.5202 1236,-900.5202 1236,-900.5202 1236,-429.7922 1236,-381.901 1267.3808,-378.4849 1298,-341.6605 1310.3957,-326.7528 1348.3465,-295.4823 1359,-279.2836 1383.8395,-241.5147 1402.1994,-192.8884 1413.1626,-159.0232"/>
<polygon fill="#555555" stroke="#555555" points="1416.5117,-160.0406 1416.1922,-149.4506 1409.8379,-157.9285 1416.5117,-160.0406"/>
<text text-anchor="middle" x="1260.0039" y="-600.6607" font-family="Roboto Mono" font-size="10.00" fill="#555555">accesses</text>
</g>
<!-- elasticache_cluster&#45;&gt;availability_zone -->
<g id="edge28" class="edge">
<title>elasticache_cluster&#45;&gt;availability_zone</title>
<path fill="none" stroke="#555555" d="M537.6064,-974.9228C455.8566,-944.6397 306.0832,-889.1581 218.2684,-856.6283"/>
<polygon fill="#555555" stroke="#555555" points="219.2537,-853.2609 208.6606,-853.0692 216.8221,-859.825 219.2537,-853.2609"/>
<text text-anchor="middle" x="425.0063" y="-905.7087" font-family="Roboto Mono" font-size="10.00" fill="#555555">belongs to</text>
<text text-anchor="middle" x="425.0063" y="-892.5202" font-family="Roboto Mono" font-size="10.00" fill="#555555">(one or more)</text>
</g>
<!-- elasticache_cluster&#45;&gt;ec2_security_group -->
<g id="edge29" class="edge">
<title>elasticache_cluster&#45;&gt;ec2_security_group</title>
<path fill="none" stroke="#555555" d="M573.2674,-965.495C554.2607,-938.6559 526.5461,-899.5203 505.9042,-870.372"/>
<polygon fill="#555555" stroke="#555555" points="508.6489,-868.1916 500.0132,-862.0535 502.9363,-872.2371 508.6489,-868.1916"/>
<text text-anchor="middle" x="550.0015" y="-899.1144" font-family="Roboto Mono" font-size="10.00" fill="#555555">has</text>
</g>
<!-- elasticache_cluster&#45;&gt;vpc -->
<g id="edge30" class="edge">
<title>elasticache_cluster&#45;&gt;vpc</title>
<path fill="none" stroke="#555555" d="M599.6376,-964.3513C604.0455,-923.8273 606.6801,-852.6652 581,-799.2001 565.4758,-766.8791 529.9417,-744.7705 502.8343,-731.9015"/>
<polygon fill="#555555" stroke="#555555" points="504.1969,-728.6763 493.6441,-727.7333 501.3055,-735.0513 504.1969,-728.6763"/>
<text text-anchor="middle" x="636.0059" y="-836.1572" font-family="Roboto Mono" font-size="10.00" fill="#555555">belongs to</text>
<text text-anchor="middle" x="636.0059" y="-822.9688" font-family="Roboto Mono" font-size="10.00" fill="#555555">(optionally)</text>
</g>
<!-- internet&#45;&gt;api_gateway_api -->
<g id="edge36" class="edge">
<title>internet&#45;&gt;api_gateway_api</title>
<path fill="none" stroke="#555555" d="M817.3889,-636.1137C819.3035,-642.3149 820.9706,-648.7936 822,-655.0206 841.23,-771.3451 851.5939,-806.1741 822,-920.3029 819.7025,-929.1632 814.7075,-929.5616 811.9922,-938.3029 792.5302,-1000.9561 798,-1019.6462 798,-1085.2525 798,-1274.124 798,-1274.124 798,-1274.124 798,-1311.907 819.8602,-1349.1736 840.1327,-1375.61"/>
<polygon fill="#555555" stroke="#555555" points="837.3944,-1377.7898 846.3473,-1383.4552 842.8815,-1373.4433 837.3944,-1377.7898"/>
<text text-anchor="middle" x="836.0039" y="-994.7777" font-family="Roboto Mono" font-size="10.00" fill="#555555">accesses</text>
</g>
<!-- internet&#45;&gt;ec2_instance -->
<g id="edge38" class="edge">
<title>internet&#45;&gt;ec2_instance</title>
<path fill="none" stroke="#555555" d="M809.1401,-636.9104C815.1109,-690.1365 819.043,-792.8607 774,-862.7375 765.5729,-875.8108 752.1381,-867.4901 743.9873,-880.7375 703.8669,-945.9445 732.2095,-1148.9423 719,-1224.3553 718.5064,-1227.1734 717.9186,-1230.0614 717.2679,-1232.958"/>
<polygon fill="#555555" stroke="#555555" points="713.8489,-1232.2046 714.8576,-1242.7513 720.6461,-1233.8775 713.8489,-1232.2046"/>
<text text-anchor="middle" x="783.0063" y="-912.3029" font-family="Roboto Mono" font-size="10.00" fill="#555555">accesses (via</text>
<text text-anchor="middle" x="783.0063" y="-899.1144" font-family="Roboto Mono" font-size="10.00" fill="#555555">public or</text>
<text text-anchor="middle" x="783.0063" y="-885.9259" font-family="Roboto Mono" font-size="10.00" fill="#555555">Elastic IP)</text>
</g>
<!-- internet&#45;&gt;elb -->
<g id="edge39" class="edge">
<title>internet&#45;&gt;elb</title>
<path fill="none" stroke="#555555" d="M753.6305,-583.6548C720.5253,-569.6004 677.9543,-547.5884 648,-517.9238 618.5887,-488.797 619.3385,-474.4153 602.9922,-436.3864 590.3875,-407.0623 564.5391,-321.0272 551.2663,-275.8932"/>
<polygon fill="#555555" stroke="#555555" points="554.578,-274.748 548.4058,-266.1367 547.8607,-276.7175 554.578,-274.748"/>
<text text-anchor="middle" x="627.0039" y="-428.3864" font-family="Roboto Mono" font-size="10.00" fill="#555555">accesses</text>
</g>
<!-- internet&#45;&gt;s3_bucket -->
<g id="edge41" class="edge">
<title>internet&#45;&gt;s3_bucket</title>
<path fill="none" stroke="#555555" d="M837.106,-572.7204C874.8031,-537.1613 934.9186,-473.4749 964,-405.1979 979.7584,-368.2006 984.0567,-322.228 984.8359,-289.4874"/>
<polygon fill="#555555" stroke="#555555" points="988.3373,-289.3977 984.9753,-279.3505 981.338,-289.3014 988.3373,-289.3977"/>
<text text-anchor="middle" x="980.0039" y="-428.3864" font-family="Roboto Mono" font-size="10.00" fill="#555555">accesses</text>
</g>
<!-- internet&#45;&gt;cloudfront_distribution -->
<g id="edge37" class="edge">
<title>internet&#45;&gt;cloudfront_distribution</title>
<path fill="none" stroke="#555555" d="M805.2154,-566.8637C807.1509,-536.3716 812.144,-491.4564 824.9922,-454.3864 829.8747,-440.2993 837.2941,-425.9127 844.8053,-413.2501"/>
<polygon fill="#555555" stroke="#555555" points="848.011,-414.7177 850.2559,-404.3634 842.044,-411.0578 848.011,-414.7177"/>
<text text-anchor="middle" x="849.0039" y="-484.7494" font-family="Roboto Mono" font-size="10.00" fill="#555555">accesses</text>
</g>
<!-- route_53_zone -->
<g id="node23" class="node">
<title>route_53_zone</title>
<ellipse fill="#f3bb44" stroke="#f3bb44" cx="716" cy="-486.1551" rx="58.6785" ry="31.5391"/>
<text text-anchor="middle" x="716" y="-493.419" font-family="Roboto Mono" font-size="14.00" fill="#000000">Route 53</text>
<text text-anchor="middle" x="716" y="-474.9551" font-family="Roboto Mono" font-size="14.00" fill="#000000">Zone</text>
</g>
<!-- internet&#45;&gt;route_53_zone -->
<g id="edge40" class="edge">
<title>internet&#45;&gt;route_53_zone</title>
<path fill="none" stroke="#555555" d="M770.4861,-573.1427C762.9199,-565.7396 755.276,-557.4897 748.9922,-549.1123 743.6661,-542.0117 738.7284,-533.9311 734.3813,-525.9816"/>
<polygon fill="#555555" stroke="#555555" points="737.4789,-524.3521 729.735,-517.1214 731.2796,-527.603 737.4789,-524.3521"/>
<text text-anchor="middle" x="773.0039" y="-541.1123" font-family="Roboto Mono" font-size="10.00" fill="#555555">accesses</text>
</g>
<!-- sns_topic&#45;&gt;lambda_function -->
<g id="edge50" class="edge">
<title>sns_topic&#45;&gt;lambda_function</title>
<path fill="none" stroke="#555555" d="M1411.7051,-230.8322C1375.863,-214.1367 1318.5881,-188.13 1268,-168.1514 1241.1171,-157.5347 1210.9471,-146.8568 1185.2728,-138.1288"/>
<polygon fill="#555555" stroke="#555555" points="1186.2634,-134.7692 1175.6692,-134.8834 1184.0223,-141.4007 1186.2634,-134.7692"/>
<text text-anchor="middle" x="1361.0039" y="-181.543" font-family="Roboto Mono" font-size="10.00" fill="#555555">triggers</text>
</g>
<!-- sns_topic&#45;&gt;region -->
<g id="edge51" class="edge">
<title>sns_topic&#45;&gt;region</title>
<path fill="none" stroke="#555555" d="M1472.9257,-222.8104C1479.0541,-215.3978 1484.7481,-206.8079 1488,-197.7462 1498.1349,-169.5043 1483.8713,-98.5859 1475,-86.614 1456.1612,-61.191 1441.4553,-64.0105 1411,-55.4256 1351.5694,-38.6729 1177.6468,-26.8961 1086.7767,-21.6991"/>
<polygon fill="#555555" stroke="#555555" points="1086.8332,-18.1968 1076.6518,-21.1276 1086.4387,-25.1857 1086.8332,-18.1968"/>
<text text-anchor="middle" x="1520.0049" y="-116.977" font-family="Roboto Mono" font-size="10.00" fill="#555555">belongs to</text>
</g>
<!-- sns_topic&#45;&gt;sqs_queue -->
<g id="edge52" class="edge">
<title>sns_topic&#45;&gt;sqs_queue</title>
<path fill="none" stroke="#555555" d="M1438.124,-216.341C1436.5855,-210.2119 1435.1201,-203.8041 1433.9912,-197.7462 1431.7514,-185.7267 1429.9878,-172.5722 1428.6382,-160.4903"/>
<polygon fill="#555555" stroke="#555555" points="1432.0833,-159.7839 1427.5572,-150.2045 1425.1217,-160.5156 1432.0833,-159.7839"/>
<text text-anchor="middle" x="1460.0044" y="-181.543" font-family="Roboto Mono" font-size="10.00" fill="#555555">pushes to</text>
</g>
<!-- sqs_queue&#45;&gt;region -->
<g id="edge53" class="edge">
<title>sqs_queue&#45;&gt;region</title>
<path fill="none" stroke="#555555" d="M1395.4232,-96.0804C1375.2448,-82.0528 1347.3184,-64.8752 1320,-55.4256 1278.1158,-40.9376 1158.3926,-29.1296 1086.5409,-23.0886"/>
<polygon fill="#555555" stroke="#555555" points="1086.5572,-19.578 1076.3021,-22.2395 1085.9786,-26.5541 1086.5572,-19.578"/>
<text text-anchor="middle" x="1377.0049" y="-60.614" font-family="Roboto Mono" font-size="10.00" fill="#555555">belongs to</text>
</g>
<!-- ec2_security_group&#45;&gt;vpc -->
<g id="edge24" class="edge">
<title>ec2_security_group&#45;&gt;vpc</title>
<path fill="none" stroke="#555555" d="M471.4541,-799.2171C470.4521,-793.2547 469.5623,-787.0553 468.9902,-781.2001 467.9037,-770.0795 467.5258,-757.805 467.4643,-747.0615"/>
<polygon fill="#555555" stroke="#555555" points="470.9646,-746.9379 467.4938,-736.9278 463.9647,-746.9175 470.9646,-746.9379"/>
<text text-anchor="middle" x="499.0049" y="-766.6058" font-family="Roboto Mono" font-size="10.00" fill="#555555">belongs to</text>
</g>
<!-- vpc_subnet&#45;&gt;availability_zone -->
<g id="edge56" class="edge">
<title>vpc_subnet&#45;&gt;availability_zone</title>
<path fill="none" stroke="#555555" d="M239.4732,-970.9411C224.7355,-956.9652 207.1368,-938.7284 193.9902,-920.3029 183.3827,-905.4359 173.8974,-887.7067 166.4027,-871.9763"/>
<polygon fill="#555555" stroke="#555555" points="169.3831,-870.0835 162.0012,-862.4836 163.0325,-873.0281 169.3831,-870.0835"/>
<text text-anchor="middle" x="224.0049" y="-899.1144" font-family="Roboto Mono" font-size="10.00" fill="#555555">belongs to</text>
</g>
<!-- vpc_subnet&#45;&gt;vpc -->
<g id="edge57" class="edge">
<title>vpc_subnet&#45;&gt;vpc</title>
<path fill="none" stroke="#555555" d="M267.3601,-964.1111C268.1922,-921.6948 275.6938,-846.7709 314.9902,-799.2001 323.4455,-788.9644 393.0809,-754.2469 435.442,-733.7059"/>
<polygon fill="#555555" stroke="#555555" points="437.0666,-736.8081 444.5471,-729.3053 434.0204,-730.5056 437.0666,-736.8081"/>
<text text-anchor="middle" x="345.0049" y="-829.563" font-family="Roboto Mono" font-size="10.00" fill="#555555">belongs to</text>
</g>
<!-- vpc&#45;&gt;region -->
<g id="edge55" class="edge">
<title>vpc&#45;&gt;region</title>
<path fill="none" stroke="#555555" d="M457.4373,-700.3046C414.4583,-627.5603 255,-354.6887 255,-310.4721 255,-310.4721 255,-310.4721 255,-118.3827 255,-45.9825 793.9386,-25.0218 972.964,-20.0562"/>
<polygon fill="#555555" stroke="#555555" points="973.0752,-23.5546 982.9766,-19.7849 972.8854,-16.5572 973.0752,-23.5546"/>
<text text-anchor="middle" x="323.0049" y="-372.0235" font-family="Roboto Mono" font-size="10.00" fill="#555555">belongs to</text>
</g>
<!-- vpc&#45;&gt;internet -->
<g id="edge54" class="edge">
<title>vpc&#45;&gt;internet</title>
<path fill="none" stroke="#555555" d="M493.8074,-709.1972C546.7513,-690.9121 668.9007,-648.7255 743.1435,-623.0844"/>
<polygon fill="#555555" stroke="#555555" points="744.5336,-626.3072 752.8432,-619.7344 742.2485,-619.6907 744.5336,-626.3072"/>
<text text-anchor="middle" x="677.0049" y="-673.3975" font-family="Roboto Mono" font-size="10.00" fill="#555555">exposed to</text>
<text text-anchor="middle" x="677.0049" y="-660.2091" font-family="Roboto Mono" font-size="10.00" fill="#555555">(optional)</text>
</g>
<!-- iam_group -->
<g id="node19" class="node">
<title>iam_group</title>
<ellipse fill="#f3bb44" stroke="#f3bb44" cx="1552" cy="-1274.124" rx="41.0341" ry="31.5391"/>
<text text-anchor="middle" x="1552" y="-1281.3879" font-family="Roboto Mono" font-size="14.00" fill="#000000">IAM</text>
<text text-anchor="middle" x="1552" y="-1262.924" font-family="Roboto Mono" font-size="14.00" fill="#000000">Group</text>
</g>
<!-- iam_policy -->
<g id="node20" class="node">
<title>iam_policy</title>
<ellipse fill="#f3bb44" stroke="#f3bb44" cx="1538" cy="-1148.2097" rx="46.9154" ry="31.5391"/>
<text text-anchor="middle" x="1538" y="-1155.4735" font-family="Roboto Mono" font-size="14.00" fill="#000000">IAM</text>
<text text-anchor="middle" x="1538" y="-1137.0097" font-family="Roboto Mono" font-size="14.00" fill="#000000">Policy</text>
</g>
<!-- iam_group&#45;&gt;iam_policy -->
<g id="edge31" class="edge">
<title>iam_group&#45;&gt;iam_policy</title>
<path fill="none" stroke="#555555" d="M1548.4672,-1242.3505C1546.7097,-1226.5435 1544.562,-1207.2278 1542.6705,-1190.2158"/>
<polygon fill="#555555" stroke="#555555" points="1546.1154,-1189.525 1541.5317,-1179.973 1539.1582,-1190.2986 1546.1154,-1189.525"/>
<text text-anchor="middle" x="1555.0015" y="-1209.7611" font-family="Roboto Mono" font-size="10.00" fill="#555555">has</text>
</g>
<!-- iam_policy&#45;&gt;service -->
<g id="edge32" class="edge">
<title>iam_policy&#45;&gt;service</title>
<path fill="none" stroke="#555555" d="M1530.5408,-1116.7097C1526.8922,-1101.3019 1522.3514,-1082.1265 1517.9727,-1063.6355"/>
<polygon fill="#555555" stroke="#555555" points="1521.3439,-1062.6823 1515.6337,-1053.758 1514.5323,-1064.2954 1521.3439,-1062.6823"/>
<text text-anchor="middle" x="1552.0044" y="-1090.441" font-family="Roboto Mono" font-size="10.00" fill="#555555">defines</text>
<text text-anchor="middle" x="1552.0044" y="-1077.2525" font-family="Roboto Mono" font-size="10.00" fill="#555555">access to</text>
</g>
<!-- iam_role -->
<g id="node21" class="node">
<title>iam_role</title>
<ellipse fill="#f3bb44" stroke="#f3bb44" cx="1458" cy="-1274.124" rx="35.1529" ry="31.5391"/>
<text text-anchor="middle" x="1458" y="-1281.3879" font-family="Roboto Mono" font-size="14.00" fill="#000000">IAM</text>
<text text-anchor="middle" x="1458" y="-1262.924" font-family="Roboto Mono" font-size="14.00" fill="#000000">Role</text>
</g>
<!-- iam_role&#45;&gt;iam_policy -->
<g id="edge33" class="edge">
<title>iam_role&#45;&gt;iam_policy</title>
<path fill="none" stroke="#555555" d="M1475.5563,-1246.4916C1486.8042,-1228.7882 1501.5528,-1205.5751 1513.8919,-1186.1541"/>
<polygon fill="#555555" stroke="#555555" points="1516.962,-1187.8486 1519.3705,-1177.5312 1511.0536,-1184.0947 1516.962,-1187.8486"/>
<text text-anchor="middle" x="1514.0015" y="-1209.7611" font-family="Roboto Mono" font-size="10.00" fill="#555555">has</text>
</g>
<!-- iam_user -->
<g id="node22" class="node">
<title>iam_user</title>
<ellipse fill="#f3bb44" stroke="#f3bb44" cx="1591" cy="-1413.2269" rx="35.1529" ry="31.5391"/>
<text text-anchor="middle" x="1591" y="-1420.4907" font-family="Roboto Mono" font-size="14.00" fill="#000000">IAM</text>
<text text-anchor="middle" x="1591" y="-1402.0269" font-family="Roboto Mono" font-size="14.00" fill="#000000">User</text>
</g>
<!-- iam_user&#45;&gt;iam_group -->
<g id="edge34" class="edge">
<title>iam_user&#45;&gt;iam_group</title>
<path fill="none" stroke="#555555" d="M1568.7582,-1388.5293C1563.2358,-1380.9927 1558.0306,-1372.3372 1554.9902,-1363.4582 1549.8845,-1348.5475 1548.3593,-1331.4072 1548.3773,-1316.1533"/>
<polygon fill="#555555" stroke="#555555" points="1551.8811,-1316.0223 1548.6112,-1305.9448 1544.883,-1315.8619 1551.8811,-1316.0223"/>
<text text-anchor="middle" x="1584.0049" y="-1342.2697" font-family="Roboto Mono" font-size="10.00" fill="#555555">belongs to</text>
</g>
<!-- iam_user&#45;&gt;iam_policy -->
<g id="edge35" class="edge">
<title>iam_user&#45;&gt;iam_policy</title>
<path fill="none" stroke="#555555" d="M1607.3788,-1384.8186C1610.5276,-1378.0304 1613.3545,-1370.6588 1615,-1363.4582 1627.0597,-1310.6859 1621.9568,-1292.6751 1602,-1242.3553 1593.8099,-1221.7044 1580.4731,-1201.0376 1568.0883,-1184.3502"/>
<polygon fill="#555555" stroke="#555555" points="1570.5759,-1181.8401 1561.7309,-1176.0077 1565.0083,-1186.0829 1570.5759,-1181.8401"/>
<text text-anchor="middle" x="1629.0015" y="-1272.7183" font-family="Roboto Mono" font-size="10.00" fill="#555555">has</text>
</g>
<!-- route_53_zone&#45;&gt;ec2_instance -->
<g id="edge45" class="edge">
<title>route_53_zone&#45;&gt;ec2_instance</title>
<path fill="none" stroke="#555555" d="M713.0449,-518.1776C710.0724,-552.1147 705.6938,-607.2905 704,-655.0206 696.2964,-872.1056 701.3792,-1132.277 703.8611,-1232.2137"/>
<polygon fill="#555555" stroke="#555555" points="700.3622,-1232.3045 704.1141,-1242.2127 707.3599,-1232.1273 700.3622,-1232.3045"/>
<text text-anchor="middle" x="728.0068" y="-829.563" font-family="Roboto Mono" font-size="10.00" fill="#555555">refers to</text>
</g>
<!-- route_53_zone&#45;&gt;elb -->
<g id="edge46" class="edge">
<title>route_53_zone&#45;&gt;elb</title>
<path fill="none" stroke="#555555" d="M685.9399,-458.5908C671.0445,-443.8038 653.5965,-424.6537 640.9863,-405.1979 612.6303,-361.4486 624.6558,-340.1626 595,-297.2836 587.8529,-286.9497 578.2984,-277.0559 569.3301,-268.8507"/>
<polygon fill="#555555" stroke="#555555" points="571.492,-266.0907 561.6751,-262.106 566.8645,-271.343 571.492,-266.0907"/>
<text text-anchor="middle" x="668.0068" y="-372.0235" font-family="Roboto Mono" font-size="10.00" fill="#555555">refers to</text>
</g>
<!-- route_53_zone&#45;&gt;s3_bucket -->
<g id="edge47" class="edge">
<title>route_53_zone&#45;&gt;s3_bucket</title>
<path fill="none" stroke="#555555" d="M707.9128,-454.4666C699.3488,-412.7476 691.8819,-339.737 731,-297.2836 756.8425,-269.2377 860.3585,-256.4781 926.7068,-251.0805"/>
<polygon fill="#555555" stroke="#555555" points="927.3211,-254.5433 937.0186,-250.2762 926.7767,-247.5645 927.3211,-254.5433"/>
<text text-anchor="middle" x="734.0068" y="-372.0235" font-family="Roboto Mono" font-size="10.00" fill="#555555">refers to</text>
</g>
<!-- route_53_zone&#45;&gt;cloudfront_distribution -->
<g id="edge44" class="edge">
<title>route_53_zone&#45;&gt;cloudfront_distribution</title>
<path fill="none" stroke="#555555" d="M728.2398,-454.7432C733.8187,-443.6201 741.3621,-431.7569 750.9863,-423.1979 763.7575,-411.8405 779.4738,-402.8601 795.3013,-395.8407"/>
<polygon fill="#555555" stroke="#555555" points="796.7466,-399.0299 804.6117,-391.9311 794.0365,-392.5758 796.7466,-399.0299"/>
<text text-anchor="middle" x="778.0068" y="-428.3864" font-family="Roboto Mono" font-size="10.00" fill="#555555">refers to</text>
</g>
</g>
</svg>
