<?xml version="1.0" encoding="UTF-8" standalone="no"?>
<!DOCTYPE svg PUBLIC "-//W3C//DTD SVG 1.1//EN"
 "http://www.w3.org/Graphics/SVG/1.1/DTD/svg11.dtd">
<!-- Generated by graphviz version 2.40.1 (20161225.0304)
 -->
<!-- Title: %3 Pages: 1 -->
<svg width="1616pt" height="1147pt"
 viewBox="0.00 0.00 1616.15 1146.80" xmlns="http://www.w3.org/2000/svg" xmlns:xlink="http://www.w3.org/1999/xlink">
<g id="graph0" class="graph" transform="scale(1 1) rotate(0) translate(4 1142.8033)">
<title>%3</title>
<polygon fill="#ffffff" stroke="transparent" points="-4,4 -4,-1142.8033 1612.1455,-1142.8033 1612.1455,4 -4,4"/>
<!-- api_gateway -->
<g id="node1" class="node">
<title>api_gateway</title>
<ellipse fill="#f3bb44" stroke="#f3bb44" cx="579.1357" cy="-1120.0905" rx="76.8224" ry="18.928"/>
<text text-anchor="middle" x="579.1357" y="-1118.1224" font-family="Roboto Mono" font-size="14.00" fill="#000000">API Gateway</text>
</g>
<!-- ec2 -->
<g id="node2" class="node">
<title>ec2</title>
<ellipse fill="#f3bb44" stroke="#f3bb44" cx="683.1357" cy="-1007.0995" rx="29.272" ry="18.928"/>
<text text-anchor="middle" x="683.1357" y="-1005.1314" font-family="Roboto Mono" font-size="14.00" fill="#000000">EC2</text>
</g>
<!-- api_gateway&#45;&gt;ec2 -->
<g id="edge1" class="edge">
<title>api_gateway&#45;&gt;ec2</title>
<path fill="none" stroke="#555555" d="M596.0766,-1101.6851C613.8377,-1082.3885 641.8129,-1051.9947 661.2389,-1030.8893"/>
<polygon fill="#555555" stroke="#555555" points="664.0293,-1033.0258 668.2264,-1023.2978 658.8789,-1028.2852 664.0293,-1033.0258"/>
<text text-anchor="middle" x="688.1425" y="-1075.3777" font-family="Roboto Mono" font-size="10.00" fill="#555555">triggers</text>
<text text-anchor="middle" x="688.1425" y="-1062.1892" font-family="Roboto Mono" font-size="10.00" fill="#555555">(via internal</text>
<text text-anchor="middle" x="688.1425" y="-1049.0008" font-family="Roboto Mono" font-size="10.00" fill="#555555">HTTP endpoint)</text>
</g>
<!-- elb -->
<g id="node3" class="node">
<title>elb</title>
<ellipse fill="#f3bb44" stroke="#f3bb44" cx="837.1357" cy="-247.5149" rx="29.272" ry="18.928"/>
<text text-anchor="middle" x="837.1357" y="-245.5468" font-family="Roboto Mono" font-size="14.00" fill="#000000">ELB</text>
</g>
<!-- api_gateway&#45;&gt;elb -->
<g id="edge2" class="edge">
<title>api_gateway&#45;&gt;elb</title>
<path fill="none" stroke="#555555" d="M652.1501,-1114.3007C815.683,-1100.3531 1197.1357,-1061.9414 1197.1357,-1007.0995 1197.1357,-1007.0995 1197.1357,-1007.0995 1197.1357,-399.5411 1197.1357,-330.2131 967.6942,-274.6869 875.1532,-255.111"/>
<polygon fill="#555555" stroke="#555555" points="875.589,-251.6265 865.0847,-253.0091 874.1584,-258.4788 875.589,-251.6265"/>
<text text-anchor="middle" x="1221.1396" y="-711.4954" font-family="Roboto Mono" font-size="10.00" fill="#555555">triggers</text>
</g>
<!-- lambda -->
<g id="node4" class="node">
<title>lambda</title>
<ellipse fill="#f3bb44" stroke="#f3bb44" cx="309.1357" cy="-105.3268" rx="46.9154" ry="18.928"/>
<text text-anchor="middle" x="309.1357" y="-103.3587" font-family="Roboto Mono" font-size="14.00" fill="#000000">Lambda</text>
</g>
<!-- api_gateway&#45;&gt;lambda -->
<g id="edge3" class="edge">
<title>api_gateway&#45;&gt;lambda</title>
<path fill="none" stroke="#555555" d="M504.7632,-1115.1403C385.1069,-1105.1103 163.1357,-1077.0739 163.1357,-1007.0995 163.1357,-1007.0995 163.1357,-1007.0995 163.1357,-399.5411 163.1357,-279.5674 166.0138,-233.0926 244.1357,-142.0396 250.3332,-134.8162 258.324,-128.7159 266.5692,-123.6888"/>
<polygon fill="#555555" stroke="#555555" points="268.5354,-126.599 275.5431,-118.6528 265.1096,-120.4945 268.5354,-126.599"/>
<text text-anchor="middle" x="187.1396" y="-626.7725" font-family="Roboto Mono" font-size="10.00" fill="#555555">triggers</text>
</g>
<!-- region -->
<g id="node5" class="node">
<title>region</title>
<ellipse fill="#f3bb44" stroke="#f3bb44" cx="507.1357" cy="-18.7128" rx="46.9154" ry="18.928"/>
<text text-anchor="middle" x="507.1357" y="-16.7447" font-family="Roboto Mono" font-size="14.00" fill="#000000">Region</text>
</g>
<!-- api_gateway&#45;&gt;region -->
<g id="edge4" class="edge">
<title>api_gateway&#45;&gt;region</title>
<path fill="none" stroke="#555555" d="M655.9815,-1119.1663C885.1706,-1115.4007 1548.1357,-1096.7592 1548.1357,-1007.0995 1548.1357,-1007.0995 1548.1357,-1007.0995 1548.1357,-105.3268 1548.1357,-55.5612 782.6141,-27.4539 564.4986,-20.4555"/>
<polygon fill="#555555" stroke="#555555" points="564.3348,-16.9486 554.2285,-20.1286 564.112,-23.945 564.3348,-16.9486"/>
<text text-anchor="middle" x="1578.1406" y="-567.2242" font-family="Roboto Mono" font-size="10.00" fill="#555555">belongs to</text>
</g>
<!-- s3 -->
<g id="node6" class="node">
<title>s3</title>
<ellipse fill="#f3bb44" stroke="#f3bb44" cx="558.1357" cy="-247.5149" rx="46.9154" ry="31.5391"/>
<text text-anchor="middle" x="558.1357" y="-254.7787" font-family="Roboto Mono" font-size="14.00" fill="#000000">S3</text>
<text text-anchor="middle" x="558.1357" y="-236.3149" font-family="Roboto Mono" font-size="14.00" fill="#000000">Bucket</text>
</g>
<!-- api_gateway&#45;&gt;s3 -->
<g id="edge5" class="edge">
<title>api_gateway&#45;&gt;s3</title>
<path fill="none" stroke="#555555" d="M511.4615,-1111.0875C470.0706,-1104.5974 421.784,-1094.9599 404.1357,-1083.3777 369.4094,-1060.5876 350.1357,-1048.6363 350.1357,-1007.0995 350.1357,-1007.0995 350.1357,-1007.0995 350.1357,-399.5411 350.1357,-342.612 403.0216,-350.4047 453.1357,-323.3954 473.559,-312.3882 482.6909,-318.0512 502.1357,-305.3954 511.6461,-299.2056 520.7545,-291.1233 528.7601,-282.9706"/>
<polygon fill="#555555" stroke="#555555" points="531.4731,-285.1949 535.782,-275.5158 526.3776,-280.3953 531.4731,-285.1949"/>
<text text-anchor="middle" x="374.1396" y="-711.4954" font-family="Roboto Mono" font-size="10.00" fill="#555555">accesses</text>
</g>
<!-- service -->
<g id="node7" class="node">
<title>service</title>
<ellipse fill="#f3bb44" stroke="#f3bb44" cx="1268.1357" cy="-247.5149" rx="124.3729" ry="57.7614"/>
<text text-anchor="middle" x="1268.1357" y="-273.2426" font-family="Roboto Mono" font-size="14.00" fill="#000000">&quot;Service&quot;</text>
<text text-anchor="middle" x="1268.1357" y="-254.7787" font-family="Roboto Mono" font-size="14.00" fill="#000000">(not linking to</text>
<text text-anchor="middle" x="1268.1357" y="-236.3149" font-family="Roboto Mono" font-size="14.00" fill="#000000">the actual services</text>
<text text-anchor="middle" x="1268.1357" y="-217.851" font-family="Roboto Mono" font-size="14.00" fill="#000000">for clarity sake)</text>
</g>
<!-- api_gateway&#45;&gt;service -->
<g id="edge6" class="edge">
<title>api_gateway&#45;&gt;service</title>
<path fill="none" stroke="#555555" d="M654.5988,-1116.6421C768.3815,-1111.0333 978.4033,-1098.975 1052.1357,-1083.3777 1151.7416,-1062.3072 1268.1357,-1108.9097 1268.1357,-1007.0995 1268.1357,-1007.0995 1268.1357,-1007.0995 1268.1357,-399.5411 1268.1357,-372.1631 1268.1357,-342.0116 1268.1357,-315.8294"/>
<polygon fill="#555555" stroke="#555555" points="1271.6358,-315.6285 1268.1357,-305.6285 1264.6358,-315.6285 1271.6358,-315.6285"/>
<text text-anchor="middle" x="1292.1396" y="-711.4954" font-family="Roboto Mono" font-size="10.00" fill="#555555">accesses</text>
</g>
<!-- compute_instance -->
<g id="node11" class="node">
<title>compute_instance</title>
<ellipse fill="#f3bb44" stroke="#f3bb44" cx="257.1357" cy="-399.5411" rx="64.5601" ry="31.5391"/>
<text text-anchor="middle" x="257.1357" y="-406.805" font-family="Roboto Mono" font-size="14.00" fill="#000000">&quot;Compute</text>
<text text-anchor="middle" x="257.1357" y="-388.3411" font-family="Roboto Mono" font-size="14.00" fill="#000000">Instance&quot;</text>
</g>
<!-- ec2&#45;&gt;compute_instance -->
<g id="edge19" class="edge">
<title>ec2&#45;&gt;compute_instance</title>
<path fill="none" stroke="#555555" d="M661.8429,-994.2539C642.538,-981.8704 614.1285,-961.7314 594.1357,-939.1983 533.7004,-871.0838 537.4659,-840.4635 490.1357,-762.6699 435.4059,-672.7139 421.0935,-650.5977 364.1357,-562.0357 336.7966,-519.527 304.8623,-471.1975 283.0441,-438.3737"/>
<polygon fill="#555555" stroke="#555555" points="285.9006,-436.3485 277.4479,-429.9608 280.0723,-440.2255 285.9006,-436.3485"/>
<text text-anchor="middle" x="490.1377" y="-711.4954" font-family="Roboto Mono" font-size="10.00" fill="#555555">is a</text>
</g>
<!-- ec2_security_group -->
<g id="node14" class="node">
<title>ec2_security_group</title>
<ellipse fill="#f3bb44" stroke="#f3bb44" cx="843.1357" cy="-907.4295" rx="94.466" ry="31.5391"/>
<text text-anchor="middle" x="843.1357" y="-914.6934" font-family="Roboto Mono" font-size="14.00" fill="#000000">EC2</text>
<text text-anchor="middle" x="843.1357" y="-896.2295" font-family="Roboto Mono" font-size="14.00" fill="#000000">Security Group</text>
</g>
<!-- ec2&#45;&gt;ec2_security_group -->
<g id="edge20" class="edge">
<title>ec2&#45;&gt;ec2_security_group</title>
<path fill="none" stroke="#555555" d="M704.0529,-994.0694C725.6399,-980.6221 760.1947,-959.0966 789.46,-940.8661"/>
<polygon fill="#555555" stroke="#555555" points="791.3171,-943.8329 797.9544,-935.5747 787.6159,-937.8914 791.3171,-943.8329"/>
<text text-anchor="middle" x="772.1372" y="-962.3867" font-family="Roboto Mono" font-size="10.00" fill="#555555">has</text>
</g>
<!-- vpc_subnet -->
<g id="node15" class="node">
<title>vpc_subnet</title>
<ellipse fill="#f3bb44" stroke="#f3bb44" cx="1040.1357" cy="-907.4295" rx="46.9154" ry="31.5391"/>
<text text-anchor="middle" x="1040.1357" y="-914.6934" font-family="Roboto Mono" font-size="14.00" fill="#000000">VPC</text>
<text text-anchor="middle" x="1040.1357" y="-896.2295" font-family="Roboto Mono" font-size="14.00" fill="#000000">Subnet</text>
</g>
<!-- ec2&#45;&gt;vpc_subnet -->
<g id="edge21" class="edge">
<title>ec2&#45;&gt;vpc_subnet</title>
<path fill="none" stroke="#555555" d="M712.2888,-1005.9357C777.4211,-1002.9456 932.6727,-993.5396 979.1357,-970.3867 991.7271,-964.1123 1003.1787,-954.1606 1012.6719,-944.0053"/>
<polygon fill="#555555" stroke="#555555" points="1015.5246,-946.0634 1019.5361,-936.2574 1010.285,-941.4215 1015.5246,-946.0634"/>
<text text-anchor="middle" x="1026.1406" y="-962.3867" font-family="Roboto Mono" font-size="10.00" fill="#555555">belongs to</text>
</g>
<!-- elb&#45;&gt;ec2 -->
<g id="edge23" class="edge">
<title>elb&#45;&gt;ec2</title>
<path fill="none" stroke="#555555" d="M848.8832,-264.9238C873.3571,-302.3588 929.1862,-394.1355 949.1357,-480.4983 981.5906,-620.9975 967.4272,-913.3846 946.1357,-939.1983 917.796,-973.5572 788.0877,-994.1802 722.0339,-1002.6312"/>
<polygon fill="#555555" stroke="#555555" points="721.4938,-999.1714 712.0045,-1003.8833 722.361,-1006.1174 721.4938,-999.1714"/>
<text text-anchor="middle" x="1006.142" y="-633.3668" font-family="Roboto Mono" font-size="10.00" fill="#555555">triggers (via</text>
<text text-anchor="middle" x="1006.142" y="-620.1783" font-family="Roboto Mono" font-size="10.00" fill="#555555">internal IP)</text>
</g>
<!-- elb&#45;&gt;ec2_security_group -->
<g id="edge24" class="edge">
<title>elb&#45;&gt;ec2_security_group</title>
<path fill="none" stroke="#555555" d="M836.3394,-266.3318C834.3159,-315.8263 829.1357,-453.7511 829.1357,-568.6299 829.1357,-781.3826 829.1357,-781.3826 829.1357,-781.3826 829.1357,-809.6066 832.646,-841.1694 836.1511,-865.6506"/>
<polygon fill="#555555" stroke="#555555" points="832.7094,-866.3024 837.6427,-875.6786 839.6333,-865.2724 832.7094,-866.3024"/>
<text text-anchor="middle" x="838.1372" y="-567.2242" font-family="Roboto Mono" font-size="10.00" fill="#555555">has</text>
</g>
<!-- vpc -->
<g id="node16" class="node">
<title>vpc</title>
<ellipse fill="#f3bb44" stroke="#f3bb44" cx="908.1357" cy="-781.3826" rx="29.272" ry="18.928"/>
<text text-anchor="middle" x="908.1357" y="-779.4146" font-family="Roboto Mono" font-size="14.00" fill="#000000">VPC</text>
</g>
<!-- elb&#45;&gt;vpc -->
<g id="edge25" class="edge">
<title>elb&#45;&gt;vpc</title>
<path fill="none" stroke="#555555" d="M840.6499,-266.2138C843.5196,-281.5655 847.6549,-303.8772 851.1357,-323.3954 868.6053,-421.3552 868.6911,-446.6513 889.1259,-544.0357 902.0185,-605.4763 915.5218,-618.8171 923.1357,-681.1324 926.5606,-709.1628 928.5781,-716.9604 923.1357,-744.6699 922.5315,-747.746 921.6678,-750.8893 920.6559,-753.9785"/>
<polygon fill="#555555" stroke="#555555" points="917.3135,-752.9222 917.0552,-763.5139 923.8622,-755.3951 917.3135,-752.9222"/>
<text text-anchor="middle" x="918.1406" y="-510.8612" font-family="Roboto Mono" font-size="10.00" fill="#555555">belongs to</text>
</g>
<!-- lambda&#45;&gt;region -->
<g id="edge38" class="edge">
<title>lambda&#45;&gt;region</title>
<path fill="none" stroke="#555555" d="M328.0582,-87.9434C340.6023,-77.2314 357.874,-63.9591 375.1259,-55.4256 399.8631,-43.1895 429.291,-34.5039 454.0777,-28.6637"/>
<polygon fill="#555555" stroke="#555555" points="455.0536,-32.0314 464.0341,-26.41 453.5081,-25.2042 455.0536,-32.0314"/>
<text text-anchor="middle" x="404.1406" y="-60.614" font-family="Roboto Mono" font-size="10.00" fill="#555555">belongs to</text>
</g>
<!-- lambda&#45;&gt;compute_instance -->
<g id="edge37" class="edge">
<title>lambda&#45;&gt;compute_instance</title>
<path fill="none" stroke="#555555" d="M308.3083,-124.2816C306.4709,-160.0411 301.0561,-239.7639 287.1357,-305.3954 283.3923,-323.0445 277.6613,-342.082 272.2077,-358.3883"/>
<polygon fill="#555555" stroke="#555555" points="268.793,-357.5569 268.8681,-368.1515 275.4163,-359.8225 268.793,-357.5569"/>
<text text-anchor="middle" x="315.1377" y="-246.1091" font-family="Roboto Mono" font-size="10.00" fill="#555555">is a</text>
</g>
<!-- s3&#45;&gt;lambda -->
<g id="edge43" class="edge">
<title>s3&#45;&gt;lambda</title>
<path fill="none" stroke="#555555" d="M533.6322,-220.3875C524.1352,-210.3636 512.9565,-199.1378 502.1357,-189.6343 475.5016,-166.2427 469.9247,-157.7242 438.1357,-142.0396 414.2,-130.2298 385.8365,-121.6355 361.8091,-115.7448"/>
<polygon fill="#555555" stroke="#555555" points="362.3391,-112.2738 351.8027,-113.3843 360.7319,-119.0868 362.3391,-112.2738"/>
<text text-anchor="middle" x="505.1396" y="-155.4312" font-family="Roboto Mono" font-size="10.00" fill="#555555">triggers</text>
</g>
<!-- s3&#45;&gt;region -->
<g id="edge44" class="edge">
<title>s3&#45;&gt;region</title>
<path fill="none" stroke="#555555" d="M551.0444,-215.7009C541.082,-171.0068 523.093,-90.3023 513.5248,-47.3765"/>
<polygon fill="#555555" stroke="#555555" points="516.9309,-46.5693 511.3391,-37.5704 510.0986,-48.0923 516.9309,-46.5693"/>
<text text-anchor="middle" x="559.1406" y="-103.9211" font-family="Roboto Mono" font-size="10.00" fill="#555555">belongs to</text>
</g>
<!-- availability_zone -->
<g id="node8" class="node">
<title>availability_zone</title>
<ellipse fill="#f3bb44" stroke="#f3bb44" cx="1091.1357" cy="-712.9011" rx="82.7035" ry="31.5391"/>
<text text-anchor="middle" x="1091.1357" y="-720.165" font-family="Roboto Mono" font-size="14.00" fill="#000000">Availability</text>
<text text-anchor="middle" x="1091.1357" y="-701.7011" font-family="Roboto Mono" font-size="14.00" fill="#000000">Zone</text>
</g>
<!-- availability_zone&#45;&gt;region -->
<g id="edge7" class="edge">
<title>availability_zone&#45;&gt;region</title>
<path fill="none" stroke="#555555" d="M1093.0918,-680.9873C1099.6849,-561.117 1115.7972,-140.297 1023.1357,-55.4256 1006.4309,-40.1251 695.4709,-26.1355 564.5125,-20.8964"/>
<polygon fill="#555555" stroke="#555555" points="564.4094,-17.3896 554.2784,-20.4901 564.1317,-24.3841 564.4094,-17.3896"/>
<text text-anchor="middle" x="1127.1406" y="-398.1353" font-family="Roboto Mono" font-size="10.00" fill="#555555">belongs to</text>
</g>
<!-- cloudfront -->
<g id="node9" class="node">
<title>cloudfront</title>
<ellipse fill="#f3bb44" stroke="#f3bb44" cx="610.1357" cy="-399.5411" rx="70.9414" ry="18.928"/>
<text text-anchor="middle" x="610.1357" y="-397.573" font-family="Roboto Mono" font-size="14.00" fill="#000000">CloudFront</text>
</g>
<!-- cloudfront&#45;&gt;api_gateway -->
<g id="edge8" class="edge">
<title>cloudfront&#45;&gt;api_gateway</title>
<path fill="none" stroke="#555555" d="M573.8126,-415.8074C557.8648,-424.1955 539.7214,-435.5678 526.1357,-449.3098 514.8837,-460.6912 514.9507,-466.0173 508.1357,-480.4983 451.155,-601.5741 432.8958,-632.2117 403.1162,-762.6699 395.6454,-795.3976 396.1357,-804.3086 396.1357,-837.8781 396.1357,-1007.0995 396.1357,-1007.0995 396.1357,-1007.0995 396.1357,-1062.0845 456.6888,-1091.199 508.1309,-1106.012"/>
<polygon fill="#555555" stroke="#555555" points="507.3755,-1109.434 517.9449,-1108.701 509.2253,-1102.6828 507.3755,-1109.434"/>
<text text-anchor="middle" x="447.1455" y="-786.5711" font-family="Roboto Mono" font-size="10.00" fill="#555555">accesses (if</text>
<text text-anchor="middle" x="447.1455" y="-773.3826" font-family="Roboto Mono" font-size="10.00" fill="#555555">edge&#45;optimized)</text>
</g>
<!-- cloudfront&#45;&gt;ec2 -->
<g id="edge9" class="edge">
<title>cloudfront&#45;&gt;ec2</title>
<path fill="none" stroke="#555555" d="M648.149,-415.4601C662.6588,-421.0807 679.477,-427.0546 695.1357,-431.3098 717.5583,-437.4031 783.1865,-431.5215 798.1357,-449.3098 866.681,-530.8727 758.1569,-576.6885 737.123,-681.1324 726.6021,-733.3739 729.7906,-747.3577 722.1357,-800.0954 711.1179,-876.0013 711.4006,-895.6538 694.1357,-970.3867 693.5113,-973.0893 692.7986,-975.8852 692.0429,-978.6724"/>
<polygon fill="#555555" stroke="#555555" points="688.6035,-977.9684 689.1984,-988.5465 695.3299,-979.9062 688.6035,-977.9684"/>
<text text-anchor="middle" x="775.142" y="-718.0896" font-family="Roboto Mono" font-size="10.00" fill="#555555">accesses (via</text>
<text text-anchor="middle" x="775.142" y="-704.9011" font-family="Roboto Mono" font-size="10.00" fill="#555555">public IP)</text>
</g>
<!-- cloudfront&#45;&gt;elb -->
<g id="edge10" class="edge">
<title>cloudfront&#45;&gt;elb</title>
<path fill="none" stroke="#555555" d="M608.9315,-380.727C608.8785,-363.7989 611.4989,-339.2231 625.123,-323.3954 668.9616,-272.4664 749.5115,-255.7196 797.7105,-250.2128"/>
<polygon fill="#555555" stroke="#555555" points="798.1834,-253.6827 807.7706,-249.1731 797.4637,-246.7197 798.1834,-253.6827"/>
<text text-anchor="middle" x="663.142" y="-341.7724" font-family="Roboto Mono" font-size="10.00" fill="#555555">accesses (via</text>
<text text-anchor="middle" x="663.142" y="-328.5839" font-family="Roboto Mono" font-size="10.00" fill="#555555">public IP)</text>
</g>
<!-- cloudfront&#45;&gt;s3 -->
<g id="edge11" class="edge">
<title>cloudfront&#45;&gt;s3</title>
<path fill="none" stroke="#555555" d="M569.0132,-384.1376C553.9985,-376.2778 538.6258,-365.0731 530.124,-349.7724 519.1642,-330.0483 525.1237,-305.7665 534.3119,-285.8147"/>
<polygon fill="#555555" stroke="#555555" points="537.5289,-287.2065 538.8659,-276.6964 531.2665,-284.0788 537.5289,-287.2065"/>
<text text-anchor="middle" x="565.1416" y="-341.7724" font-family="Roboto Mono" font-size="10.00" fill="#555555">accesses</text>
<text text-anchor="middle" x="565.1416" y="-328.5839" font-family="Roboto Mono" font-size="10.00" fill="#555555">(internally)</text>
</g>
<!-- cloudwatch -->
<g id="node10" class="node">
<title>cloudwatch</title>
<ellipse fill="#f3bb44" stroke="#f3bb44" cx="422.1357" cy="-247.5149" rx="70.9414" ry="18.928"/>
<text text-anchor="middle" x="422.1357" y="-245.5468" font-family="Roboto Mono" font-size="14.00" fill="#000000">CloudWatch</text>
</g>
<!-- cloudwatch&#45;&gt;lambda -->
<g id="edge12" class="edge">
<title>cloudwatch&#45;&gt;lambda</title>
<path fill="none" stroke="#555555" d="M403.3024,-229.3702C388.3561,-214.5194 367.3497,-192.6136 351.122,-171.6343 341.6223,-159.353 332.2606,-144.867 324.7963,-132.5726"/>
<polygon fill="#555555" stroke="#555555" points="327.6156,-130.4667 319.4874,-123.6709 321.6036,-134.0522 327.6156,-130.4667"/>
<text text-anchor="middle" x="392.1425" y="-163.6343" font-family="Roboto Mono" font-size="10.00" fill="#555555">triggers (when</text>
<text text-anchor="middle" x="392.1425" y="-150.4458" font-family="Roboto Mono" font-size="10.00" fill="#555555">scheduled ⏰)</text>
</g>
<!-- cloudwatch&#45;&gt;region -->
<g id="edge13" class="edge">
<title>cloudwatch&#45;&gt;region</title>
<path fill="none" stroke="#555555" d="M425.3424,-228.7973C431.7886,-192.1013 446.6789,-112.0673 458.1259,-86.614 464.9088,-71.5317 475.3402,-56.4466 484.8385,-44.3389"/>
<polygon fill="#555555" stroke="#555555" points="487.6376,-46.4438 491.2089,-36.469 482.1968,-42.0396 487.6376,-46.4438"/>
<text text-anchor="middle" x="487.1406" y="-103.9211" font-family="Roboto Mono" font-size="10.00" fill="#555555">belongs to</text>
</g>
<!-- compute_instance&#45;&gt;ec2 -->
<g id="edge14" class="edge">
<title>compute_instance&#45;&gt;ec2</title>
<path fill="none" stroke="#555555" d="M253.6501,-431.5673C251.4942,-454.106 249.1357,-484.9956 249.1357,-512.267 249.1357,-907.4295 249.1357,-907.4295 249.1357,-907.4295 249.1357,-988.0451 537.175,-1003.4602 643.9404,-1006.405"/>
<polygon fill="#555555" stroke="#555555" points="643.9003,-1009.905 653.9858,-1006.6597 644.0778,-1002.9073 643.9003,-1009.905"/>
<text text-anchor="middle" x="288.142" y="-718.0896" font-family="Roboto Mono" font-size="10.00" fill="#555555">triggers (via</text>
<text text-anchor="middle" x="288.142" y="-704.9011" font-family="Roboto Mono" font-size="10.00" fill="#555555">internal IP)</text>
</g>
<!-- compute_instance&#45;&gt;lambda -->
<g id="edge15" class="edge">
<title>compute_instance&#45;&gt;lambda</title>
<path fill="none" stroke="#555555" d="M253.3351,-367.8181C251.3791,-354.0598 248.6556,-337.8274 245.1357,-323.3954 243.1373,-315.2018 240.4805,-313.7201 239.1279,-305.3954 230.8767,-254.612 221.6554,-238.026 239.1279,-189.6343 247.5677,-166.2597 265.6217,-144.7888 281.2813,-129.3647"/>
<polygon fill="#555555" stroke="#555555" points="283.8828,-131.721 288.7237,-122.2968 279.0623,-126.6452 283.8828,-131.721"/>
<text text-anchor="middle" x="263.1396" y="-246.1091" font-family="Roboto Mono" font-size="10.00" fill="#555555">triggers</text>
</g>
<!-- compute_instance&#45;&gt;service -->
<g id="edge16" class="edge">
<title>compute_instance&#45;&gt;service</title>
<path fill="none" stroke="#555555" d="M317.4542,-387.7926C354.2231,-381.0194 402.2391,-372.8634 445.1357,-367.7724 560.6009,-354.0688 590.759,-364.2021 706.1357,-349.7724 858.3736,-330.7326 1031.8544,-297.3604 1145.3055,-273.9318"/>
<polygon fill="#555555" stroke="#555555" points="1146.3294,-277.2941 1155.4115,-271.8384 1144.9094,-270.4397 1146.3294,-277.2941"/>
<text text-anchor="middle" x="900.1396" y="-335.1782" font-family="Roboto Mono" font-size="10.00" fill="#555555">accesses</text>
</g>
<!-- sns -->
<g id="node12" class="node">
<title>sns</title>
<ellipse fill="#f3bb44" stroke="#f3bb44" cx="109.1357" cy="-247.5149" rx="29.272" ry="18.928"/>
<text text-anchor="middle" x="109.1357" y="-245.5468" font-family="Roboto Mono" font-size="14.00" fill="#000000">SNS</text>
</g>
<!-- compute_instance&#45;&gt;sns -->
<g id="edge17" class="edge">
<title>compute_instance&#45;&gt;sns</title>
<path fill="none" stroke="#555555" d="M222.629,-372.5974C214.0493,-365.4495 205.0467,-357.5487 197.1279,-349.7724 171.9011,-324.9997 145.8283,-293.8849 128.6796,-272.5221"/>
<polygon fill="#555555" stroke="#555555" points="131.3126,-270.21 122.345,-264.5679 125.8369,-274.5708 131.3126,-270.21"/>
<text text-anchor="middle" x="221.1396" y="-335.1782" font-family="Roboto Mono" font-size="10.00" fill="#555555">accesses</text>
</g>
<!-- sqs -->
<g id="node13" class="node">
<title>sqs</title>
<ellipse fill="#f3bb44" stroke="#f3bb44" cx="29.1357" cy="-105.3268" rx="29.272" ry="18.928"/>
<text text-anchor="middle" x="29.1357" y="-103.3587" font-family="Roboto Mono" font-size="14.00" fill="#000000">SQS</text>
</g>
<!-- compute_instance&#45;&gt;sqs -->
<g id="edge18" class="edge">
<title>compute_instance&#45;&gt;sqs</title>
<path fill="none" stroke="#555555" d="M193.5403,-393.2721C138.1438,-384.0685 60.9412,-361.3672 23.1279,-305.3954 -12.1109,-253.2345 5.5292,-174.7158 18.8574,-133.2591"/>
<polygon fill="#555555" stroke="#555555" points="22.2501,-134.1505 22.1182,-123.5564 15.6148,-131.9205 22.2501,-134.1505"/>
<text text-anchor="middle" x="47.1396" y="-246.1091" font-family="Roboto Mono" font-size="10.00" fill="#555555">accesses</text>
</g>
<!-- sns&#45;&gt;lambda -->
<g id="edge45" class="edge">
<title>sns&#45;&gt;lambda</title>
<path fill="none" stroke="#555555" d="M108.7712,-228.5576C109.4021,-204.8386 114.2465,-164.6023 138.1279,-142.0396 154.5773,-126.4985 209.8422,-116.609 253.1474,-111.0584"/>
<polygon fill="#555555" stroke="#555555" points="253.809,-114.5035 263.3058,-109.8065 252.9527,-107.556 253.809,-114.5035"/>
<text text-anchor="middle" x="162.1396" y="-155.4312" font-family="Roboto Mono" font-size="10.00" fill="#555555">triggers</text>
</g>
<!-- sns&#45;&gt;region -->
<g id="edge46" class="edge">
<title>sns&#45;&gt;region</title>
<path fill="none" stroke="#555555" d="M106.2967,-228.6429C103.913,-206.4335 102.9811,-169.1507 118.1357,-142.0396 138.3575,-105.8635 155.3638,-103.692 193.1259,-86.614 278.2683,-48.1082 386.4578,-30.9203 451.0624,-23.6395"/>
<polygon fill="#555555" stroke="#555555" points="451.4834,-27.1144 461.0466,-22.5543 450.7269,-20.1554 451.4834,-27.1144"/>
<text text-anchor="middle" x="223.1406" y="-103.9211" font-family="Roboto Mono" font-size="10.00" fill="#555555">belongs to</text>
</g>
<!-- sns&#45;&gt;sqs -->
<g id="edge47" class="edge">
<title>sns&#45;&gt;sqs</title>
<path fill="none" stroke="#555555" d="M93.8367,-231.1912C82.8627,-219.537 67.6838,-203.5292 54.1357,-189.6343 46.2355,-181.5319 41.0017,-181.847 36.1269,-171.6343 30.6505,-160.1612 28.5862,-146.3281 28.0144,-134.2717"/>
<polygon fill="#555555" stroke="#555555" points="31.5134,-134.1786 27.8477,-124.2381 24.5144,-134.2949 31.5134,-134.1786"/>
<text text-anchor="middle" x="63.1401" y="-155.4312" font-family="Roboto Mono" font-size="10.00" fill="#555555">pushes to</text>
</g>
<!-- sqs&#45;&gt;region -->
<g id="edge48" class="edge">
<title>sqs&#45;&gt;region</title>
<path fill="none" stroke="#555555" d="M23.9187,-86.4234C22.2622,-75.9638 22.5097,-63.4885 30.1259,-55.4256 44.3589,-40.3577 326.4829,-26.4642 450.0208,-21.0768"/>
<polygon fill="#555555" stroke="#555555" points="450.2149,-24.5717 460.0542,-20.6427 449.9123,-17.5783 450.2149,-24.5717"/>
<text text-anchor="middle" x="60.1406" y="-60.614" font-family="Roboto Mono" font-size="10.00" fill="#555555">belongs to</text>
</g>
<!-- ec2_security_group&#45;&gt;vpc -->
<g id="edge22" class="edge">
<title>ec2_security_group&#45;&gt;vpc</title>
<path fill="none" stroke="#555555" d="M859.3703,-875.9477C870.0988,-855.1432 884.0134,-828.1602 894.2317,-808.345"/>
<polygon fill="#555555" stroke="#555555" points="897.4483,-809.7439 898.9209,-799.2519 891.2268,-806.5355 897.4483,-809.7439"/>
<text text-anchor="middle" x="918.1406" y="-836.4724" font-family="Roboto Mono" font-size="10.00" fill="#555555">belongs to</text>
</g>
<!-- vpc_subnet&#45;&gt;availability_zone -->
<g id="edge51" class="edge">
<title>vpc_subnet&#45;&gt;availability_zone</title>
<path fill="none" stroke="#555555" d="M1049.8123,-876.1696C1051.635,-870.048 1053.4854,-863.6649 1055.1357,-857.6608 1064.6524,-823.0376 1074.4207,-783.4549 1081.3764,-754.4413"/>
<polygon fill="#555555" stroke="#555555" points="1084.7973,-755.1845 1083.7145,-744.6451 1077.9885,-753.5594 1084.7973,-755.1845"/>
<text text-anchor="middle" x="1094.1406" y="-836.4724" font-family="Roboto Mono" font-size="10.00" fill="#555555">belongs to</text>
</g>
<!-- vpc_subnet&#45;&gt;vpc -->
<g id="edge52" class="edge">
<title>vpc_subnet&#45;&gt;vpc</title>
<path fill="none" stroke="#555555" d="M1014.9922,-880.5614C997.7372,-862.4615 974.0775,-838.2974 952.1357,-818.0954 946.5001,-812.9066 940.274,-807.5179 934.3225,-802.5188"/>
<polygon fill="#555555" stroke="#555555" points="936.3905,-799.6869 926.4582,-795.9989 931.9227,-805.0758 936.3905,-799.6869"/>
<text text-anchor="middle" x="1021.1406" y="-836.4724" font-family="Roboto Mono" font-size="10.00" fill="#555555">belongs to</text>
</g>
<!-- vpc&#45;&gt;region -->
<g id="edge50" class="edge">
<title>vpc&#45;&gt;region</title>
<path fill="none" stroke="#555555" d="M921.8981,-764.5635C939.9031,-743.286 973.1753,-706.3798 1007.1357,-681.1324 1020.8573,-670.9313 1032.3164,-677.7805 1041.1357,-663.1324 1057.162,-636.5143 1043.0616,-624.2348 1041.1357,-593.2242 1034.0109,-478.4996 1009.1357,-451.5295 1009.1357,-336.5839 1009.1357,-336.5839 1009.1357,-336.5839 1009.1357,-105.3268 1009.1357,-60.5504 694.983,-32.4139 563.7153,-22.6116"/>
<polygon fill="#555555" stroke="#555555" points="563.6932,-19.1005 553.4628,-21.8556 563.1784,-26.0816 563.6932,-19.1005"/>
<text text-anchor="middle" x="1045.1406" y="-398.1353" font-family="Roboto Mono" font-size="10.00" fill="#555555">belongs to</text>
</g>
<!-- internet -->
<g id="node21" class="node">
<title>internet</title>
<ellipse fill="#aaddff" stroke="#aaddff" cx="567.1357" cy="-628.1783" rx="58.6785" ry="34.9083"/>
<text text-anchor="middle" x="567.1357" y="-637.6946" font-family="Roboto Mono" font-size="14.00" fill="#000000">️️Internet</text>
<text text-anchor="middle" x="567.1357" y="-619.2307" font-family="Roboto Mono" font-size="14.00" fill="#000000">☁️</text>
</g>
<!-- vpc&#45;&gt;internet -->
<g id="edge49" class="edge">
<title>vpc&#45;&gt;internet</title>
<path fill="none" stroke="#555555" d="M888.3035,-767.0892C880.0729,-760.694 870.6979,-752.7757 863.1259,-744.6699 839.5059,-719.3844 847.054,-700.1322 818.1357,-681.1324 788.5021,-661.6627 698.6254,-645.9262 634.9124,-636.8114"/>
<polygon fill="#555555" stroke="#555555" points="635.3149,-633.3336 624.9247,-635.4058 634.3393,-640.2653 635.3149,-633.3336"/>
<text text-anchor="middle" x="892.1406" y="-718.0896" font-family="Roboto Mono" font-size="10.00" fill="#555555">exposed to</text>
<text text-anchor="middle" x="892.1406" y="-704.9011" font-family="Roboto Mono" font-size="10.00" fill="#555555">(optional)</text>
</g>
<!-- iam_group -->
<g id="node17" class="node">
<title>iam_group</title>
<ellipse fill="#f3bb44" stroke="#f3bb44" cx="1479.1357" cy="-512.267" rx="41.0341" ry="31.5391"/>
<text text-anchor="middle" x="1479.1357" y="-519.5309" font-family="Roboto Mono" font-size="14.00" fill="#000000">IAM</text>
<text text-anchor="middle" x="1479.1357" y="-501.067" font-family="Roboto Mono" font-size="14.00" fill="#000000">Group</text>
</g>
<!-- iam_policy -->
<g id="node18" class="node">
<title>iam_policy</title>
<ellipse fill="#f3bb44" stroke="#f3bb44" cx="1373.1357" cy="-399.5411" rx="46.9154" ry="31.5391"/>
<text text-anchor="middle" x="1373.1357" y="-406.805" font-family="Roboto Mono" font-size="14.00" fill="#000000">IAM</text>
<text text-anchor="middle" x="1373.1357" y="-388.3411" font-family="Roboto Mono" font-size="14.00" fill="#000000">Policy</text>
</g>
<!-- iam_group&#45;&gt;iam_policy -->
<g id="edge26" class="edge">
<title>iam_group&#45;&gt;iam_policy</title>
<path fill="none" stroke="#555555" d="M1454.8172,-486.4054C1440.1878,-470.8478 1421.3864,-450.8534 1405.5105,-433.9701"/>
<polygon fill="#555555" stroke="#555555" points="1407.8477,-431.3464 1398.4475,-426.4589 1402.7481,-436.1417 1407.8477,-431.3464"/>
<text text-anchor="middle" x="1438.1372" y="-454.4983" font-family="Roboto Mono" font-size="10.00" fill="#555555">has</text>
</g>
<!-- iam_policy&#45;&gt;service -->
<g id="edge27" class="edge">
<title>iam_policy&#45;&gt;service</title>
<path fill="none" stroke="#555555" d="M1353.1389,-370.5883C1341.5291,-353.7789 1326.4231,-331.9074 1312.1718,-311.2734"/>
<polygon fill="#555555" stroke="#555555" points="1314.9042,-309.0707 1306.3413,-302.8316 1309.1444,-313.0489 1314.9042,-309.0707"/>
<text text-anchor="middle" x="1363.1401" y="-341.7724" font-family="Roboto Mono" font-size="10.00" fill="#555555">defines</text>
<text text-anchor="middle" x="1363.1401" y="-328.5839" font-family="Roboto Mono" font-size="10.00" fill="#555555">access to</text>
</g>
<!-- iam_role -->
<g id="node19" class="node">
<title>iam_role</title>
<ellipse fill="#f3bb44" stroke="#f3bb44" cx="1331.1357" cy="-512.267" rx="35.1529" ry="31.5391"/>
<text text-anchor="middle" x="1331.1357" y="-519.5309" font-family="Roboto Mono" font-size="14.00" fill="#000000">IAM</text>
<text text-anchor="middle" x="1331.1357" y="-501.067" font-family="Roboto Mono" font-size="14.00" fill="#000000">Role</text>
</g>
<!-- iam_role&#45;&gt;iam_policy -->
<g id="edge28" class="edge">
<title>iam_role&#45;&gt;iam_policy</title>
<path fill="none" stroke="#555555" d="M1342.3909,-482.0585C1347.1618,-469.2537 1352.7949,-454.1348 1357.9273,-440.3596"/>
<polygon fill="#555555" stroke="#555555" points="1361.3448,-441.2117 1361.5565,-430.619 1354.7853,-438.7677 1361.3448,-441.2117"/>
<text text-anchor="middle" x="1362.1372" y="-454.4983" font-family="Roboto Mono" font-size="10.00" fill="#555555">has</text>
</g>
<!-- iam_user -->
<g id="node20" class="node">
<title>iam_user</title>
<ellipse fill="#f3bb44" stroke="#f3bb44" cx="1426.1357" cy="-628.1783" rx="35.1529" ry="31.5391"/>
<text text-anchor="middle" x="1426.1357" y="-635.4422" font-family="Roboto Mono" font-size="14.00" fill="#000000">IAM</text>
<text text-anchor="middle" x="1426.1357" y="-616.9783" font-family="Roboto Mono" font-size="14.00" fill="#000000">User</text>
</g>
<!-- iam_user&#45;&gt;iam_group -->
<g id="edge29" class="edge">
<title>iam_user&#45;&gt;iam_group</title>
<path fill="none" stroke="#555555" d="M1439.647,-598.6291C1446.1488,-584.4095 1454.0366,-567.1589 1461.0478,-551.8253"/>
<polygon fill="#555555" stroke="#555555" points="1464.3044,-553.1198 1465.2798,-542.5699 1457.9383,-550.2089 1464.3044,-553.1198"/>
<text text-anchor="middle" x="1485.1406" y="-567.2242" font-family="Roboto Mono" font-size="10.00" fill="#555555">belongs to</text>
</g>
<!-- iam_user&#45;&gt;iam_policy -->
<g id="edge30" class="edge">
<title>iam_user&#45;&gt;iam_policy</title>
<path fill="none" stroke="#555555" d="M1418.8774,-596.8667C1409.514,-556.474 1393.1971,-486.0841 1382.7938,-441.2052"/>
<polygon fill="#555555" stroke="#555555" points="1386.1443,-440.1596 1380.4764,-431.2083 1379.3251,-441.7403 1386.1443,-440.1596"/>
<text text-anchor="middle" x="1415.1372" y="-510.8612" font-family="Roboto Mono" font-size="10.00" fill="#555555">has</text>
</g>
<!-- internet&#45;&gt;api_gateway -->
<g id="edge31" class="edge">
<title>internet&#45;&gt;api_gateway</title>
<path fill="none" stroke="#555555" d="M540.5789,-659.544C535.8475,-666.332 531.3958,-673.7103 528.1357,-681.1324 526.4704,-684.9237 471.6131,-859.6339 490.1279,-939.1983 503.7089,-997.5607 538.9324,-1058.7638 560.7775,-1092.9065"/>
<polygon fill="#555555" stroke="#555555" points="557.9057,-1094.9107 566.2883,-1101.39 563.7759,-1091.0974 557.9057,-1094.9107"/>
<text text-anchor="middle" x="513.1396" y="-906.0238" font-family="Roboto Mono" font-size="10.00" fill="#555555">triggers</text>
</g>
<!-- internet&#45;&gt;ec2 -->
<g id="edge33" class="edge">
<title>internet&#45;&gt;ec2</title>
<path fill="none" stroke="#555555" d="M573.5047,-663.1525C574.4728,-669.138 575.3944,-675.3045 576.1357,-681.1324 586.0715,-759.2424 566.4815,-782.8767 591.123,-857.6608 606.9361,-905.6516 640.8768,-954.1794 662.8215,-982.4076"/>
<polygon fill="#555555" stroke="#555555" points="660.2662,-984.819 669.2135,-990.4933 665.7576,-980.4779 660.2662,-984.819"/>
<text text-anchor="middle" x="629.142" y="-849.6608" font-family="Roboto Mono" font-size="10.00" fill="#555555">triggers (via</text>
<text text-anchor="middle" x="629.142" y="-836.4724" font-family="Roboto Mono" font-size="10.00" fill="#555555">public or</text>
<text text-anchor="middle" x="629.142" y="-823.2839" font-family="Roboto Mono" font-size="10.00" fill="#555555">Elastic IP)</text>
</g>
<!-- internet&#45;&gt;elb -->
<g id="edge34" class="edge">
<title>internet&#45;&gt;elb</title>
<path fill="none" stroke="#555555" d="M612.7222,-605.7947C640.6829,-590.7185 676.1674,-569.0575 703.1357,-544.0357 725.8438,-522.9666 771.5975,-459.1716 785.1357,-431.3098 810.2642,-379.5949 825.2076,-313.6221 832.2354,-276.427"/>
<polygon fill="#555555" stroke="#555555" points="835.7323,-276.7612 834.0875,-266.2948 828.8464,-275.5025 835.7323,-276.7612"/>
<text text-anchor="middle" x="798.1396" y="-454.4983" font-family="Roboto Mono" font-size="10.00" fill="#555555">triggers</text>
</g>
<!-- internet&#45;&gt;s3 -->
<g id="edge36" class="edge">
<title>internet&#45;&gt;s3</title>
<path fill="none" stroke="#555555" d="M537.8859,-597.8365C531.8907,-590.7449 525.9494,-582.986 521.1357,-575.2242 484.6124,-516.332 474.7334,-499.2608 461.1357,-431.3098 451.6759,-384.0366 443.4733,-362.1603 472.1357,-323.3954 481.3801,-310.8927 489.9592,-315.0655 502.1357,-305.3954 510.8541,-298.4717 519.5666,-290.2555 527.4335,-282.2206"/>
<polygon fill="#555555" stroke="#555555" points="530.0176,-284.5826 534.3964,-274.9349 524.957,-279.7462 530.0176,-284.5826"/>
<text text-anchor="middle" x="491.1396" y="-454.4983" font-family="Roboto Mono" font-size="10.00" fill="#555555">accesses</text>
</g>
<!-- internet&#45;&gt;cloudfront -->
<g id="edge32" class="edge">
<title>internet&#45;&gt;cloudfront</title>
<path fill="none" stroke="#555555" d="M543.1864,-596.0368C523.6394,-565.6113 501.851,-518.9906 519.1279,-480.4983 530.0385,-456.1897 552.2555,-436.1981 572.0061,-422.1627"/>
<polygon fill="#555555" stroke="#555555" points="573.9922,-425.0447 580.2795,-416.517 570.0466,-419.2626 573.9922,-425.0447"/>
<text text-anchor="middle" x="542.1396" y="-510.8612" font-family="Roboto Mono" font-size="10.00" fill="#555555">accesses</text>
</g>
<!-- route53 -->
<g id="node22" class="node">
<title>route53</title>
<ellipse fill="#f3bb44" stroke="#f3bb44" cx="635.1357" cy="-512.267" rx="58.6785" ry="18.928"/>
<text text-anchor="middle" x="635.1357" y="-510.2989" font-family="Roboto Mono" font-size="14.00" fill="#000000">Route 53</text>
</g>
<!-- internet&#45;&gt;route53 -->
<g id="edge35" class="edge">
<title>internet&#45;&gt;route53</title>
<path fill="none" stroke="#555555" d="M577.652,-593.4706C581.4985,-583.0114 586.351,-571.7398 592.1279,-562.0357 597.1041,-553.6767 603.5308,-545.3699 609.8917,-538.0061"/>
<polygon fill="#555555" stroke="#555555" points="612.6194,-540.2069 616.6963,-530.4279 607.4109,-535.5302 612.6194,-540.2069"/>
<text text-anchor="middle" x="615.1396" y="-567.2242" font-family="Roboto Mono" font-size="10.00" fill="#555555">triggers</text>
</g>
<!-- route53&#45;&gt;ec2 -->
<g id="edge40" class="edge">
<title>route53&#45;&gt;ec2</title>
<path fill="none" stroke="#555555" d="M637.4871,-531.2105C643.3868,-579.1699 659.0633,-709.3121 669.1357,-818.0954 674.3816,-874.7523 678.9286,-941.1093 681.3271,-978.2084"/>
<polygon fill="#555555" stroke="#555555" points="677.8415,-978.5461 681.9732,-988.302 684.8272,-978.0988 677.8415,-978.5461"/>
<text text-anchor="middle" x="694.1425" y="-779.9769" font-family="Roboto Mono" font-size="10.00" fill="#555555">refers to</text>
</g>
<!-- route53&#45;&gt;elb -->
<g id="edge41" class="edge">
<title>route53&#45;&gt;elb</title>
<path fill="none" stroke="#555555" d="M653.8344,-494.3524C662.7164,-485.291 673.1162,-473.8316 681.1357,-462.4983 708.6319,-423.6401 704.085,-406.9514 731.122,-367.7724 756.2606,-331.3444 791.0754,-293.7695 813.8447,-270.5292"/>
<polygon fill="#555555" stroke="#555555" points="816.5303,-272.791 821.0733,-263.2196 811.5531,-267.8689 816.5303,-272.791"/>
<text text-anchor="middle" x="757.1425" y="-398.1353" font-family="Roboto Mono" font-size="10.00" fill="#555555">refers to</text>
</g>
<!-- route53&#45;&gt;s3 -->
<g id="edge42" class="edge">
<title>route53&#45;&gt;s3</title>
<path fill="none" stroke="#555555" d="M603.0398,-496.4499C557.1206,-473.7474 477.9586,-434.3058 476.122,-431.3098 445.7748,-381.8055 489.3858,-319.1238 523.7244,-281.2327"/>
<polygon fill="#555555" stroke="#555555" points="526.6341,-283.2435 530.8812,-273.5372 521.5082,-278.4764 526.6341,-283.2435"/>
<text text-anchor="middle" x="502.1425" y="-398.1353" font-family="Roboto Mono" font-size="10.00" fill="#555555">refers to</text>
</g>
<!-- route53&#45;&gt;cloudfront -->
<g id="edge39" class="edge">
<title>route53&#45;&gt;cloudfront</title>
<path fill="none" stroke="#555555" d="M630.9513,-493.3992C627.0214,-475.6794 621.0847,-448.9107 616.5558,-428.4894"/>
<polygon fill="#555555" stroke="#555555" points="619.916,-427.4754 614.3338,-418.4704 613.082,-428.9911 619.916,-427.4754"/>
<text text-anchor="middle" x="650.1425" y="-454.4983" font-family="Roboto Mono" font-size="10.00" fill="#555555">refers to</text>
</g>
</g>
</svg>
