<?xml version="1.0" encoding="UTF-8" standalone="no"?>
<!DOCTYPE svg PUBLIC "-//W3C//DTD SVG 1.1//EN"
 "http://www.w3.org/Graphics/SVG/1.1/DTD/svg11.dtd">
<!-- Generated by graphviz version 2.40.1 (20161225.0304)
 -->
<!-- Title: %3 Pages: 1 -->
<svg width="1563pt" height="1359pt"
 viewBox="0.00 0.00 1563.01 1359.33" xmlns="http://www.w3.org/2000/svg" xmlns:xlink="http://www.w3.org/1999/xlink">
<g id="graph0" class="graph" transform="scale(1 1) rotate(0) translate(4 1355.3317)">
<title>%3</title>
<polygon fill="#ffffff" stroke="transparent" points="-4,4 -4,-1355.3317 1559.0078,-1355.3317 1559.0078,4 -4,4"/>
<!-- api_gateway -->
<g id="node1" class="node">
<title>api_gateway</title>
<ellipse fill="#f3bb44" stroke="#f3bb44" cx="492" cy="-1332.6189" rx="76.8224" ry="18.928"/>
<text text-anchor="middle" x="492" y="-1330.6508" font-family="Roboto Mono" font-size="14.00" fill="#000000">API Gateway</text>
</g>
<!-- ec2 -->
<g id="node2" class="node">
<title>ec2</title>
<ellipse fill="#f3bb44" stroke="#f3bb44" cx="555" cy="-1219.6279" rx="29.272" ry="18.928"/>
<text text-anchor="middle" x="555" y="-1217.6598" font-family="Roboto Mono" font-size="14.00" fill="#000000">EC2</text>
</g>
<!-- api_gateway&#45;&gt;ec2 -->
<g id="edge1" class="edge">
<title>api_gateway&#45;&gt;ec2</title>
<path fill="none" stroke="#555555" d="M502.4032,-1313.9607C512.647,-1295.5884 528.3997,-1267.3357 539.9967,-1246.5364"/>
<polygon fill="#555555" stroke="#555555" points="543.1849,-1248.0054 544.9979,-1237.5668 537.0711,-1244.5964 543.1849,-1248.0054"/>
<text text-anchor="middle" x="574.0068" y="-1287.9061" font-family="Roboto Mono" font-size="10.00" fill="#555555">triggers</text>
<text text-anchor="middle" x="574.0068" y="-1274.7176" font-family="Roboto Mono" font-size="10.00" fill="#555555">(via internal</text>
<text text-anchor="middle" x="574.0068" y="-1261.5292" font-family="Roboto Mono" font-size="10.00" fill="#555555">HTTP endpoint)</text>
</g>
<!-- elb -->
<g id="node3" class="node">
<title>elb</title>
<ellipse fill="#f3bb44" stroke="#f3bb44" cx="965" cy="-512.267" rx="29.272" ry="18.928"/>
<text text-anchor="middle" x="965" y="-510.2989" font-family="Roboto Mono" font-size="14.00" fill="#000000">ELB</text>
</g>
<!-- api_gateway&#45;&gt;elb -->
<g id="edge2" class="edge">
<title>api_gateway&#45;&gt;elb</title>
<path fill="none" stroke="#555555" d="M568.0783,-1329.8033C768.0213,-1321.3959 1293,-1292.393 1293,-1219.6279 1293,-1219.6279 1293,-1219.6279 1293,-781.1583 1293,-631.7084 1086.8272,-550.216 1001.4006,-522.8645"/>
<polygon fill="#555555" stroke="#555555" points="1002.4307,-519.5195 991.8416,-519.8694 1000.3377,-526.1993 1002.4307,-519.5195"/>
<text text-anchor="middle" x="1317.0039" y="-924.0238" font-family="Roboto Mono" font-size="10.00" fill="#555555">triggers</text>
</g>
<!-- lambda -->
<g id="node4" class="node">
<title>lambda</title>
<ellipse fill="#f3bb44" stroke="#f3bb44" cx="253" cy="-383.1348" rx="46.9154" ry="18.928"/>
<text text-anchor="middle" x="253" y="-381.1668" font-family="Roboto Mono" font-size="14.00" fill="#000000">Lambda</text>
</g>
<!-- api_gateway&#45;&gt;lambda -->
<g id="edge3" class="edge">
<title>api_gateway&#45;&gt;lambda</title>
<path fill="none" stroke="#555555" d="M424.4147,-1323.5807C327.3428,-1308.676 160,-1274.9576 160,-1219.6279 160,-1219.6279 160,-1219.6279 160,-840.7067 160,-706.4413 186.9063,-674.8851 217,-544.0357 227.6062,-497.9192 239.5263,-444.2674 246.6406,-412.0425"/>
<polygon fill="#555555" stroke="#555555" points="250.1246,-412.4965 248.8603,-401.9774 243.2888,-410.989 250.1246,-412.4965"/>
<text text-anchor="middle" x="184.0039" y="-839.3009" font-family="Roboto Mono" font-size="10.00" fill="#555555">triggers</text>
</g>
<!-- region -->
<g id="node5" class="node">
<title>region</title>
<ellipse fill="#f3bb44" stroke="#f3bb44" cx="315" cy="-18.7128" rx="46.9154" ry="18.928"/>
<text text-anchor="middle" x="315" y="-16.7447" font-family="Roboto Mono" font-size="14.00" fill="#000000">Region</text>
</g>
<!-- api_gateway&#45;&gt;region -->
<g id="edge4" class="edge">
<title>api_gateway&#45;&gt;region</title>
<path fill="none" stroke="#555555" d="M415.6648,-1330.7607C277.4712,-1325.3085 0,-1303.8721 0,-1219.6279 0,-1219.6279 0,-1219.6279 0,-105.3268 0,-52.3527 167.7212,-30.5705 258.3945,-22.6653"/>
<polygon fill="#555555" stroke="#555555" points="258.8498,-26.1395 268.5207,-21.8122 258.2621,-19.1642 258.8498,-26.1395"/>
<text text-anchor="middle" x="30.0049" y="-693.1385" font-family="Roboto Mono" font-size="10.00" fill="#555555">belongs to</text>
</g>
<!-- s3 -->
<g id="node6" class="node">
<title>s3</title>
<ellipse fill="#f3bb44" stroke="#f3bb44" cx="469" cy="-512.267" rx="46.9154" ry="31.5391"/>
<text text-anchor="middle" x="469" y="-519.5309" font-family="Roboto Mono" font-size="14.00" fill="#000000">S3</text>
<text text-anchor="middle" x="469" y="-501.067" font-family="Roboto Mono" font-size="14.00" fill="#000000">Bucket</text>
</g>
<!-- api_gateway&#45;&gt;s3 -->
<g id="edge5" class="edge">
<title>api_gateway&#45;&gt;s3</title>
<path fill="none" stroke="#555555" d="M434.7265,-1320.1609C384.6916,-1305.5098 320,-1275.7209 320,-1219.6279 320,-1219.6279 320,-1219.6279 320,-993.911 320,-856.1955 317.3715,-815.6217 369,-687.9501 389.2302,-637.923 421.2338,-584.6133 443.5701,-550.0114"/>
<polygon fill="#555555" stroke="#555555" points="446.7851,-551.4884 449.3112,-541.1991 440.9199,-547.6673 446.7851,-551.4884"/>
<text text-anchor="middle" x="344.0039" y="-924.0238" font-family="Roboto Mono" font-size="10.00" fill="#555555">accesses</text>
</g>
<!-- service -->
<g id="node7" class="node">
<title>service</title>
<ellipse fill="#f3bb44" stroke="#f3bb44" cx="1299" cy="-231.1086" rx="124.3729" ry="57.7614"/>
<text text-anchor="middle" x="1299" y="-256.8364" font-family="Roboto Mono" font-size="14.00" fill="#000000">&quot;Service&quot;</text>
<text text-anchor="middle" x="1299" y="-238.3725" font-family="Roboto Mono" font-size="14.00" fill="#000000">(not linking to</text>
<text text-anchor="middle" x="1299" y="-219.9086" font-family="Roboto Mono" font-size="14.00" fill="#000000">the actual services</text>
<text text-anchor="middle" x="1299" y="-201.4448" font-family="Roboto Mono" font-size="14.00" fill="#000000">for clarity sake)</text>
</g>
<!-- api_gateway&#45;&gt;service -->
<g id="edge6" class="edge">
<title>api_gateway&#45;&gt;service</title>
<path fill="none" stroke="#555555" d="M567.8963,-1329.8507C716.0136,-1324.2051 1038.739,-1310.6439 1149,-1295.9061 1310.2486,-1274.3532 1507,-1382.3106 1507,-1219.6279 1507,-1219.6279 1507,-1219.6279 1507,-383.1348 1507,-328.8161 1460.1923,-291.8214 1410.9863,-267.938"/>
<polygon fill="#555555" stroke="#555555" points="1412.322,-264.6988 1401.7813,-263.6298 1409.3547,-271.0388 1412.322,-264.6988"/>
<text text-anchor="middle" x="1531.0039" y="-779.7526" font-family="Roboto Mono" font-size="10.00" fill="#555555">accesses</text>
</g>
<!-- ec2&#45;&gt;ec2 -->
<g id="edge14" class="edge">
<title>ec2&#45;&gt;ec2</title>
<path fill="none" stroke="#555555" d="M581.651,-1227.4337C592.7377,-1227.972 602.1357,-1225.3701 602.1357,-1219.6279 602.1357,-1215.7699 597.8933,-1213.3294 591.7467,-1212.3065"/>
<polygon fill="#555555" stroke="#555555" points="591.8073,-1208.8055 581.651,-1211.8221 591.4718,-1215.7974 591.8073,-1208.8055"/>
<text text-anchor="middle" x="641.142" y="-1224.8164" font-family="Roboto Mono" font-size="10.00" fill="#555555">triggers (via</text>
<text text-anchor="middle" x="641.142" y="-1211.6279" font-family="Roboto Mono" font-size="10.00" fill="#555555">internal IP)</text>
</g>
<!-- ec2&#45;&gt;lambda -->
<g id="edge16" class="edge">
<title>ec2&#45;&gt;lambda</title>
<path fill="none" stroke="#555555" d="M525.9553,-1217.4126C488.4767,-1213.7741 421.8173,-1204.63 369,-1182.9151 322.1525,-1163.6546 274,-1170.6102 274,-1119.958 274,-1119.958 274,-1119.958 274,-512.267 274,-477.332 266.4195,-437.762 260.3674,-411.7373"/>
<polygon fill="#555555" stroke="#555555" points="263.7186,-410.7034 257.9767,-401.7994 256.9127,-412.3407 263.7186,-410.7034"/>
<text text-anchor="middle" x="298.0039" y="-779.7526" font-family="Roboto Mono" font-size="10.00" fill="#555555">triggers</text>
</g>
<!-- ec2&#45;&gt;service -->
<g id="edge17" class="edge">
<title>ec2&#45;&gt;service</title>
<path fill="none" stroke="#555555" d="M584.3438,-1218.3612C712.6542,-1212.4408 1218,-1184.9951 1218,-1119.958 1218,-1119.958 1218,-1119.958 1218,-925.4295 1218,-842.0603 1217,-821.2206 1217,-737.8513 1217,-737.8513 1217,-737.8513 1217,-383.1348 1217,-351.3429 1231.0629,-319.8103 1247.5411,-293.7745"/>
<polygon fill="#555555" stroke="#555555" points="1250.6339,-295.4414 1253.2051,-285.1633 1244.7856,-291.5946 1250.6339,-295.4414"/>
<text text-anchor="middle" x="1241.0039" y="-736.4455" font-family="Roboto Mono" font-size="10.00" fill="#555555">accesses</text>
</g>
<!-- ec2_security_group -->
<g id="node11" class="node">
<title>ec2_security_group</title>
<ellipse fill="#f3bb44" stroke="#f3bb44" cx="852" cy="-1119.958" rx="94.466" ry="31.5391"/>
<text text-anchor="middle" x="852" y="-1127.2218" font-family="Roboto Mono" font-size="14.00" fill="#000000">EC2</text>
<text text-anchor="middle" x="852" y="-1108.758" font-family="Roboto Mono" font-size="14.00" fill="#000000">Security Group</text>
</g>
<!-- ec2&#45;&gt;ec2_security_group -->
<g id="edge15" class="edge">
<title>ec2&#45;&gt;ec2_security_group</title>
<path fill="none" stroke="#555555" d="M581.5924,-1211.7105C602.9218,-1205.0127 633.4157,-1194.6493 659,-1182.9151 669.7097,-1178.0031 671.1574,-1174.3447 681.9971,-1169.7267 708.329,-1158.5084 737.9845,-1148.869 765.0665,-1141.1432"/>
<polygon fill="#555555" stroke="#555555" points="766.2315,-1144.4517 774.9168,-1138.384 764.3433,-1137.7111 766.2315,-1144.4517"/>
<text text-anchor="middle" x="690.0015" y="-1174.9151" font-family="Roboto Mono" font-size="10.00" fill="#555555">has</text>
</g>
<!-- sns -->
<g id="node12" class="node">
<title>sns</title>
<ellipse fill="#f3bb44" stroke="#f3bb44" cx="331" cy="-231.1086" rx="29.272" ry="18.928"/>
<text text-anchor="middle" x="331" y="-229.1406" font-family="Roboto Mono" font-size="14.00" fill="#000000">SNS</text>
</g>
<!-- ec2&#45;&gt;sns -->
<g id="edge18" class="edge">
<title>ec2&#45;&gt;sns</title>
<path fill="none" stroke="#555555" d="M526.2111,-1216.1848C477.2469,-1208.5497 383,-1185.359 383,-1119.958 383,-1119.958 383,-1119.958 383,-512.267 383,-420.9015 397.3759,-394.76 372,-306.9892 366.8827,-289.2894 357.2126,-271.074 348.5486,-256.9279"/>
<polygon fill="#555555" stroke="#555555" points="351.368,-254.8384 343.0583,-248.2658 345.4556,-258.5859 351.368,-254.8384"/>
<text text-anchor="middle" x="407.0039" y="-736.4455" font-family="Roboto Mono" font-size="10.00" fill="#555555">accesses</text>
</g>
<!-- sqs -->
<g id="node13" class="node">
<title>sqs</title>
<ellipse fill="#f3bb44" stroke="#f3bb44" cx="251" cy="-105.3268" rx="29.272" ry="18.928"/>
<text text-anchor="middle" x="251" y="-103.3587" font-family="Roboto Mono" font-size="14.00" fill="#000000">SQS</text>
</g>
<!-- ec2&#45;&gt;sqs -->
<g id="edge19" class="edge">
<title>ec2&#45;&gt;sqs</title>
<path fill="none" stroke="#555555" d="M525.6284,-1218.6897C480.3697,-1216.4405 391.4398,-1208.8068 321,-1182.9151 276.8748,-1166.696 236,-1166.9696 236,-1119.958 236,-1119.958 236,-1119.958 236,-925.4295 236,-817.2865 232.9622,-783.8599 183,-687.9501 143.7241,-612.5542 86.9129,-623.6117 57,-544.0357 47.0637,-517.6027 52.2856,-508.3408 57,-480.4983 58.6622,-470.6814 168.3741,-149.4715 175,-142.0396 185.4583,-130.3091 200.4928,-121.9638 214.4337,-116.2262"/>
<polygon fill="#555555" stroke="#555555" points="215.73,-119.4779 223.8406,-112.6611 213.2492,-112.9322 215.73,-119.4779"/>
<text text-anchor="middle" x="213.0039" y="-693.1385" font-family="Roboto Mono" font-size="10.00" fill="#555555">accesses</text>
</g>
<!-- vpc_subnet -->
<g id="node14" class="node">
<title>vpc_subnet</title>
<ellipse fill="#f3bb44" stroke="#f3bb44" cx="1011" cy="-1119.958" rx="46.9154" ry="31.5391"/>
<text text-anchor="middle" x="1011" y="-1127.2218" font-family="Roboto Mono" font-size="14.00" fill="#000000">VPC</text>
<text text-anchor="middle" x="1011" y="-1108.758" font-family="Roboto Mono" font-size="14.00" fill="#000000">Subnet</text>
</g>
<!-- ec2&#45;&gt;vpc_subnet -->
<g id="edge20" class="edge">
<title>ec2&#45;&gt;vpc_subnet</title>
<path fill="none" stroke="#555555" d="M583.2435,-1214.846C613.0007,-1209.267 660.8815,-1198.7396 700,-1182.9151 710.9201,-1178.4977 711.7336,-1173.198 722.9902,-1169.7267 821.8229,-1139.2488 856.0945,-1181.9674 955,-1151.7267 959.3258,-1150.404 963.6834,-1148.7057 967.9545,-1146.7834"/>
<polygon fill="#555555" stroke="#555555" points="969.6913,-1149.8298 977.1211,-1142.2767 966.6028,-1143.5479 969.6913,-1149.8298"/>
<text text-anchor="middle" x="752.0049" y="-1174.9151" font-family="Roboto Mono" font-size="10.00" fill="#555555">belongs to</text>
</g>
<!-- elb&#45;&gt;ec2 -->
<g id="edge22" class="edge">
<title>elb&#45;&gt;ec2</title>
<path fill="none" stroke="#555555" d="M978.2202,-529.098C995.0586,-552.2719 1022,-595.9489 1022,-638.1813 1022,-840.7067 1022,-840.7067 1022,-840.7067 1022,-892.8533 1026.8698,-905.8572 1036,-957.1983 1046.4748,-1016.1004 1060.0643,-1028.7663 1067,-1088.1892 1070.2737,-1116.2377 1085.6091,-1130.4867 1067,-1151.7267 1035.8427,-1187.2888 708.4838,-1210.3433 594.147,-1217.3607"/>
<polygon fill="#555555" stroke="#555555" points="593.847,-1213.8723 584.0771,-1217.9709 594.2705,-1220.8595 593.847,-1213.8723"/>
<text text-anchor="middle" x="1061.0063" y="-845.8952" font-family="Roboto Mono" font-size="10.00" fill="#555555">triggers (via</text>
<text text-anchor="middle" x="1061.0063" y="-832.7067" font-family="Roboto Mono" font-size="10.00" fill="#555555">internal IP)</text>
</g>
<!-- elb&#45;&gt;ec2_security_group -->
<g id="edge23" class="edge">
<title>elb&#45;&gt;ec2_security_group</title>
<path fill="none" stroke="#555555" d="M966.1995,-531.027C971.3871,-617.4931 989.1472,-977.3261 932,-1070.1892 927.9011,-1076.8499 922.5427,-1082.7585 916.5383,-1087.9638"/>
<polygon fill="#555555" stroke="#555555" points="914.3273,-1085.2499 908.6333,-1094.1846 918.6563,-1090.7508 914.3273,-1085.2499"/>
<text text-anchor="middle" x="981.0015" y="-779.7526" font-family="Roboto Mono" font-size="10.00" fill="#555555">has</text>
</g>
<!-- vpc -->
<g id="node15" class="node">
<title>vpc</title>
<ellipse fill="#f3bb44" stroke="#f3bb44" cx="875" cy="-993.911" rx="29.272" ry="18.928"/>
<text text-anchor="middle" x="875" y="-991.943" font-family="Roboto Mono" font-size="14.00" fill="#000000">VPC</text>
</g>
<!-- elb&#45;&gt;vpc -->
<g id="edge24" class="edge">
<title>elb&#45;&gt;vpc</title>
<path fill="none" stroke="#555555" d="M949.3428,-528.2339C928.9849,-550.7579 896,-594.0602 896,-638.1813 896,-840.7067 896,-840.7067 896,-840.7067 896,-884.4144 887.5068,-934.4917 881.3229,-965.1599"/>
<polygon fill="#555555" stroke="#555555" points="877.8536,-964.6535 879.2497,-975.1559 884.7077,-966.0751 877.8536,-964.6535"/>
<text text-anchor="middle" x="926.0049" y="-736.4455" font-family="Roboto Mono" font-size="10.00" fill="#555555">belongs to</text>
</g>
<!-- lambda&#45;&gt;lambda -->
<g id="edge36" class="edge">
<title>lambda&#45;&gt;lambda</title>
<path fill="none" stroke="#555555" d="M290.0548,-394.674C305.1907,-395.3972 317.9577,-391.5509 317.9577,-383.1348 317.9577,-376.6913 310.4739,-372.9265 300.173,-371.8402"/>
<polygon fill="#555555" stroke="#555555" points="300.1365,-368.3384 290.0548,-371.5957 299.9673,-375.3364 300.1365,-368.3384"/>
<text text-anchor="middle" x="341.9616" y="-381.7291" font-family="Roboto Mono" font-size="10.00" fill="#555555">triggers</text>
</g>
<!-- lambda&#45;&gt;region -->
<g id="edge37" class="edge">
<title>lambda&#45;&gt;region</title>
<path fill="none" stroke="#555555" d="M240.5548,-364.7943C214.8671,-324.6437 160.1381,-225.8523 181.9902,-142.0396 189.1117,-114.7258 193.826,-107.3292 213,-86.614 231.1263,-67.0307 255.9784,-50.3362 276.6132,-38.4013"/>
<polygon fill="#555555" stroke="#555555" points="278.4634,-41.3764 285.4614,-33.4216 275.0302,-35.2761 278.4634,-41.3764"/>
<text text-anchor="middle" x="211.0049" y="-147.2281" font-family="Roboto Mono" font-size="10.00" fill="#555555">belongs to</text>
</g>
<!-- lambda&#45;&gt;service -->
<g id="edge38" class="edge">
<title>lambda&#45;&gt;service</title>
<path fill="none" stroke="#555555" d="M297.2772,-376.6996C446.5891,-354.9985 935.366,-283.9594 1170.4497,-249.7922"/>
<polygon fill="#555555" stroke="#555555" points="1171.0282,-253.245 1180.4208,-248.343 1170.0213,-246.3178 1171.0282,-253.245"/>
<text text-anchor="middle" x="800.0039" y="-318.7719" font-family="Roboto Mono" font-size="10.00" fill="#555555">accesses</text>
</g>
<!-- lambda&#45;&gt;sns -->
<g id="edge39" class="edge">
<title>lambda&#45;&gt;sns</title>
<path fill="none" stroke="#555555" d="M250.9495,-364.3455C250.0747,-348.1121 251.023,-324.5628 260.9922,-306.9892 267.5725,-295.3895 275.438,-298.2854 285,-288.9892 295.1666,-279.1051 305.1247,-266.9735 313.161,-256.3746"/>
<polygon fill="#555555" stroke="#555555" points="316.0208,-258.394 319.1613,-248.2753 310.3961,-254.227 316.0208,-258.394"/>
<text text-anchor="middle" x="284.0039" y="-318.7719" font-family="Roboto Mono" font-size="10.00" fill="#555555">accesses</text>
</g>
<!-- lambda&#45;&gt;sqs -->
<g id="edge40" class="edge">
<title>lambda&#45;&gt;sqs</title>
<path fill="none" stroke="#555555" d="M250.9562,-364.2418C249.9881,-354.9488 248.8587,-343.5771 248,-333.3661 242.0344,-262.4315 241.8522,-244.3438 244.9922,-173.2281 245.5615,-160.3346 246.736,-146.1041 247.8968,-134.0155"/>
<polygon fill="#555555" stroke="#555555" points="251.3827,-134.3302 248.8977,-124.031 244.4176,-133.6319 251.3827,-134.3302"/>
<text text-anchor="middle" x="268.0039" y="-229.7029" font-family="Roboto Mono" font-size="10.00" fill="#555555">accesses</text>
</g>
<!-- s3&#45;&gt;lambda -->
<g id="edge45" class="edge">
<title>s3&#45;&gt;lambda</title>
<path fill="none" stroke="#555555" d="M433.332,-490.9434C393.0055,-466.8349 327.7781,-427.8398 287.8093,-403.945"/>
<polygon fill="#555555" stroke="#555555" points="289.5749,-400.9228 279.1958,-398.7956 285.983,-406.931 289.5749,-400.9228"/>
<text text-anchor="middle" x="404.0039" y="-446.2952" font-family="Roboto Mono" font-size="10.00" fill="#555555">triggers</text>
</g>
<!-- s3&#45;&gt;region -->
<g id="edge46" class="edge">
<title>s3&#45;&gt;region</title>
<path fill="none" stroke="#555555" d="M472.8377,-480.4793C475.6577,-454.3738 479,-416.414 479,-383.1348 479,-383.1348 479,-383.1348 479,-105.3268 479,-55.1251 418.1707,-33.9455 370.6051,-25.0579"/>
<polygon fill="#555555" stroke="#555555" points="371.1333,-21.5974 360.6831,-23.342 369.9404,-28.495 371.1333,-21.5974"/>
<text text-anchor="middle" x="509.0049" y="-229.7029" font-family="Roboto Mono" font-size="10.00" fill="#555555">belongs to</text>
</g>
<!-- availability_zone -->
<g id="node8" class="node">
<title>availability_zone</title>
<ellipse fill="#f3bb44" stroke="#f3bb44" cx="1120" cy="-925.4295" rx="82.7035" ry="31.5391"/>
<text text-anchor="middle" x="1120" y="-932.6934" font-family="Roboto Mono" font-size="14.00" fill="#000000">Availability</text>
<text text-anchor="middle" x="1120" y="-914.2295" font-family="Roboto Mono" font-size="14.00" fill="#000000">Zone</text>
</g>
<!-- availability_zone&#45;&gt;region -->
<g id="edge7" class="edge">
<title>availability_zone&#45;&gt;region</title>
<path fill="none" stroke="#555555" d="M1122.7756,-893.6532C1125.0862,-864.4396 1128,-819.9155 1128,-781.1583 1128,-781.1583 1128,-781.1583 1128,-105.3268 1128,10.5924 986.9536,-70.3566 872,-55.4256 690.3551,-31.8321 473.3065,-23.065 372.1489,-20.0922"/>
<polygon fill="#555555" stroke="#555555" points="372.2387,-16.5934 362.1427,-19.806 372.0386,-23.5906 372.2387,-16.5934"/>
<text text-anchor="middle" x="1158.0049" y="-510.8612" font-family="Roboto Mono" font-size="10.00" fill="#555555">belongs to</text>
</g>
<!-- cloudfront -->
<g id="node9" class="node">
<title>cloudfront</title>
<ellipse fill="#f3bb44" stroke="#f3bb44" cx="541" cy="-638.1813" rx="70.9414" ry="18.928"/>
<text text-anchor="middle" x="541" y="-636.2133" font-family="Roboto Mono" font-size="14.00" fill="#000000">CloudFront</text>
</g>
<!-- cloudfront&#45;&gt;api_gateway -->
<g id="edge8" class="edge">
<title>cloudfront&#45;&gt;api_gateway</title>
<path fill="none" stroke="#555555" d="M580.332,-653.8899C636.6077,-676.4523 733.6396,-715.7153 736,-719.1385 790.5944,-798.3149 696.7755,-1070.9674 749,-1151.7267 758.9303,-1167.0827 776.3015,-1154.2232 786,-1169.7267 789.1086,-1174.696 788.7409,-1177.7339 786,-1182.9151 742.8332,-1264.5151 637.4906,-1302.7056 565.3695,-1319.8024"/>
<polygon fill="#555555" stroke="#555555" points="564.3912,-1316.4357 555.4233,-1322.0772 565.9519,-1323.2595 564.3912,-1316.4357"/>
<text text-anchor="middle" x="783.0098" y="-999.0995" font-family="Roboto Mono" font-size="10.00" fill="#555555">accesses (if</text>
<text text-anchor="middle" x="783.0098" y="-985.911" font-family="Roboto Mono" font-size="10.00" fill="#555555">edge&#45;optimized)</text>
</g>
<!-- cloudfront&#45;&gt;ec2 -->
<g id="edge9" class="edge">
<title>cloudfront&#45;&gt;ec2</title>
<path fill="none" stroke="#555555" d="M532.0546,-657.0959C509.8866,-706.2418 455.43,-842.1566 472.9873,-957.1983 486.4394,-1045.3413 523.9248,-1144.5748 543.209,-1191.7859"/>
<polygon fill="#555555" stroke="#555555" points="540.0913,-1193.4061 547.1433,-1201.3131 546.5614,-1190.7343 540.0913,-1193.4061"/>
<text text-anchor="middle" x="511.0063" y="-930.618" font-family="Roboto Mono" font-size="10.00" fill="#555555">accesses (via</text>
<text text-anchor="middle" x="511.0063" y="-917.4295" font-family="Roboto Mono" font-size="10.00" fill="#555555">public IP)</text>
</g>
<!-- cloudfront&#45;&gt;elb -->
<g id="edge10" class="edge">
<title>cloudfront&#45;&gt;elb</title>
<path fill="none" stroke="#555555" d="M563.2788,-620.3239C587.4707,-602.061 628.0258,-574.6361 667.9873,-562.0357 775.9262,-528.001 815.8214,-583.2182 922,-544.0357 928.2859,-541.716 934.4459,-538.1785 940.0511,-534.2944"/>
<polygon fill="#555555" stroke="#555555" points="942.4724,-536.8517 948.3411,-528.0308 938.2525,-531.2667 942.4724,-536.8517"/>
<text text-anchor="middle" x="706.0063" y="-580.4126" font-family="Roboto Mono" font-size="10.00" fill="#555555">accesses (via</text>
<text text-anchor="middle" x="706.0063" y="-567.2242" font-family="Roboto Mono" font-size="10.00" fill="#555555">public IP)</text>
</g>
<!-- cloudfront&#45;&gt;s3 -->
<g id="edge11" class="edge">
<title>cloudfront&#45;&gt;s3</title>
<path fill="none" stroke="#555555" d="M530.3762,-619.6022C520.0853,-601.6054 504.1655,-573.7649 491.1184,-550.9479"/>
<polygon fill="#555555" stroke="#555555" points="494.0967,-549.1054 486.0944,-542.1618 488.02,-552.5802 494.0967,-549.1054"/>
<text text-anchor="middle" x="547.0059" y="-580.4126" font-family="Roboto Mono" font-size="10.00" fill="#555555">accesses</text>
<text text-anchor="middle" x="547.0059" y="-567.2242" font-family="Roboto Mono" font-size="10.00" fill="#555555">(internally)</text>
</g>
<!-- cloudwatch -->
<g id="node10" class="node">
<title>cloudwatch</title>
<ellipse fill="#f3bb44" stroke="#f3bb44" cx="137" cy="-512.267" rx="70.9414" ry="18.928"/>
<text text-anchor="middle" x="137" y="-510.2989" font-family="Roboto Mono" font-size="14.00" fill="#000000">CloudWatch</text>
</g>
<!-- cloudwatch&#45;&gt;lambda -->
<g id="edge12" class="edge">
<title>cloudwatch&#45;&gt;lambda</title>
<path fill="none" stroke="#555555" d="M131.8804,-493.5888C128.3128,-476.3529 126.073,-450.7962 137.9863,-432.9036 151.8605,-412.0658 176.4975,-399.9055 199.4196,-392.8319"/>
<polygon fill="#555555" stroke="#555555" points="200.4274,-396.1843 209.1019,-390.1013 198.5273,-389.4471 200.4274,-396.1843"/>
<text text-anchor="middle" x="180.0068" y="-454.4983" font-family="Roboto Mono" font-size="10.00" fill="#555555">triggers (when</text>
<text text-anchor="middle" x="180.0068" y="-441.3098" font-family="Roboto Mono" font-size="10.00" fill="#555555">scheduled ⏰)</text>
</g>
<!-- cloudwatch&#45;&gt;region -->
<g id="edge13" class="edge">
<title>cloudwatch&#45;&gt;region</title>
<path fill="none" stroke="#555555" d="M129.344,-493.5199C107.1364,-435.9052 48.6632,-258.3072 120,-142.0396 153.8339,-86.8957 222.5939,-52.2438 268.7426,-34.1764"/>
<polygon fill="#555555" stroke="#555555" points="270.1225,-37.3962 278.2263,-30.5713 267.6352,-30.853 270.1225,-37.3962"/>
<text text-anchor="middle" x="134.0049" y="-229.7029" font-family="Roboto Mono" font-size="10.00" fill="#555555">belongs to</text>
</g>
<!-- ec2_security_group&#45;&gt;vpc -->
<g id="edge21" class="edge">
<title>ec2_security_group&#45;&gt;vpc</title>
<path fill="none" stroke="#555555" d="M857.8039,-1088.151C861.4813,-1067.9977 866.1983,-1042.1469 869.7616,-1022.6192"/>
<polygon fill="#555555" stroke="#555555" points="873.2062,-1023.2389 871.5582,-1012.773 866.3199,-1021.9823 873.2062,-1023.2389"/>
<text text-anchor="middle" x="898.0049" y="-1049.0008" font-family="Roboto Mono" font-size="10.00" fill="#555555">belongs to</text>
</g>
<!-- sns&#45;&gt;lambda -->
<g id="edge47" class="edge">
<title>sns&#45;&gt;lambda</title>
<path fill="none" stroke="#555555" d="M330.4124,-250.0949C328.9869,-271.6366 324.2805,-307.1713 309,-333.3661 303.0186,-343.6198 294.1846,-352.888 285.2922,-360.57"/>
<polygon fill="#555555" stroke="#555555" points="283.0707,-357.8653 277.5328,-366.8976 287.4946,-363.2902 283.0707,-357.8653"/>
<text text-anchor="middle" x="344.0039" y="-318.7719" font-family="Roboto Mono" font-size="10.00" fill="#555555">triggers</text>
</g>
<!-- sns&#45;&gt;region -->
<g id="edge48" class="edge">
<title>sns&#45;&gt;region</title>
<path fill="none" stroke="#555555" d="M333.7854,-212.3603C338.0143,-179.9222 344.3362,-111.4248 332,-55.4256 331.3625,-52.5317 330.4735,-49.5947 329.4331,-46.7072"/>
<polygon fill="#555555" stroke="#555555" points="332.5496,-45.0879 325.4585,-37.216 326.0928,-47.7918 332.5496,-45.0879"/>
<text text-anchor="middle" x="369.0049" y="-103.9211" font-family="Roboto Mono" font-size="10.00" fill="#555555">belongs to</text>
</g>
<!-- sns&#45;&gt;sqs -->
<g id="edge49" class="edge">
<title>sns&#45;&gt;sqs</title>
<path fill="none" stroke="#555555" d="M318.2127,-214.0066C307.0996,-198.8693 290.8167,-176.0162 277.9912,-155.2281 273.432,-147.8384 268.8121,-139.6206 264.714,-132.0214"/>
<polygon fill="#555555" stroke="#555555" points="267.79,-130.3512 260.013,-123.156 261.6056,-133.6305 267.79,-130.3512"/>
<text text-anchor="middle" x="304.0044" y="-147.2281" font-family="Roboto Mono" font-size="10.00" fill="#555555">pushes to</text>
</g>
<!-- sqs&#45;&gt;region -->
<g id="edge50" class="edge">
<title>sqs&#45;&gt;region</title>
<path fill="none" stroke="#555555" d="M256.5015,-86.7115C259.9733,-76.8362 265.1129,-64.8344 271.9902,-55.4256 275.4789,-50.6528 279.7061,-46.0939 284.1315,-41.9125"/>
<polygon fill="#555555" stroke="#555555" points="286.4876,-44.5013 291.6705,-35.2607 281.8564,-39.2523 286.4876,-44.5013"/>
<text text-anchor="middle" x="301.0049" y="-60.614" font-family="Roboto Mono" font-size="10.00" fill="#555555">belongs to</text>
</g>
<!-- vpc_subnet&#45;&gt;availability_zone -->
<g id="edge53" class="edge">
<title>vpc_subnet&#45;&gt;availability_zone</title>
<path fill="none" stroke="#555555" d="M1027.7924,-1089.9892C1046.455,-1056.6826 1076.6884,-1002.7261 1097.4144,-965.7373"/>
<polygon fill="#555555" stroke="#555555" points="1100.6311,-967.1566 1102.466,-956.7219 1094.5244,-963.7348 1100.6311,-967.1566"/>
<text text-anchor="middle" x="1090.0049" y="-1049.0008" font-family="Roboto Mono" font-size="10.00" fill="#555555">belongs to</text>
</g>
<!-- vpc_subnet&#45;&gt;vpc -->
<g id="edge54" class="edge">
<title>vpc_subnet&#45;&gt;vpc</title>
<path fill="none" stroke="#555555" d="M989.2806,-1091.5638C974.324,-1073.0322 953.3633,-1048.9661 932,-1030.6238 923.9624,-1023.7228 914.5312,-1017.1365 905.6798,-1011.4966"/>
<polygon fill="#555555" stroke="#555555" points="907.4422,-1008.4714 897.0947,-1006.1955 903.7645,-1014.4274 907.4422,-1008.4714"/>
<text text-anchor="middle" x="1001.0049" y="-1049.0008" font-family="Roboto Mono" font-size="10.00" fill="#555555">belongs to</text>
</g>
<!-- vpc&#45;&gt;region -->
<g id="edge52" class="edge">
<title>vpc&#45;&gt;region</title>
<path fill="none" stroke="#555555" d="M873.4614,-975.0296C869.2767,-921.988 858,-767.095 858,-638.1813 858,-638.1813 858,-638.1813 858,-105.3268 858,-56.4907 511.0596,-30.3867 371.8203,-21.8767"/>
<polygon fill="#555555" stroke="#555555" points="371.9583,-18.3788 361.7658,-21.2708 371.5372,-25.3661 371.9583,-18.3788"/>
<text text-anchor="middle" x="888.0049" y="-510.8612" font-family="Roboto Mono" font-size="10.00" fill="#555555">belongs to</text>
</g>
<!-- internet -->
<g id="node20" class="node">
<title>internet</title>
<ellipse fill="#aaddff" stroke="#aaddff" cx="555" cy="-840.7067" rx="58.6785" ry="34.9083"/>
<text text-anchor="middle" x="555" y="-850.223" font-family="Roboto Mono" font-size="14.00" fill="#000000">️️Internet</text>
<text text-anchor="middle" x="555" y="-831.7591" font-family="Roboto Mono" font-size="14.00" fill="#000000">☁️</text>
</g>
<!-- vpc&#45;&gt;internet -->
<g id="edge51" class="edge">
<title>vpc&#45;&gt;internet</title>
<path fill="none" stroke="#555555" d="M851.0662,-982.9936C844.9031,-980.3212 838.2464,-977.5545 832,-975.1983 807.5355,-965.97 800.0933,-967.333 775.9902,-957.1983 715.5842,-931.7989 649.5028,-895.8029 605.4867,-870.5659"/>
<polygon fill="#555555" stroke="#555555" points="607.1246,-867.4703 596.7127,-865.5101 603.6297,-873.5354 607.1246,-867.4703"/>
<text text-anchor="middle" x="805.0049" y="-930.618" font-family="Roboto Mono" font-size="10.00" fill="#555555">exposed to</text>
<text text-anchor="middle" x="805.0049" y="-917.4295" font-family="Roboto Mono" font-size="10.00" fill="#555555">(optional)</text>
</g>
<!-- iam_group -->
<g id="node16" class="node">
<title>iam_group</title>
<ellipse fill="#f3bb44" stroke="#f3bb44" cx="1438" cy="-512.267" rx="41.0341" ry="31.5391"/>
<text text-anchor="middle" x="1438" y="-519.5309" font-family="Roboto Mono" font-size="14.00" fill="#000000">IAM</text>
<text text-anchor="middle" x="1438" y="-501.067" font-family="Roboto Mono" font-size="14.00" fill="#000000">Group</text>
</g>
<!-- iam_policy -->
<g id="node17" class="node">
<title>iam_policy</title>
<ellipse fill="#f3bb44" stroke="#f3bb44" cx="1318" cy="-383.1348" rx="46.9154" ry="31.5391"/>
<text text-anchor="middle" x="1318" y="-390.3987" font-family="Roboto Mono" font-size="14.00" fill="#000000">IAM</text>
<text text-anchor="middle" x="1318" y="-371.9348" font-family="Roboto Mono" font-size="14.00" fill="#000000">Policy</text>
</g>
<!-- iam_group&#45;&gt;iam_policy -->
<g id="edge25" class="edge">
<title>iam_group&#45;&gt;iam_policy</title>
<path fill="none" stroke="#555555" d="M1414.0046,-486.4455C1395.6498,-466.6938 1370.1613,-439.2657 1350.0598,-417.6344"/>
<polygon fill="#555555" stroke="#555555" points="1352.566,-415.1898 1343.1948,-410.247 1347.4382,-419.9549 1352.566,-415.1898"/>
<text text-anchor="middle" x="1397.0015" y="-446.2952" font-family="Roboto Mono" font-size="10.00" fill="#555555">has</text>
</g>
<!-- iam_policy&#45;&gt;service -->
<g id="edge26" class="edge">
<title>iam_policy&#45;&gt;service</title>
<path fill="none" stroke="#555555" d="M1314.017,-351.2652C1312.1164,-336.0581 1309.7651,-317.2439 1307.4916,-299.0531"/>
<polygon fill="#555555" stroke="#555555" points="1310.9531,-298.5268 1306.2399,-289.0381 1304.0072,-299.395 1310.9531,-298.5268"/>
<text text-anchor="middle" x="1338.0044" y="-325.3661" font-family="Roboto Mono" font-size="10.00" fill="#555555">defines</text>
<text text-anchor="middle" x="1338.0044" y="-312.1777" font-family="Roboto Mono" font-size="10.00" fill="#555555">access to</text>
</g>
<!-- iam_role -->
<g id="node18" class="node">
<title>iam_role</title>
<ellipse fill="#f3bb44" stroke="#f3bb44" cx="1344" cy="-512.267" rx="35.1529" ry="31.5391"/>
<text text-anchor="middle" x="1344" y="-519.5309" font-family="Roboto Mono" font-size="14.00" fill="#000000">IAM</text>
<text text-anchor="middle" x="1344" y="-501.067" font-family="Roboto Mono" font-size="14.00" fill="#000000">Role</text>
</g>
<!-- iam_role&#45;&gt;iam_policy -->
<g id="edge27" class="edge">
<title>iam_role&#45;&gt;iam_policy</title>
<path fill="none" stroke="#555555" d="M1337.7061,-481.0077C1334.3077,-464.1291 1330.0674,-443.0688 1326.3916,-424.8128"/>
<polygon fill="#555555" stroke="#555555" points="1329.8216,-424.1158 1324.4165,-415.0034 1322.9593,-425.4975 1329.8216,-424.1158"/>
<text text-anchor="middle" x="1342.0015" y="-446.2952" font-family="Roboto Mono" font-size="10.00" fill="#555555">has</text>
</g>
<!-- iam_user -->
<g id="node19" class="node">
<title>iam_user</title>
<ellipse fill="#f3bb44" stroke="#f3bb44" cx="1361" cy="-638.1813" rx="35.1529" ry="31.5391"/>
<text text-anchor="middle" x="1361" y="-645.4452" font-family="Roboto Mono" font-size="14.00" fill="#000000">IAM</text>
<text text-anchor="middle" x="1361" y="-626.9813" font-family="Roboto Mono" font-size="14.00" fill="#000000">User</text>
</g>
<!-- iam_user&#45;&gt;iam_group -->
<g id="edge28" class="edge">
<title>iam_user&#45;&gt;iam_group</title>
<path fill="none" stroke="#555555" d="M1378.0888,-610.2369C1389.0006,-592.3933 1403.277,-569.0478 1415.1564,-549.622"/>
<polygon fill="#555555" stroke="#555555" points="1418.1939,-551.3636 1420.4251,-541.0063 1412.2221,-547.7116 1418.1939,-551.3636"/>
<text text-anchor="middle" x="1436.0049" y="-573.8184" font-family="Roboto Mono" font-size="10.00" fill="#555555">belongs to</text>
</g>
<!-- iam_user&#45;&gt;iam_policy -->
<g id="edge29" class="edge">
<title>iam_user&#45;&gt;iam_policy</title>
<path fill="none" stroke="#555555" d="M1334.9011,-616.4677C1316.1896,-599.0872 1292.5063,-572.908 1281.9971,-544.0357 1267.3383,-503.7631 1282.1404,-455.5617 1296.9572,-422.4808"/>
<polygon fill="#555555" stroke="#555555" points="1300.2554,-423.69 1301.3171,-413.1485 1293.9133,-420.727 1300.2554,-423.69"/>
<text text-anchor="middle" x="1290.0015" y="-510.8612" font-family="Roboto Mono" font-size="10.00" fill="#555555">has</text>
</g>
<!-- internet&#45;&gt;api_gateway -->
<g id="edge30" class="edge">
<title>internet&#45;&gt;api_gateway</title>
<path fill="none" stroke="#555555" d="M500.6496,-854.2413C479.4577,-862.2546 456.9503,-874.6855 443,-893.6608 416.3523,-929.9075 429,-948.923 429,-993.911 429,-1219.6279 429,-1219.6279 429,-1219.6279 429,-1252.6875 449.828,-1285.085 467.5327,-1306.6522"/>
<polygon fill="#555555" stroke="#555555" points="464.9617,-1309.0314 474.1152,-1314.3666 470.2867,-1304.4877 464.9617,-1309.0314"/>
<text text-anchor="middle" x="453.0039" y="-1118.5522" font-family="Roboto Mono" font-size="10.00" fill="#555555">triggers</text>
</g>
<!-- internet&#45;&gt;ec2 -->
<g id="edge32" class="edge">
<title>internet&#45;&gt;ec2</title>
<path fill="none" stroke="#555555" d="M555,-875.7033C555,-949.9916 555,-1122.244 555,-1190.762"/>
<polygon fill="#555555" stroke="#555555" points="551.5001,-1190.8371 555,-1200.8372 558.5001,-1190.8372 551.5001,-1190.8371"/>
<text text-anchor="middle" x="594.0063" y="-1062.1892" font-family="Roboto Mono" font-size="10.00" fill="#555555">triggers (via</text>
<text text-anchor="middle" x="594.0063" y="-1049.0008" font-family="Roboto Mono" font-size="10.00" fill="#555555">public or</text>
<text text-anchor="middle" x="594.0063" y="-1035.8123" font-family="Roboto Mono" font-size="10.00" fill="#555555">Elastic IP)</text>
</g>
<!-- internet&#45;&gt;elb -->
<g id="edge33" class="edge">
<title>internet&#45;&gt;elb</title>
<path fill="none" stroke="#555555" d="M606.8379,-823.8273C645.0473,-809.7485 696.9477,-787.0685 736,-756.5641 775.0059,-726.0959 776.1785,-709.4526 806,-669.9501 841.3449,-623.131 836.7581,-599.3781 882,-562.0357 897.0349,-549.626 905.1755,-553.8839 922,-544.0357 927.5722,-540.774 933.2911,-536.9393 938.6655,-533.0837"/>
<polygon fill="#555555" stroke="#555555" points="940.8067,-535.8532 946.757,-527.0871 936.6388,-530.2293 940.8067,-535.8532"/>
<text text-anchor="middle" x="816.0039" y="-693.1385" font-family="Roboto Mono" font-size="10.00" fill="#555555">triggers</text>
</g>
<!-- internet&#45;&gt;s3 -->
<g id="edge35" class="edge">
<title>internet&#45;&gt;s3</title>
<path fill="none" stroke="#555555" d="M530.9447,-808.8012C507.8288,-775.9816 474.48,-722.3897 461,-669.9501 451.1167,-631.5021 454.9762,-586.0902 460.1924,-553.8989"/>
<polygon fill="#555555" stroke="#555555" points="463.6597,-554.388 461.9179,-543.9373 456.7624,-553.1932 463.6597,-554.388"/>
<text text-anchor="middle" x="495.0039" y="-693.1385" font-family="Roboto Mono" font-size="10.00" fill="#555555">accesses</text>
</g>
<!-- internet&#45;&gt;cloudfront -->
<g id="edge31" class="edge">
<title>internet&#45;&gt;cloudfront</title>
<path fill="none" stroke="#555555" d="M552.5614,-805.4295C549.8564,-766.2988 545.5418,-703.8839 543.0188,-667.3855"/>
<polygon fill="#555555" stroke="#555555" points="546.4785,-666.6797 542.2971,-656.9449 539.4951,-667.1625 546.4785,-666.6797"/>
<text text-anchor="middle" x="573.0039" y="-736.4455" font-family="Roboto Mono" font-size="10.00" fill="#555555">accesses</text>
</g>
<!-- route53 -->
<g id="node21" class="node">
<title>route53</title>
<ellipse fill="#f3bb44" stroke="#f3bb44" cx="668" cy="-737.8513" rx="58.6785" ry="18.928"/>
<text text-anchor="middle" x="668" y="-735.8832" font-family="Roboto Mono" font-size="14.00" fill="#000000">Route 53</text>
</g>
<!-- internet&#45;&gt;route53 -->
<g id="edge34" class="edge">
<title>internet&#45;&gt;route53</title>
<path fill="none" stroke="#555555" d="M565.7157,-806.1767C570.51,-795.0101 577.129,-783.2755 585.9922,-774.5641 594.2525,-766.4452 604.6199,-759.9475 615.1772,-754.8136"/>
<polygon fill="#555555" stroke="#555555" points="616.7673,-757.9363 624.4556,-750.6466 613.8994,-751.5508 616.7673,-757.9363"/>
<text text-anchor="middle" x="609.0039" y="-779.7526" font-family="Roboto Mono" font-size="10.00" fill="#555555">triggers</text>
</g>
<!-- route53&#45;&gt;ec2 -->
<g id="edge42" class="edge">
<title>route53&#45;&gt;ec2</title>
<path fill="none" stroke="#555555" d="M662.1075,-756.5959C656.208,-777.0518 648,-810.873 648,-840.7067 648,-1119.958 648,-1119.958 648,-1119.958 648,-1156.7429 613.7176,-1185.6012 586.7818,-1202.5982"/>
<polygon fill="#555555" stroke="#555555" points="584.7439,-1199.7399 577.9888,-1207.902 588.3594,-1205.734 584.7439,-1199.7399"/>
<text text-anchor="middle" x="675.0068" y="-992.5053" font-family="Roboto Mono" font-size="10.00" fill="#555555">refers to</text>
</g>
<!-- route53&#45;&gt;elb -->
<g id="edge43" class="edge">
<title>route53&#45;&gt;elb</title>
<path fill="none" stroke="#555555" d="M679.6601,-719.4398C702.2122,-683.8518 749.7957,-608.8812 751.9863,-606.4126 772.6082,-583.1741 777.642,-574.7287 806,-562.0357 853.62,-540.721 873.8474,-564.118 922,-544.0357 928.184,-541.4566 934.2995,-537.806 939.8935,-533.8932"/>
<polygon fill="#555555" stroke="#555555" points="942.3073,-536.457 948.1896,-527.6451 938.096,-530.8654 942.3073,-536.457"/>
<text text-anchor="middle" x="778.0068" y="-636.7756" font-family="Roboto Mono" font-size="10.00" fill="#555555">refers to</text>
</g>
<!-- route53&#45;&gt;s3 -->
<g id="edge44" class="edge">
<title>route53&#45;&gt;s3</title>
<path fill="none" stroke="#555555" d="M665.1248,-718.9257C658.5019,-682.3175 638.5824,-601.9107 587,-562.0357 567.8558,-547.2366 543.6627,-536.0257 522.1734,-528.0267"/>
<polygon fill="#555555" stroke="#555555" points="523.1127,-524.6457 512.5181,-524.5762 520.757,-531.2374 523.1127,-524.6457"/>
<text text-anchor="middle" x="680.0068" y="-636.7756" font-family="Roboto Mono" font-size="10.00" fill="#555555">refers to</text>
</g>
<!-- route53&#45;&gt;cloudfront -->
<g id="edge41" class="edge">
<title>route53&#45;&gt;cloudfront</title>
<path fill="none" stroke="#555555" d="M623.3699,-725.359C608.4505,-719.6688 592.4615,-711.7697 579.9863,-701.1385 568.8681,-691.6638 559.9392,-678.1971 553.4464,-666.1487"/>
<polygon fill="#555555" stroke="#555555" points="556.4023,-664.238 548.7663,-656.8934 550.1555,-667.3968 556.4023,-664.238"/>
<text text-anchor="middle" x="606.0068" y="-693.1385" font-family="Roboto Mono" font-size="10.00" fill="#555555">refers to</text>
</g>
</g>
</svg>
